<?xml version="1.0" encoding="UTF-8" standalone="no"?>
<!DOCTYPE svg PUBLIC "-//W3C//DTD SVG 1.1//EN"
 "http://www.w3.org/Graphics/SVG/1.1/DTD/svg11.dtd">
<!-- Generated by graphviz version 12.1.2 (20240928.0832)
 -->
<!-- Title: G Pages: 1 -->
<svg width="1215pt" height="661pt"
 viewBox="0.00 0.00 1214.94 660.59" xmlns="http://www.w3.org/2000/svg" xmlns:xlink="http://www.w3.org/1999/xlink">
<g id="graph0" class="graph" transform="scale(1 1) rotate(0) translate(4 656.59)">
<title>G</title>
<polygon fill="white" stroke="none" points="-4,4 -4,-656.59 1210.94,-656.59 1210.94,4 -4,4"/>
<!-- n_2eab37db66 -->
<g id="node1" class="node">
<title>n_2eab37db66</title>
<polygon fill="none" stroke="black" points="54,-52 0,-52 0,-16 54,-16 54,-52"/>
<text text-anchor="middle" x="27" y="-30.12" font-family="Times New Roman,serif" font-size="10.00">AHU&#45;1</text>
</g>
<!-- n_3d423b0396 -->
<g id="node3" class="node">
<title>n_3d423b0396</title>
<polygon fill="none" stroke="black" points="186,-291 132,-291 132,-255 186,-255 186,-291"/>
<text text-anchor="middle" x="159" y="-269.12" font-family="Times New Roman,serif" font-size="10.00">Coil</text>
</g>
<!-- n_2eab37db66&#45;&gt;n_3d423b0396 -->
<g id="edge9" class="edge">
<title>n_2eab37db66&#45;&gt;n_3d423b0396</title>
<path fill="none" stroke="black" d="M37.99,-52.36C60.53,-93.8 115.51,-194.88 142.51,-244.53"/>
<polygon fill="black" stroke="black" points="139.4,-246.14 147.26,-253.25 145.55,-242.79 139.4,-246.14"/>
<text text-anchor="middle" x="93" y="-190.82" font-family="Times New Roman,serif" font-size="9.00">hasMember</text>
</g>
<!-- n_a53a18a041 -->
<g id="node13" class="node">
<title>n_a53a18a041</title>
<polygon fill="none" stroke="black" points="416.48,-36 362.48,-36 362.48,0 416.48,0 416.48,-36"/>
<text text-anchor="middle" x="389.48" y="-14.13" font-family="Times New Roman,serif" font-size="10.00">SF</text>
</g>
<!-- n_2eab37db66&#45;&gt;n_a53a18a041 -->
<g id="edge14" class="edge">
<title>n_2eab37db66&#45;&gt;n_a53a18a041</title>
<path fill="none" stroke="black" d="M54.22,-32.84C117.29,-30.04 277.72,-22.92 350.97,-19.66"/>
<polygon fill="black" stroke="black" points="351.02,-23.17 360.85,-19.23 350.71,-16.17 351.02,-23.17"/>
<text text-anchor="middle" x="159" y="-31.32" font-family="Times New Roman,serif" font-size="9.00">hasMember</text>
</g>
<!-- n_08d4ebf92d -->
<g id="node2" class="node">
<title>n_08d4ebf92d</title>
<ellipse fill="none" stroke="black" cx="389.48" cy="-577" rx="75.59" ry="75.59"/>
<text text-anchor="middle" x="389.48" y="-573.12" font-family="Times New Roman,serif" font-size="10.00">averageSurfaceTemperature</text>
</g>
<!-- n_3d423b0396&#45;&gt;n_08d4ebf92d -->
<g id="edge3" class="edge">
<title>n_3d423b0396&#45;&gt;n_08d4ebf92d</title>
<path fill="none" stroke="black" d="M159.7,-291.47C160.03,-327.94 165.34,-410.28 204,-464 229.97,-500.09 271.37,-526.96 308.37,-545.43"/>
<polygon fill="black" stroke="black" points="306.79,-548.55 317.31,-549.75 309.83,-542.25 306.79,-548.55"/>
<text text-anchor="middle" x="239.62" y="-527.9" font-family="Times New Roman,serif" font-size="9.00">hasProperty</text>
</g>
<!-- n_5c08660e42 -->
<g id="node4" class="node">
<title>n_5c08660e42</title>
<polygon fill="none" stroke="black" points="389.48,-375 334.67,-357 389.48,-339 444.29,-357 389.48,-375"/>
<text text-anchor="middle" x="389.48" y="-353.12" font-family="Times New Roman,serif" font-size="10.00">Coil.airInlet</text>
</g>
<!-- n_3d423b0396&#45;&gt;n_5c08660e42 -->
<g id="edge25" class="edge">
<title>n_3d423b0396&#45;&gt;n_5c08660e42</title>
<path fill="none" stroke="black" d="M170.48,-291.41C178.2,-303.22 189.8,-317.83 204,-326 240.35,-346.92 286.97,-354.62 324.25,-357.12"/>
<polygon fill="black" stroke="black" points="323.81,-360.6 333.99,-357.65 324.2,-353.61 323.81,-360.6"/>
<text text-anchor="middle" x="239.62" y="-351.94" font-family="Times New Roman,serif" font-size="9.00">hasConnectionPoint</text>
</g>
<!-- n_f312d0ea7b -->
<g id="node5" class="node">
<title>n_f312d0ea7b</title>
<polygon fill="none" stroke="black" points="564.8,-273 503.71,-255 564.8,-237 625.88,-255 564.8,-273"/>
<text text-anchor="middle" x="564.8" y="-251.12" font-family="Times New Roman,serif" font-size="10.00">Coil.airOutlet</text>
</g>
<!-- n_3d423b0396&#45;&gt;n_f312d0ea7b -->
<g id="edge8" class="edge">
<title>n_3d423b0396&#45;&gt;n_f312d0ea7b</title>
<path fill="none" stroke="black" d="M186.15,-279.37C241.97,-291.91 376.57,-316.55 485.71,-292 502.67,-288.19 520.27,-280.24 534.47,-272.69"/>
<polygon fill="black" stroke="black" points="535.77,-275.97 542.81,-268.06 532.37,-269.85 535.77,-275.97"/>
<text text-anchor="middle" x="239.62" y="-296.38" font-family="Times New Roman,serif" font-size="9.00">hasConnectionPoint</text>
</g>
<!-- n_9c9f8a2cb9 -->
<g id="node6" class="node">
<title>n_9c9f8a2cb9</title>
<polygon fill="none" stroke="black" points="389.48,-429 299.53,-411 389.48,-393 479.43,-411 389.48,-429"/>
<text text-anchor="middle" x="389.48" y="-407.12" font-family="Times New Roman,serif" font-size="10.00">Coil.chilledWaterInlet</text>
</g>
<!-- n_3d423b0396&#45;&gt;n_9c9f8a2cb9 -->
<g id="edge10" class="edge">
<title>n_3d423b0396&#45;&gt;n_9c9f8a2cb9</title>
<path fill="none" stroke="black" d="M163.93,-291.25C169.35,-311.99 181.17,-345.35 204,-364 232.64,-387.4 271.49,-399.32 306.15,-405.33"/>
<polygon fill="black" stroke="black" points="305.32,-408.74 315.74,-406.84 306.41,-401.83 305.32,-408.74"/>
<text text-anchor="middle" x="239.62" y="-399.71" font-family="Times New Roman,serif" font-size="9.00">hasConnectionPoint</text>
</g>
<!-- n_e9404ece77 -->
<g id="node7" class="node">
<title>n_e9404ece77</title>
<polygon fill="none" stroke="black" points="389.48,-483 293.25,-465 389.48,-447 485.71,-465 389.48,-483"/>
<text text-anchor="middle" x="389.48" y="-461.12" font-family="Times New Roman,serif" font-size="10.00">Coil.chilledWaterOutlet</text>
</g>
<!-- n_3d423b0396&#45;&gt;n_e9404ece77 -->
<g id="edge2" class="edge">
<title>n_3d423b0396&#45;&gt;n_e9404ece77</title>
<path fill="none" stroke="black" d="M160.52,-291.11C162.36,-320.63 170.33,-379.1 204,-412 230.78,-438.16 269.58,-451.57 304.69,-458.38"/>
<polygon fill="black" stroke="black" points="304,-461.81 314.46,-460.1 305.22,-454.92 304,-461.81"/>
<text text-anchor="middle" x="239.62" y="-451.69" font-family="Times New Roman,serif" font-size="9.00">hasConnectionPoint</text>
</g>
<!-- n_15c58f4722 -->
<g id="node10" class="node">
<title>n_15c58f4722</title>
<ellipse fill="none" stroke="black" cx="389.48" cy="-235" rx="47.63" ry="47.63"/>
<text text-anchor="middle" x="389.48" y="-231.12" font-family="Times New Roman,serif" font-size="10.00">internalPressure</text>
</g>
<!-- n_3d423b0396&#45;&gt;n_15c58f4722 -->
<g id="edge11" class="edge">
<title>n_3d423b0396&#45;&gt;n_15c58f4722</title>
<path fill="none" stroke="black" d="M186.21,-268.64C221.29,-262.81 284.49,-252.3 330.93,-244.57"/>
<polygon fill="black" stroke="black" points="331.27,-248.06 340.56,-242.97 330.12,-241.16 331.27,-248.06"/>
<text text-anchor="middle" x="239.62" y="-266.74" font-family="Times New Roman,serif" font-size="9.00">hasProperty</text>
</g>
<!-- n_21562cc1d6 -->
<g id="node11" class="node">
<title>n_21562cc1d6</title>
<ellipse fill="none" stroke="black" cx="389.48" cy="-112" rx="57.84" ry="57.84"/>
<text text-anchor="middle" x="389.48" y="-108.12" font-family="Times New Roman,serif" font-size="10.00">internalTemperature</text>
</g>
<!-- n_3d423b0396&#45;&gt;n_21562cc1d6 -->
<g id="edge24" class="edge">
<title>n_3d423b0396&#45;&gt;n_21562cc1d6</title>
<path fill="none" stroke="black" d="M183.6,-254.72C190.16,-249.72 197.32,-244.35 204,-239.5 246.41,-208.72 295.22,-175.07 331.98,-150.06"/>
<polygon fill="black" stroke="black" points="333.49,-153.26 339.8,-144.75 329.56,-147.47 333.49,-153.26"/>
<text text-anchor="middle" x="239.62" y="-241.45" font-family="Times New Roman,serif" font-size="9.00">hasProperty</text>
</g>
<!-- n_3d423b0396&#45;&gt;n_a53a18a041 -->
<g id="edge19" class="edge">
<title>n_3d423b0396&#45;&gt;n_a53a18a041</title>
<path fill="none" stroke="black" d="M167.18,-254.56C175.22,-234.6 189.08,-202.05 204,-175.5 212.6,-160.18 278.99,-55.26 293.25,-45 310.12,-32.87 332.29,-26.17 351,-22.48"/>
<polygon fill="black" stroke="black" points="351.38,-25.97 360.63,-20.81 350.18,-19.07 351.38,-25.97"/>
<text text-anchor="middle" x="239.62" y="-177.45" font-family="Times New Roman,serif" font-size="9.00">connectedFrom</text>
</g>
<!-- n_9c802b4b77 -->
<g id="node9" class="node">
<title>n_9c802b4b77</title>
<polygon fill="none" stroke="black" points="1206.94,-300 1152.69,-300 1152.69,-264 1206.94,-264 1206.94,-300"/>
<text text-anchor="middle" x="1179.82" y="-278.12" font-family="Times New Roman,serif" font-size="10.00">Fluid&#45;Air</text>
</g>
<!-- n_5c08660e42&#45;&gt;n_9c802b4b77 -->
<g id="edge12" class="edge">
<title>n_5c08660e42&#45;&gt;n_9c802b4b77</title>
<path fill="none" stroke="black" d="M438.98,-359.24C551.52,-363.58 838.75,-369.62 1074.69,-332 1101.95,-327.65 1109.95,-328.22 1134.69,-316 1139.64,-313.56 1144.57,-310.52 1149.24,-307.27"/>
<polygon fill="black" stroke="black" points="1151.28,-310.12 1157.2,-301.33 1147.09,-304.51 1151.28,-310.12"/>
<text text-anchor="middle" x="899.04" y="-357.42" font-family="Times New Roman,serif" font-size="9.00">hasMedium</text>
</g>
<!-- n_8236532bf3 -->
<g id="node12" class="node">
<title>n_8236532bf3</title>
<polygon fill="none" stroke="black" points="833.13,-333 643.88,-333 643.88,-297 833.13,-297 833.13,-333"/>
<text text-anchor="middle" x="738.51" y="-311.12" font-family="Times New Roman,serif" font-size="10.00">n29f2ea0f8d7c44c4b0d103bf10c98772b6</text>
</g>
<!-- n_5c08660e42&#45;&gt;n_8236532bf3 -->
<g id="edge6" class="edge">
<title>n_5c08660e42&#45;&gt;n_8236532bf3</title>
<path fill="none" stroke="black" d="M420.25,-348.71C439.33,-342.98 464.43,-334.66 485.71,-325 494.14,-321.17 494.77,-316.92 503.71,-314.5 544.81,-303.39 591.48,-301.47 632.25,-303.07"/>
<polygon fill="black" stroke="black" points="631.92,-306.56 642.07,-303.54 632.25,-299.56 631.92,-306.56"/>
<text text-anchor="middle" x="564.8" y="-316.45" font-family="Times New Roman,serif" font-size="9.00">connectsThrough</text>
</g>
<!-- n_f312d0ea7b&#45;&gt;n_9c802b4b77 -->
<g id="edge13" class="edge">
<title>n_f312d0ea7b&#45;&gt;n_9c802b4b77</title>
<path fill="none" stroke="black" d="M613.76,-250.98C704.3,-244.27 906.42,-233.54 1074.69,-255 1097.15,-257.86 1121.68,-264.07 1141.29,-269.81"/>
<polygon fill="black" stroke="black" points="1140.18,-273.13 1150.77,-272.67 1142.21,-266.43 1140.18,-273.13"/>
<text text-anchor="middle" x="899.04" y="-246.22" font-family="Times New Roman,serif" font-size="9.00">hasMedium</text>
</g>
<!-- n_f0bdc4e838 -->
<g id="node17" class="node">
<title>n_f0bdc4e838</title>
<polygon fill="none" stroke="black" points="787.38,-449 689.63,-449 689.63,-413 787.38,-413 787.38,-449"/>
<text text-anchor="middle" x="738.51" y="-427.12" font-family="Times New Roman,serif" font-size="10.00">Water&#45;ChilledWater</text>
</g>
<!-- n_9c9f8a2cb9&#45;&gt;n_f0bdc4e838 -->
<g id="edge22" class="edge">
<title>n_9c9f8a2cb9&#45;&gt;n_f0bdc4e838</title>
<path fill="none" stroke="black" d="M461.12,-415.07C524.98,-418.75 617.93,-424.11 678.07,-427.57"/>
<polygon fill="black" stroke="black" points="677.57,-431.05 687.75,-428.13 677.97,-424.06 677.57,-431.05"/>
<text text-anchor="middle" x="564.8" y="-426.48" font-family="Times New Roman,serif" font-size="9.00">hasMedium</text>
</g>
<!-- n_e9404ece77&#45;&gt;n_f0bdc4e838 -->
<g id="edge17" class="edge">
<title>n_e9404ece77&#45;&gt;n_f0bdc4e838</title>
<path fill="none" stroke="black" d="M454.53,-458.72C518.42,-452.47 615.76,-442.93 678,-436.83"/>
<polygon fill="black" stroke="black" points="678.07,-440.34 687.69,-435.88 677.39,-433.37 678.07,-440.34"/>
<text text-anchor="middle" x="564.8" y="-454.98" font-family="Times New Roman,serif" font-size="9.00">hasMedium</text>
</g>
<!-- n_f3e8c0989f -->
<g id="node8" class="node">
<title>n_f3e8c0989f</title>
<polygon fill="none" stroke="black" points="1074.69,-36 964.94,-36 964.94,0 1074.69,0 1074.69,-36"/>
<text text-anchor="middle" x="1019.82" y="-14.13" font-family="Times New Roman,serif" font-size="10.00">Constituent&#45;Electricity</text>
</g>
<!-- n_8236532bf3&#45;&gt;n_5c08660e42 -->
<g id="edge4" class="edge">
<title>n_8236532bf3&#45;&gt;n_5c08660e42</title>
<path fill="none" stroke="black" d="M643.48,-326.38C578.71,-334.22 495.1,-344.34 442.12,-350.75"/>
<polygon fill="black" stroke="black" points="441.98,-347.24 432.47,-351.92 442.82,-354.19 441.98,-347.24"/>
<text text-anchor="middle" x="564.8" y="-344.17" font-family="Times New Roman,serif" font-size="9.00">connectsAt</text>
</g>
<!-- n_8236532bf3&#45;&gt;n_9c802b4b77 -->
<g id="edge21" class="edge">
<title>n_8236532bf3&#45;&gt;n_9c802b4b77</title>
<path fill="none" stroke="black" d="M833.45,-318.72C900.86,-320.08 993.71,-319.26 1074.69,-309 1101.67,-305.58 1108.43,-304.06 1134.69,-297 1136.95,-296.39 1139.26,-295.73 1141.59,-295.04"/>
<polygon fill="black" stroke="black" points="1142.47,-298.43 1150.95,-292.07 1140.36,-291.75 1142.47,-298.43"/>
<text text-anchor="middle" x="1019.82" y="-319.49" font-family="Times New Roman,serif" font-size="9.00">hasMedium</text>
</g>
<!-- n_a1332c08a5 -->
<g id="node15" class="node">
<title>n_a1332c08a5</title>
<polygon fill="none" stroke="black" points="1019.82,-300 965.64,-282 1019.82,-264 1074,-282 1019.82,-300"/>
<text text-anchor="middle" x="1019.82" y="-278.12" font-family="Times New Roman,serif" font-size="10.00">SF.airOutlet</text>
</g>
<!-- n_8236532bf3&#45;&gt;n_a1332c08a5 -->
<g id="edge26" class="edge">
<title>n_8236532bf3&#45;&gt;n_a1332c08a5</title>
<path fill="none" stroke="black" d="M782.1,-296.58C802.56,-288.7 827.68,-280.43 851.13,-276.5 893.13,-269.46 904.39,-274.87 946.94,-276.5 952.66,-276.72 958.62,-277.03 964.57,-277.41"/>
<polygon fill="black" stroke="black" points="964.18,-280.89 974.39,-278.07 964.65,-273.9 964.18,-280.89"/>
<text text-anchor="middle" x="899.04" y="-278.45" font-family="Times New Roman,serif" font-size="9.00">connectsAt</text>
</g>
<!-- n_a53a18a041&#45;&gt;n_3d423b0396 -->
<g id="edge23" class="edge">
<title>n_a53a18a041&#45;&gt;n_3d423b0396</title>
<path fill="none" stroke="black" d="M362.04,-19.69C316.47,-23.15 225.91,-32.66 204,-54.5 177.75,-80.67 166.15,-190.03 161.97,-243.42"/>
<polygon fill="black" stroke="black" points="158.49,-243.07 161.24,-253.31 165.47,-243.59 158.49,-243.07"/>
<text text-anchor="middle" x="239.62" y="-56.45" font-family="Times New Roman,serif" font-size="9.00">connectedTo</text>
</g>
<!-- n_8af4776210 -->
<g id="node14" class="node">
<title>n_8af4776210</title>
<polygon fill="none" stroke="black" points="899.04,-140 851.13,-122 899.04,-104 946.94,-122 899.04,-140"/>
<text text-anchor="middle" x="899.04" y="-118.12" font-family="Times New Roman,serif" font-size="10.00">SF.airInlet</text>
</g>
<!-- n_a53a18a041&#45;&gt;n_8af4776210 -->
<g id="edge16" class="edge">
<title>n_a53a18a041&#45;&gt;n_8af4776210</title>
<path fill="none" stroke="black" d="M416.7,-23.37C499.28,-40.29 754.52,-92.59 855.9,-113.37"/>
<polygon fill="black" stroke="black" points="854.94,-116.74 865.43,-115.32 856.34,-109.88 854.94,-116.74"/>
<text text-anchor="middle" x="564.8" y="-67.5" font-family="Times New Roman,serif" font-size="9.00">hasConnectionPoint</text>
</g>
<!-- n_a53a18a041&#45;&gt;n_a1332c08a5 -->
<g id="edge1" class="edge">
<title>n_a53a18a041&#45;&gt;n_a1332c08a5</title>
<path fill="none" stroke="black" d="M416.94,-19.81C437.67,-22.47 466.16,-29 485.71,-45 499.25,-56.08 490.27,-68.8 503.71,-80 661.82,-211.74 768.93,-110.74 946.94,-214 967.25,-225.78 986.35,-244.36 999.75,-259.12"/>
<polygon fill="black" stroke="black" points="997.09,-261.39 1006.32,-266.59 1002.35,-256.77 997.09,-261.39"/>
<text text-anchor="middle" x="738.51" y="-171.48" font-family="Times New Roman,serif" font-size="9.00">hasConnectionPoint</text>
</g>
<!-- n_3cb21cc443 -->
<g id="node16" class="node">
<title>n_3cb21cc443</title>
<polygon fill="none" stroke="black" points="738.51,-36 668.01,-18 738.51,0 809.01,-18 738.51,-36"/>
<text text-anchor="middle" x="738.51" y="-14.13" font-family="Times New Roman,serif" font-size="10.00">SF.electricalInlet</text>
</g>
<!-- n_a53a18a041&#45;&gt;n_3cb21cc443 -->
<g id="edge15" class="edge">
<title>n_a53a18a041&#45;&gt;n_3cb21cc443</title>
<path fill="none" stroke="black" d="M416.85,-18C466.98,-18 577.9,-18 655.15,-18"/>
<polygon fill="black" stroke="black" points="654.78,-21.5 664.78,-18 654.78,-14.5 654.78,-21.5"/>
<text text-anchor="middle" x="564.8" y="-19.95" font-family="Times New Roman,serif" font-size="9.00">hasConnectionPoint</text>
</g>
<!-- n_8af4776210&#45;&gt;n_9c802b4b77 -->
<g id="edge18" class="edge">
<title>n_8af4776210&#45;&gt;n_9c802b4b77</title>
<path fill="none" stroke="black" d="M929.35,-129.07C976.52,-141.57 1070.47,-171.14 1134.69,-222 1145.83,-230.82 1155.53,-243.11 1162.98,-254.28"/>
<polygon fill="black" stroke="black" points="1159.81,-255.82 1168.12,-262.4 1165.73,-252.08 1159.81,-255.82"/>
<text text-anchor="middle" x="1019.82" y="-184.21" font-family="Times New Roman,serif" font-size="9.00">hasMedium</text>
</g>
<!-- n_a1332c08a5&#45;&gt;n_9c802b4b77 -->
<g id="edge20" class="edge">
<title>n_a1332c08a5&#45;&gt;n_9c802b4b77</title>
<path fill="none" stroke="black" d="M1075.19,-282C1096.88,-282 1121.32,-282 1141.01,-282"/>
<polygon fill="black" stroke="black" points="1140.79,-285.5 1150.79,-282 1140.79,-278.5 1140.79,-285.5"/>
<text text-anchor="middle" x="1113.69" y="-283.95" font-family="Times New Roman,serif" font-size="9.00">hasMedium</text>
</g>
<!-- n_a1332c08a5&#45;&gt;n_8236532bf3 -->
<g id="edge7" class="edge">
<title>n_a1332c08a5&#45;&gt;n_8236532bf3</title>
<path fill="none" stroke="black" d="M978.64,-286.75C943.62,-290.88 891.25,-297.07 844.43,-302.6"/>
<polygon fill="black" stroke="black" points="844.31,-299.09 834.79,-303.74 845.13,-306.04 844.31,-299.09"/>
<text text-anchor="middle" x="899.04" y="-303.41" font-family="Times New Roman,serif" font-size="9.00">connectsThrough</text>
</g>
<!-- n_3cb21cc443&#45;&gt;n_f3e8c0989f -->
<g id="edge5" class="edge">
<title>n_3cb21cc443&#45;&gt;n_f3e8c0989f</title>
<path fill="none" stroke="black" d="M810.71,-18C854.53,-18 910.31,-18 953.08,-18"/>
<polygon fill="black" stroke="black" points="952.98,-21.5 962.98,-18 952.98,-14.5 952.98,-21.5"/>
<text text-anchor="middle" x="899.04" y="-19.95" font-family="Times New Roman,serif" font-size="9.00">hasMedium</text>
</g>
</g>
</svg>
