<?xml version="1.0" encoding="UTF-8" standalone="no"?>
<!DOCTYPE svg PUBLIC "-//W3C//DTD SVG 1.1//EN"
 "http://www.w3.org/Graphics/SVG/1.1/DTD/svg11.dtd">
<!-- Generated by graphviz version 12.1.2 (20240928.0832)
 -->
<!-- Title: G Pages: 1 -->
<svg width="1222pt" height="661pt"
 viewBox="0.00 0.00 1221.69 660.59" xmlns="http://www.w3.org/2000/svg" xmlns:xlink="http://www.w3.org/1999/xlink">
<g id="graph0" class="graph" transform="scale(1 1) rotate(0) translate(4 656.59)">
<title>G</title>
<polygon fill="white" stroke="none" points="-4,4 -4,-656.59 1217.69,-656.59 1217.69,4 -4,4"/>
<!-- n_e08cdff03b -->
<g id="node1" class="node">
<title>n_e08cdff03b</title>
<polygon fill="none" stroke="black" points="54,-52 0,-52 0,-16 54,-16 54,-52"/>
<text text-anchor="middle" x="27" y="-30.12" font-family="Times New Roman,serif" font-size="10.00">AHU&#45;1</text>
</g>
<!-- n_71385405e0 -->
<g id="node3" class="node">
<title>n_71385405e0</title>
<polygon fill="none" stroke="black" points="186,-291 132,-291 132,-255 186,-255 186,-291"/>
<text text-anchor="middle" x="159" y="-269.12" font-family="Times New Roman,serif" font-size="10.00">Coil</text>
</g>
<!-- n_e08cdff03b&#45;&gt;n_71385405e0 -->
<g id="edge7" class="edge">
<title>n_e08cdff03b&#45;&gt;n_71385405e0</title>
<path fill="none" stroke="black" d="M37.99,-52.36C60.53,-93.8 115.51,-194.88 142.51,-244.53"/>
<polygon fill="black" stroke="black" points="139.4,-246.14 147.26,-253.25 145.55,-242.79 139.4,-246.14"/>
<text text-anchor="middle" x="93" y="-190.82" font-family="Times New Roman,serif" font-size="9.00">hasMember</text>
</g>
<!-- n_204c8bebc1 -->
<g id="node13" class="node">
<title>n_204c8bebc1</title>
<polygon fill="none" stroke="black" points="416.48,-36 362.48,-36 362.48,0 416.48,0 416.48,-36"/>
<text text-anchor="middle" x="389.48" y="-14.13" font-family="Times New Roman,serif" font-size="10.00">SF</text>
</g>
<!-- n_e08cdff03b&#45;&gt;n_204c8bebc1 -->
<g id="edge5" class="edge">
<title>n_e08cdff03b&#45;&gt;n_204c8bebc1</title>
<path fill="none" stroke="black" d="M54.22,-32.84C117.29,-30.04 277.72,-22.92 350.97,-19.66"/>
<polygon fill="black" stroke="black" points="351.02,-23.17 360.85,-19.23 350.71,-16.17 351.02,-23.17"/>
<text text-anchor="middle" x="159" y="-31.32" font-family="Times New Roman,serif" font-size="9.00">hasMember</text>
</g>
<!-- n_419e4811f2 -->
<g id="node2" class="node">
<title>n_419e4811f2</title>
<ellipse fill="none" stroke="black" cx="389.48" cy="-577" rx="75.59" ry="75.59"/>
<text text-anchor="middle" x="389.48" y="-573.12" font-family="Times New Roman,serif" font-size="10.00">averageSurfaceTemperature</text>
</g>
<!-- n_71385405e0&#45;&gt;n_419e4811f2 -->
<g id="edge3" class="edge">
<title>n_71385405e0&#45;&gt;n_419e4811f2</title>
<path fill="none" stroke="black" d="M159.7,-291.47C160.03,-327.94 165.34,-410.28 204,-464 229.97,-500.09 271.37,-526.96 308.37,-545.43"/>
<polygon fill="black" stroke="black" points="306.79,-548.55 317.31,-549.75 309.83,-542.25 306.79,-548.55"/>
<text text-anchor="middle" x="239.62" y="-527.9" font-family="Times New Roman,serif" font-size="9.00">hasProperty</text>
</g>
<!-- n_9367ce8a93 -->
<g id="node4" class="node">
<title>n_9367ce8a93</title>
<polygon fill="none" stroke="black" points="389.48,-375 334.67,-357 389.48,-339 444.29,-357 389.48,-375"/>
<text text-anchor="middle" x="389.48" y="-353.12" font-family="Times New Roman,serif" font-size="10.00">Coil.airInlet</text>
</g>
<!-- n_71385405e0&#45;&gt;n_9367ce8a93 -->
<g id="edge8" class="edge">
<title>n_71385405e0&#45;&gt;n_9367ce8a93</title>
<path fill="none" stroke="black" d="M170.48,-291.41C178.2,-303.22 189.8,-317.83 204,-326 240.35,-346.92 286.97,-354.62 324.25,-357.12"/>
<polygon fill="black" stroke="black" points="323.81,-360.6 333.99,-357.65 324.2,-353.61 323.81,-360.6"/>
<text text-anchor="middle" x="239.62" y="-351.94" font-family="Times New Roman,serif" font-size="9.00">hasConnectionPoint</text>
</g>
<!-- n_05f9833ce5 -->
<g id="node5" class="node">
<title>n_05f9833ce5</title>
<polygon fill="none" stroke="black" points="564.8,-273 503.71,-255 564.8,-237 625.88,-255 564.8,-273"/>
<text text-anchor="middle" x="564.8" y="-251.12" font-family="Times New Roman,serif" font-size="10.00">Coil.airOutlet</text>
</g>
<!-- n_71385405e0&#45;&gt;n_05f9833ce5 -->
<g id="edge1" class="edge">
<title>n_71385405e0&#45;&gt;n_05f9833ce5</title>
<path fill="none" stroke="black" d="M186.15,-279.37C241.97,-291.91 376.57,-316.55 485.71,-292 502.67,-288.19 520.27,-280.24 534.47,-272.69"/>
<polygon fill="black" stroke="black" points="535.77,-275.97 542.81,-268.06 532.37,-269.85 535.77,-275.97"/>
<text text-anchor="middle" x="239.62" y="-296.38" font-family="Times New Roman,serif" font-size="9.00">hasConnectionPoint</text>
</g>
<!-- n_d3da0c7428 -->
<g id="node6" class="node">
<title>n_d3da0c7428</title>
<polygon fill="none" stroke="black" points="389.48,-429 299.53,-411 389.48,-393 479.43,-411 389.48,-429"/>
<text text-anchor="middle" x="389.48" y="-407.12" font-family="Times New Roman,serif" font-size="10.00">Coil.chilledWaterInlet</text>
</g>
<!-- n_71385405e0&#45;&gt;n_d3da0c7428 -->
<g id="edge18" class="edge">
<title>n_71385405e0&#45;&gt;n_d3da0c7428</title>
<path fill="none" stroke="black" d="M163.93,-291.25C169.35,-311.99 181.17,-345.35 204,-364 232.64,-387.4 271.49,-399.32 306.15,-405.33"/>
<polygon fill="black" stroke="black" points="305.32,-408.74 315.74,-406.84 306.41,-401.83 305.32,-408.74"/>
<text text-anchor="middle" x="239.62" y="-399.71" font-family="Times New Roman,serif" font-size="9.00">hasConnectionPoint</text>
</g>
<!-- n_1268c03719 -->
<g id="node7" class="node">
<title>n_1268c03719</title>
<polygon fill="none" stroke="black" points="389.48,-483 293.25,-465 389.48,-447 485.71,-465 389.48,-483"/>
<text text-anchor="middle" x="389.48" y="-461.12" font-family="Times New Roman,serif" font-size="10.00">Coil.chilledWaterOutlet</text>
</g>
<!-- n_71385405e0&#45;&gt;n_1268c03719 -->
<g id="edge9" class="edge">
<title>n_71385405e0&#45;&gt;n_1268c03719</title>
<path fill="none" stroke="black" d="M160.52,-291.11C162.36,-320.63 170.33,-379.1 204,-412 230.78,-438.16 269.58,-451.57 304.69,-458.38"/>
<polygon fill="black" stroke="black" points="304,-461.81 314.46,-460.1 305.22,-454.92 304,-461.81"/>
<text text-anchor="middle" x="239.62" y="-451.69" font-family="Times New Roman,serif" font-size="9.00">hasConnectionPoint</text>
</g>
<!-- n_ee4723373c -->
<g id="node10" class="node">
<title>n_ee4723373c</title>
<ellipse fill="none" stroke="black" cx="389.48" cy="-235" rx="47.63" ry="47.63"/>
<text text-anchor="middle" x="389.48" y="-231.12" font-family="Times New Roman,serif" font-size="10.00">internalPressure</text>
</g>
<!-- n_71385405e0&#45;&gt;n_ee4723373c -->
<g id="edge26" class="edge">
<title>n_71385405e0&#45;&gt;n_ee4723373c</title>
<path fill="none" stroke="black" d="M186.21,-268.64C221.29,-262.81 284.49,-252.3 330.93,-244.57"/>
<polygon fill="black" stroke="black" points="331.27,-248.06 340.56,-242.97 330.12,-241.16 331.27,-248.06"/>
<text text-anchor="middle" x="239.62" y="-266.74" font-family="Times New Roman,serif" font-size="9.00">hasProperty</text>
</g>
<!-- n_8a1f293213 -->
<g id="node11" class="node">
<title>n_8a1f293213</title>
<ellipse fill="none" stroke="black" cx="389.48" cy="-112" rx="57.84" ry="57.84"/>
<text text-anchor="middle" x="389.48" y="-108.12" font-family="Times New Roman,serif" font-size="10.00">internalTemperature</text>
</g>
<!-- n_71385405e0&#45;&gt;n_8a1f293213 -->
<g id="edge23" class="edge">
<title>n_71385405e0&#45;&gt;n_8a1f293213</title>
<path fill="none" stroke="black" d="M183.6,-254.72C190.16,-249.72 197.32,-244.35 204,-239.5 246.41,-208.72 295.22,-175.07 331.98,-150.06"/>
<polygon fill="black" stroke="black" points="333.49,-153.26 339.8,-144.75 329.56,-147.47 333.49,-153.26"/>
<text text-anchor="middle" x="239.62" y="-241.45" font-family="Times New Roman,serif" font-size="9.00">hasProperty</text>
</g>
<!-- n_71385405e0&#45;&gt;n_204c8bebc1 -->
<g id="edge6" class="edge">
<title>n_71385405e0&#45;&gt;n_204c8bebc1</title>
<path fill="none" stroke="black" d="M167.18,-254.56C175.22,-234.6 189.08,-202.05 204,-175.5 212.6,-160.18 278.99,-55.26 293.25,-45 310.12,-32.87 332.29,-26.17 351,-22.48"/>
<polygon fill="black" stroke="black" points="351.38,-25.97 360.63,-20.81 350.18,-19.07 351.38,-25.97"/>
<text text-anchor="middle" x="239.62" y="-177.45" font-family="Times New Roman,serif" font-size="9.00">connectedFrom</text>
</g>
<!-- n_9c802b4b77 -->
<g id="node9" class="node">
<title>n_9c802b4b77</title>
<polygon fill="none" stroke="black" points="1213.69,-300 1159.44,-300 1159.44,-264 1213.69,-264 1213.69,-300"/>
<text text-anchor="middle" x="1186.57" y="-278.12" font-family="Times New Roman,serif" font-size="10.00">Fluid&#45;Air</text>
</g>
<!-- n_9367ce8a93&#45;&gt;n_9c802b4b77 -->
<g id="edge19" class="edge">
<title>n_9367ce8a93&#45;&gt;n_9c802b4b77</title>
<path fill="none" stroke="black" d="M441.92,-358.19C489.62,-359.06 562.56,-359.81 625.88,-358 828.6,-352.22 881.19,-364.07 1081.44,-332 1108.69,-327.64 1116.7,-328.22 1141.44,-316 1146.39,-313.56 1151.32,-310.52 1155.99,-307.27"/>
<polygon fill="black" stroke="black" points="1158.03,-310.12 1163.95,-301.33 1153.84,-304.51 1158.03,-310.12"/>
<text text-anchor="middle" x="905.79" y="-356.64" font-family="Times New Roman,serif" font-size="9.00">hasMedium</text>
</g>
<!-- n_4509e848bf -->
<g id="node12" class="node">
<title>n_4509e848bf</title>
<polygon fill="none" stroke="black" points="839.88,-333 643.88,-333 643.88,-297 839.88,-297 839.88,-333"/>
<text text-anchor="middle" x="741.88" y="-311.12" font-family="Times New Roman,serif" font-size="10.00">n1de2ebd5b0d6473baa1d4ef1d77a27f4b13</text>
</g>
<!-- n_9367ce8a93&#45;&gt;n_4509e848bf -->
<g id="edge13" class="edge">
<title>n_9367ce8a93&#45;&gt;n_4509e848bf</title>
<path fill="none" stroke="black" d="M419.13,-348.34C438.2,-342.33 463.71,-333.86 485.71,-325 493.92,-321.7 495.08,-318.46 503.71,-316.5 545,-307.1 591.38,-305.02 632.11,-305.88"/>
<polygon fill="black" stroke="black" points="631.83,-309.37 641.93,-306.15 632.03,-302.37 631.83,-309.37"/>
<text text-anchor="middle" x="564.8" y="-318.45" font-family="Times New Roman,serif" font-size="9.00">connectsThrough</text>
</g>
<!-- n_05f9833ce5&#45;&gt;n_9c802b4b77 -->
<g id="edge12" class="edge">
<title>n_05f9833ce5&#45;&gt;n_9c802b4b77</title>
<path fill="none" stroke="black" d="M613.68,-250.98C705.07,-244.18 910.5,-233.2 1081.44,-255 1103.9,-257.86 1128.43,-264.07 1148.04,-269.81"/>
<polygon fill="black" stroke="black" points="1146.93,-273.13 1157.52,-272.67 1148.96,-266.43 1146.93,-273.13"/>
<text text-anchor="middle" x="905.79" y="-246.36" font-family="Times New Roman,serif" font-size="9.00">hasMedium</text>
</g>
<!-- n_f0bdc4e838 -->
<g id="node17" class="node">
<title>n_f0bdc4e838</title>
<polygon fill="none" stroke="black" points="790.76,-449 693.01,-449 693.01,-413 790.76,-413 790.76,-449"/>
<text text-anchor="middle" x="741.88" y="-427.12" font-family="Times New Roman,serif" font-size="10.00">Water&#45;ChilledWater</text>
</g>
<!-- n_d3da0c7428&#45;&gt;n_f0bdc4e838 -->
<g id="edge4" class="edge">
<title>n_d3da0c7428&#45;&gt;n_f0bdc4e838</title>
<path fill="none" stroke="black" d="M461.39,-415.05C526.02,-418.74 620.41,-424.12 681.25,-427.6"/>
<polygon fill="black" stroke="black" points="680.88,-431.08 691.06,-428.16 681.28,-424.09 680.88,-431.08"/>
<text text-anchor="middle" x="564.8" y="-425.91" font-family="Times New Roman,serif" font-size="9.00">hasMedium</text>
</g>
<!-- n_1268c03719&#45;&gt;n_f0bdc4e838 -->
<g id="edge24" class="edge">
<title>n_1268c03719&#45;&gt;n_f0bdc4e838</title>
<path fill="none" stroke="black" d="M454.75,-458.76C519.38,-452.49 618.24,-442.9 681.19,-436.79"/>
<polygon fill="black" stroke="black" points="681.39,-440.29 691.01,-435.84 680.72,-433.32 681.39,-440.29"/>
<text text-anchor="middle" x="564.8" y="-455.95" font-family="Times New Roman,serif" font-size="9.00">hasMedium</text>
</g>
<!-- n_f3e8c0989f -->
<g id="node8" class="node">
<title>n_f3e8c0989f</title>
<polygon fill="none" stroke="black" points="1081.44,-36 971.69,-36 971.69,0 1081.44,0 1081.44,-36"/>
<text text-anchor="middle" x="1026.57" y="-14.13" font-family="Times New Roman,serif" font-size="10.00">Constituent&#45;Electricity</text>
</g>
<!-- n_4509e848bf&#45;&gt;n_9367ce8a93 -->
<g id="edge17" class="edge">
<title>n_4509e848bf&#45;&gt;n_9367ce8a93</title>
<path fill="none" stroke="black" d="M643.54,-326.67C578.29,-334.49 494.96,-344.48 442.13,-350.81"/>
<polygon fill="black" stroke="black" points="442.03,-347.3 432.52,-351.96 442.87,-354.25 442.03,-347.3"/>
<text text-anchor="middle" x="564.8" y="-345.36" font-family="Times New Roman,serif" font-size="9.00">connectsAt</text>
</g>
<!-- n_4509e848bf&#45;&gt;n_9c802b4b77 -->
<g id="edge22" class="edge">
<title>n_4509e848bf&#45;&gt;n_9c802b4b77</title>
<path fill="none" stroke="black" d="M840.33,-318.84C908.2,-320.15 1000.67,-319.24 1081.44,-309 1108.42,-305.58 1115.18,-304.06 1141.44,-297 1143.7,-296.39 1146.01,-295.73 1148.34,-295.04"/>
<polygon fill="black" stroke="black" points="1149.22,-298.43 1157.7,-292.07 1147.11,-291.75 1149.22,-298.43"/>
<text text-anchor="middle" x="1026.57" y="-319.56" font-family="Times New Roman,serif" font-size="9.00">hasMedium</text>
</g>
<!-- n_01c4d8418a -->
<g id="node15" class="node">
<title>n_01c4d8418a</title>
<polygon fill="none" stroke="black" points="1026.57,-300 972.39,-282 1026.57,-264 1080.75,-282 1026.57,-300"/>
<text text-anchor="middle" x="1026.57" y="-278.12" font-family="Times New Roman,serif" font-size="10.00">SF.airOutlet</text>
</g>
<!-- n_4509e848bf&#45;&gt;n_01c4d8418a -->
<g id="edge14" class="edge">
<title>n_4509e848bf&#45;&gt;n_01c4d8418a</title>
<path fill="none" stroke="black" d="M786.82,-296.58C807.9,-288.7 833.78,-280.43 857.88,-276.5 899.91,-269.65 911.14,-274.87 953.69,-276.5 959.41,-276.72 965.37,-277.03 971.32,-277.41"/>
<polygon fill="black" stroke="black" points="970.93,-280.89 981.14,-278.07 971.4,-273.9 970.93,-280.89"/>
<text text-anchor="middle" x="905.79" y="-278.45" font-family="Times New Roman,serif" font-size="9.00">connectsAt</text>
</g>
<!-- n_204c8bebc1&#45;&gt;n_71385405e0 -->
<g id="edge25" class="edge">
<title>n_204c8bebc1&#45;&gt;n_71385405e0</title>
<path fill="none" stroke="black" d="M362.04,-19.69C316.47,-23.15 225.91,-32.66 204,-54.5 177.75,-80.67 166.15,-190.03 161.97,-243.42"/>
<polygon fill="black" stroke="black" points="158.49,-243.07 161.24,-253.31 165.47,-243.59 158.49,-243.07"/>
<text text-anchor="middle" x="239.62" y="-56.45" font-family="Times New Roman,serif" font-size="9.00">connectedTo</text>
</g>
<!-- n_028474069e -->
<g id="node14" class="node">
<title>n_028474069e</title>
<polygon fill="none" stroke="black" points="905.79,-140 857.88,-122 905.79,-104 953.69,-122 905.79,-140"/>
<text text-anchor="middle" x="905.79" y="-118.12" font-family="Times New Roman,serif" font-size="10.00">SF.airInlet</text>
</g>
<!-- n_204c8bebc1&#45;&gt;n_028474069e -->
<g id="edge20" class="edge">
<title>n_204c8bebc1&#45;&gt;n_028474069e</title>
<path fill="none" stroke="black" d="M416.69,-23.3C500.07,-40.16 759.68,-92.66 862.36,-113.42"/>
<polygon fill="black" stroke="black" points="861.54,-116.83 872.03,-115.38 862.93,-109.96 861.54,-116.83"/>
<text text-anchor="middle" x="564.8" y="-67.5" font-family="Times New Roman,serif" font-size="9.00">hasConnectionPoint</text>
</g>
<!-- n_204c8bebc1&#45;&gt;n_01c4d8418a -->
<g id="edge11" class="edge">
<title>n_204c8bebc1&#45;&gt;n_01c4d8418a</title>
<path fill="none" stroke="black" d="M416.94,-19.81C437.67,-22.47 466.16,-29 485.71,-45 499.25,-56.08 490.25,-68.83 503.71,-80 664.3,-213.25 772.97,-109.67 953.69,-214 974.02,-225.74 993.13,-244.32 1006.52,-259.09"/>
<polygon fill="black" stroke="black" points="1003.86,-261.36 1013.09,-266.57 1009.12,-256.74 1003.86,-261.36"/>
<text text-anchor="middle" x="741.88" y="-171.23" font-family="Times New Roman,serif" font-size="9.00">hasConnectionPoint</text>
</g>
<!-- n_8c9b9422a8 -->
<g id="node16" class="node">
<title>n_8c9b9422a8</title>
<polygon fill="none" stroke="black" points="741.88,-36 671.38,-18 741.88,0 812.38,-18 741.88,-36"/>
<text text-anchor="middle" x="741.88" y="-14.13" font-family="Times New Roman,serif" font-size="10.00">SF.electricalInlet</text>
</g>
<!-- n_204c8bebc1&#45;&gt;n_8c9b9422a8 -->
<g id="edge15" class="edge">
<title>n_204c8bebc1&#45;&gt;n_8c9b9422a8</title>
<path fill="none" stroke="black" d="M416.82,-18C467.41,-18 580.09,-18 658.26,-18"/>
<polygon fill="black" stroke="black" points="658.02,-21.5 668.02,-18 658.02,-14.5 658.02,-21.5"/>
<text text-anchor="middle" x="564.8" y="-19.95" font-family="Times New Roman,serif" font-size="9.00">hasConnectionPoint</text>
</g>
<!-- n_028474069e&#45;&gt;n_9c802b4b77 -->
<g id="edge16" class="edge">
<title>n_028474069e&#45;&gt;n_9c802b4b77</title>
<path fill="none" stroke="black" d="M936.1,-129.07C983.27,-141.57 1077.22,-171.14 1141.44,-222 1152.58,-230.82 1162.28,-243.11 1169.73,-254.28"/>
<polygon fill="black" stroke="black" points="1166.56,-255.82 1174.87,-262.4 1172.48,-252.08 1166.56,-255.82"/>
<text text-anchor="middle" x="1026.57" y="-184.21" font-family="Times New Roman,serif" font-size="9.00">hasMedium</text>
</g>
<!-- n_01c4d8418a&#45;&gt;n_9c802b4b77 -->
<g id="edge21" class="edge">
<title>n_01c4d8418a&#45;&gt;n_9c802b4b77</title>
<path fill="none" stroke="black" d="M1081.94,-282C1103.63,-282 1128.07,-282 1147.76,-282"/>
<polygon fill="black" stroke="black" points="1147.54,-285.5 1157.54,-282 1147.54,-278.5 1147.54,-285.5"/>
<text text-anchor="middle" x="1120.44" y="-283.95" font-family="Times New Roman,serif" font-size="9.00">hasMedium</text>
</g>
<!-- n_01c4d8418a&#45;&gt;n_4509e848bf -->
<g id="edge2" class="edge">
<title>n_01c4d8418a&#45;&gt;n_4509e848bf</title>
<path fill="none" stroke="black" d="M985.25,-286.71C950.37,-290.78 898.3,-296.86 851.35,-302.34"/>
<polygon fill="black" stroke="black" points="851.2,-298.83 841.67,-303.47 852.01,-305.78 851.2,-298.83"/>
<text text-anchor="middle" x="905.79" y="-303.41" font-family="Times New Roman,serif" font-size="9.00">connectsThrough</text>
</g>
<!-- n_8c9b9422a8&#45;&gt;n_f3e8c0989f -->
<g id="edge10" class="edge">
<title>n_8c9b9422a8&#45;&gt;n_f3e8c0989f</title>
<path fill="none" stroke="black" d="M814.22,-18C858.96,-18 916.22,-18 959.86,-18"/>
<polygon fill="black" stroke="black" points="959.7,-21.5 969.7,-18 959.7,-14.5 959.7,-21.5"/>
<text text-anchor="middle" x="905.79" y="-19.95" font-family="Times New Roman,serif" font-size="9.00">hasMedium</text>
</g>
</g>
</svg>
