<?xml version="1.0" encoding="UTF-8" standalone="no"?>
<!DOCTYPE svg PUBLIC "-//W3C//DTD SVG 1.1//EN" "http://www.w3.org/Graphics/SVG/1.1/DTD/svg11.dtd">
<!-- Generated by Microsoft Visio, SVG Export Figure_10_5.svg Page-1 -->
<svg xmlns="http://www.w3.org/2000/svg" xmlns:xlink="http://www.w3.org/1999/xlink" xmlns:ev="http://www.w3.org/2001/xml-events"
		xmlns:v="http://schemas.microsoft.com/visio/2003/SVGExtensions/" width="3.45476in" height="2.60536in"
		viewBox="0 0 124.371 93.7933" xml:space="preserve" color-interpolation-filters="sRGB" class="st5">
	<v:documentProperties v:langID="4105" v:metric="true" v:viewMarkup="false"/>

	<style type="text/css">
	<![CDATA[
		.st1 {stroke:#000000;stroke-linecap:round;stroke-linejoin:round;stroke-width:0.25}
		.st2 {fill:#000000;stroke:#000000;stroke-linecap:round;stroke-linejoin:round;stroke-width:0.25}
		.st3 {fill:none;stroke:none;stroke-linecap:round;stroke-linejoin:round;stroke-width:0.25}
		.st4 {fill:#000000;font-family:Calibri;font-size:0.499992em}
		.st5 {fill:none;fill-rule:evenodd;font-size:12px;overflow:visible;stroke-linecap:square;stroke-miterlimit:3}
	]]>
	</style>

	<g v:mID="0" v:index="1" v:groupContext="foregroundPage">
		<title>Page-1</title>
		<v:pageProperties v:drawingScale="0.0393701" v:pageScale="0.0393701" v:drawingUnits="24" v:shadowOffsetX="8.50394"
				v:shadowOffsetY="-8.50394"/>
		<v:layer v:name="Electrical" v:index="0"/>
		<g id="group354-1" transform="translate(2.55478,-28.8967)" v:mID="354" v:groupContext="group">
			<title>Sheet.354</title>
			<g id="group355-2" transform="translate(-69.1885,68.7067) rotate(-90)" v:mID="355" v:groupContext="group">
				<title>Sheet.355</title>
				<g id="group356-3" transform="translate(2.89613,-0.141732)" v:mID="356" v:groupContext="group" v:layerMember="0">
					<v:custProps>
						<v:cp v:nameU="Core" v:lbl="Core" v:type="1" v:format="Air;Magnetic;Magnetic with Gap" v:langID="1033"
								v:val="VT4(Air)"/>
						<v:cp v:nameU="Adjustability" v:lbl="Adjustability" v:type="1"
								v:format="Fixed;Adjustable;Continuously Adjustable" v:langID="1033" v:val="VT4(Fixed)"/>
						<v:cp v:nameU="Taps" v:lbl="Taps" v:type="1" v:format="0;1;2;3" v:langID="1033" v:val="VT4(0)"/>
						<v:cp v:nameU="Label" v:lbl="Label" v:type="0" v:format="" v:sortKey="" v:invis="false" v:ask="false"
								v:langID="1033" v:val="VT0(0):26"/>
						<v:cp v:nameU="Value" v:lbl="Value" v:type="0" v:format="@" v:sortKey="" v:invis="false" v:ask="false"
								v:langID="1033" v:val="VT4()"/>
					</v:custProps>
					<v:userDefs>
						<v:ud v:nameU="Core" v:val="VT0(0):26"/>
						<v:ud v:nameU="Adjustability" v:val="VT0(0):26"/>
						<v:ud v:nameU="CH"/>
						<v:ud v:nameU="visVersion" v:val="VT0(15):26"/>
						<v:ud v:nameU="visDescription" v:val="VT4(Inductor. Right-click to set inductor properties.)"/>
					</v:userDefs>
					<title>Inductor.18</title>
					<g id="shape357-4" v:mID="357" v:groupContext="shape" v:layerMember="0">
						<title>Sheet.357</title>
						<path d="M0 93.79 A3.54614 4.08856 0 1 1 7.09 93.79 A3.54614 4.08856 0 1 1 14.17 93.79 A3.54614 4.08856 0
									 1 1 21.26 93.79 A3.54614 4.08856 0 1 1 28.35 93.79" class="st1"/>
						<path d="M0 93.79 L0 93.94" class="st1"/>
						<path d="M28.35 93.79 L28.35 93.94" class="st1"/>
					</g>
					<g id="shape358-9" v:mID="358" v:groupContext="shape" v:layerMember="0" transform="translate(13.6639,4.78346)">
						<title>Sheet.358</title>
					</g>
					<g id="shape359-11" v:mID="359" v:groupContext="shape" v:layerMember="0"
							transform="translate(-61.5756,35.9094) rotate(-45)">
						<title>Sheet.359</title>
					</g>
				</g>
				<g id="shape360-13" v:mID="360" v:groupContext="shape" transform="translate(2.89613,187.587) rotate(180)">
					<title>Sheet.360</title>
					<path d="M0 93.79 L2.9 93.79" class="st1"/>
				</g>
				<g id="shape361-16" v:mID="361" v:groupContext="shape" transform="translate(31.2426,0)">
					<title>Sheet.361</title>
					<path d="M0 93.79 L2.77 93.79" class="st1"/>
				</g>
			</g>
			<g id="group362-19" transform="translate(-65.7699,26.6525) rotate(-45)" v:mID="362" v:groupContext="group">
				<title>Sheet.362</title>
				<g id="group363-20" transform="translate(2.89613,-0.141732)" v:mID="363" v:groupContext="group" v:layerMember="0">
					<v:custProps>
						<v:cp v:nameU="Core" v:lbl="Core" v:type="1" v:format="Air;Magnetic;Magnetic with Gap" v:langID="1033"
								v:val="VT4(Air)"/>
						<v:cp v:nameU="Adjustability" v:lbl="Adjustability" v:type="1"
								v:format="Fixed;Adjustable;Continuously Adjustable" v:langID="1033" v:val="VT4(Fixed)"/>
						<v:cp v:nameU="Taps" v:lbl="Taps" v:type="1" v:format="0;1;2;3" v:langID="1033" v:val="VT4(0)"/>
						<v:cp v:nameU="Label" v:lbl="Label" v:type="0" v:format="" v:sortKey="" v:invis="false" v:ask="false"
								v:langID="1033" v:val="VT0(0):26"/>
						<v:cp v:nameU="Value" v:lbl="Value" v:type="0" v:format="@" v:sortKey="" v:invis="false" v:ask="false"
								v:langID="1033" v:val="VT4()"/>
					</v:custProps>
					<v:userDefs>
						<v:ud v:nameU="Core" v:val="VT0(0):26"/>
						<v:ud v:nameU="Adjustability" v:val="VT0(0):26"/>
						<v:ud v:nameU="CH"/>
						<v:ud v:nameU="visVersion" v:val="VT0(15):26"/>
						<v:ud v:nameU="visDescription" v:val="VT4(Inductor. Right-click to set inductor properties.)"/>
					</v:userDefs>
					<title>Inductor.18</title>
					<g id="shape364-21" v:mID="364" v:groupContext="shape" v:layerMember="0">
						<title>Sheet.364</title>
						<path d="M0 93.79 A3.54614 4.08856 0 1 1 7.09 93.79 A3.54614 4.08856 0 1 1 14.17 93.79 A3.54614 4.08856 0
									 1 1 21.26 93.79 A3.54614 4.08856 0 1 1 28.35 93.79" class="st1"/>
						<path d="M0 93.79 L0 93.94" class="st1"/>
						<path d="M28.35 93.79 L28.35 93.94" class="st1"/>
					</g>
					<g id="shape365-26" v:mID="365" v:groupContext="shape" v:layerMember="0" transform="translate(13.6639,4.78346)">
						<title>Sheet.365</title>
					</g>
					<g id="shape366-28" v:mID="366" v:groupContext="shape" v:layerMember="0"
							transform="translate(-61.5756,35.9094) rotate(-45)">
						<title>Sheet.366</title>
					</g>
				</g>
				<g id="shape367-30" v:mID="367" v:groupContext="shape" transform="translate(2.89613,187.587) rotate(180)">
					<title>Sheet.367</title>
					<path d="M0 93.79 L2.9 93.79" class="st1"/>
				</g>
				<g id="shape368-33" v:mID="368" v:groupContext="shape" transform="translate(31.2426,1.42109E-14)">
					<title>Sheet.368</title>
					<path d="M0 93.79 L2.77 93.79" class="st1"/>
				</g>
			</g>
			<g id="group369-36" transform="translate(91.0369,2.5997) rotate(45)" v:mID="369" v:groupContext="group">
				<title>Sheet.369</title>
				<g id="group370-37" transform="translate(2.89613,-0.141732)" v:mID="370" v:groupContext="group" v:layerMember="0">
					<v:custProps>
						<v:cp v:nameU="Core" v:lbl="Core" v:type="1" v:format="Air;Magnetic;Magnetic with Gap" v:langID="1033"
								v:val="VT4(Air)"/>
						<v:cp v:nameU="Adjustability" v:lbl="Adjustability" v:type="1"
								v:format="Fixed;Adjustable;Continuously Adjustable" v:langID="1033" v:val="VT4(Fixed)"/>
						<v:cp v:nameU="Taps" v:lbl="Taps" v:type="1" v:format="0;1;2;3" v:langID="1033" v:val="VT4(0)"/>
						<v:cp v:nameU="Label" v:lbl="Label" v:type="0" v:format="" v:sortKey="" v:invis="false" v:ask="false"
								v:langID="1033" v:val="VT0(0):26"/>
						<v:cp v:nameU="Value" v:lbl="Value" v:type="0" v:format="@" v:sortKey="" v:invis="false" v:ask="false"
								v:langID="1033" v:val="VT4()"/>
					</v:custProps>
					<v:userDefs>
						<v:ud v:nameU="Core" v:val="VT0(0):26"/>
						<v:ud v:nameU="Adjustability" v:val="VT0(0):26"/>
						<v:ud v:nameU="CH"/>
						<v:ud v:nameU="visVersion" v:val="VT0(15):26"/>
						<v:ud v:nameU="visDescription" v:val="VT4(Inductor. Right-click to set inductor properties.)"/>
					</v:userDefs>
					<title>Inductor.18</title>
					<g id="shape371-38" v:mID="371" v:groupContext="shape" v:layerMember="0">
						<title>Sheet.371</title>
						<path d="M0 93.79 A3.54614 4.08856 0 1 1 7.09 93.79 A3.54614 4.08856 0 1 1 14.17 93.79 A3.54614 4.08856 0
									 1 1 21.26 93.79 A3.54614 4.08856 0 1 1 28.35 93.79" class="st1"/>
						<path d="M0 93.79 L0 93.94" class="st1"/>
						<path d="M28.35 93.79 L28.35 93.94" class="st1"/>
					</g>
					<g id="shape372-43" v:mID="372" v:groupContext="shape" v:layerMember="0" transform="translate(13.6639,4.78346)">
						<title>Sheet.372</title>
					</g>
					<g id="shape373-45" v:mID="373" v:groupContext="shape" v:layerMember="0"
							transform="translate(-61.5756,35.9094) rotate(-45)">
						<title>Sheet.373</title>
					</g>
				</g>
				<g id="shape374-47" v:mID="374" v:groupContext="shape" transform="translate(2.89613,187.587) rotate(180)">
					<title>Sheet.374</title>
					<path d="M0 93.79 L2.9 93.79" class="st1"/>
				</g>
				<g id="shape375-50" v:mID="375" v:groupContext="shape" transform="translate(31.2426,0)">
					<title>Sheet.375</title>
					<path d="M0 93.79 L2.77 93.79" class="st1"/>
				</g>
			</g>
			<g id="shape376-53" v:mID="376" v:groupContext="shape" transform="translate(23.9245,-23.6693)">
				<title>Sheet.376</title>
				<ellipse cx="0.680315" cy="93.0846" rx="0.680315" ry="0.708661" class="st2"/>
			</g>
			<g id="shape377-55" v:mID="377" v:groupContext="shape" transform="translate(23.9245,-58.3938)">
				<title>Sheet.377</title>
				<ellipse cx="0.680315" cy="93.0846" rx="0.680315" ry="0.708661" class="st2"/>
			</g>
			<g id="shape378-57" v:mID="378" v:groupContext="shape" transform="translate(0,-0.356603)">
				<title>Sheet.378</title>
				<ellipse cx="0.680315" cy="93.0846" rx="0.680315" ry="0.708661" class="st2"/>
			</g>
			<g id="shape379-59" v:mID="379" v:groupContext="shape" transform="translate(48.189,0)">
				<title>Sheet.379</title>
				<ellipse cx="0.680315" cy="93.0846" rx="0.680315" ry="0.708661" class="st2"/>
			</g>
		</g>
		<g id="shape380-61" v:mID="380" v:groupContext="shape" transform="translate(27.1596,-87.999)">
			<title>Sheet.380</title>
			<path d="M0 93.79 L56.69 93.79" class="st1"/>
		</g>
		<g id="shape381-64" v:mID="381" v:groupContext="shape" transform="translate(51.3226,-29.7156)">
			<title>Sheet.381</title>
			<path d="M0 93.79 L32.53 93.79" class="st1"/>
		</g>
		<g id="shape382-67" v:mID="382" v:groupContext="shape" transform="translate(27.2698,-17.1329)">
			<title>Sheet.382</title>
			<path d="M0 57.16 L0 93.79 L56.58 93.79" class="st1"/>
		</g>
		<g id="shape383-70" v:mID="383" v:groupContext="shape" transform="translate(3.10682,-5.79429)">
			<title>Sheet.383</title>
			<path d="M0 69.87 L0 93.79 L80.75 93.79" class="st1"/>
		</g>
		<g id="shape384-73" v:mID="384" v:groupContext="shape" transform="translate(83.8524,-82.3297)">
			<title>Sheet.384</title>
			<desc>Phase A</desc>
			<v:textBlock v:margins="rect(4,4,4,4)" v:tabSpace="42.5197"/>
			<v:textRect cx="20.1969" cy="88.124" width="40.4" height="11.3386"/>
			<rect x="0" y="82.4547" width="40.3937" height="11.3386" class="st3"/>
			<text x="4" y="89.92" class="st4" v:langID="1033"><v:paragraph/><v:tabList/>Phase A</text>		</g>
		<g id="shape385-76" v:mID="385" v:groupContext="shape" transform="translate(83.8524,-23.936)">
			<title>Sheet.385</title>
			<desc>Phase B</desc>
			<v:textBlock v:margins="rect(4,4,4,4)" v:tabSpace="42.5197"/>
			<v:textRect cx="20.1969" cy="88.124" width="40.4" height="11.3386"/>
			<rect x="0" y="82.4547" width="40.3937" height="11.3386" class="st3"/>
			<text x="4" y="89.92" class="st4" v:langID="1033"><v:paragraph/><v:tabList/>Phase B</text>		</g>
		<g id="shape386-79" v:mID="386" v:groupContext="shape" transform="translate(83.8524,-11.4636)">
			<title>Sheet.386</title>
			<desc>Neutral (N)</desc>
			<v:textBlock v:margins="rect(4,4,4,4)" v:tabSpace="42.5197"/>
			<v:textRect cx="20.1969" cy="88.124" width="40.4" height="11.3386"/>
			<rect x="0" y="82.4547" width="40.3937" height="11.3386" class="st3"/>
			<text x="4" y="89.92" class="st4" v:langID="1033"><v:paragraph/><v:tabList/>Neutral (N)</text>		</g>
		<g id="shape387-82" v:mID="387" v:groupContext="shape" transform="translate(83.8524,-0.125)">
			<title>Sheet.387</title>
			<desc>Phase C</desc>
			<v:textBlock v:margins="rect(4,4,4,4)" v:tabSpace="42.5197"/>
			<v:textRect cx="20.1969" cy="88.124" width="40.4" height="11.3386"/>
			<rect x="0" y="82.4547" width="40.3937" height="11.3386" class="st3"/>
			<text x="4" y="89.92" class="st4" v:langID="1033"><v:paragraph/><v:tabList/>Phase C</text>		</g>
		<g id="shape388-85" v:mID="388" v:groupContext="shape" transform="translate(66.8445,-51.1486)">
			<title>Sheet.388</title>
			<desc>208V</desc>
			<v:textBlock v:margins="rect(4,4,4,4)" v:tabSpace="42.5197"/>
			<v:textRect cx="14.1732" cy="86.7067" width="28.35" height="14.1732"/>
			<rect x="0" y="79.6201" width="28.3465" height="14.1732" class="st3"/>
			<text x="7.91" y="88.51" class="st4" v:langID="1033"><v:paragraph v:horizAlign="1"/><v:tabList/>208V</text>		</g>
		<g id="shape389-88" v:mID="389" v:groupContext="shape" transform="translate(175.095,39.81) rotate(90)">
			<title>Sheet.389</title>
			<path d="M0 93.79 L48.19 93.79" class="st1"/>
		</g>
		<g id="shape390-91" v:mID="390" v:groupContext="shape" transform="translate(174.811,5.79429) rotate(90)">
			<title>Sheet.390</title>
			<path d="M0 93.79 L25.51 93.79" class="st1"/>
		</g>
		<g id="shape391-94" v:mID="391" v:groupContext="shape" transform="translate(49.8367,-62.4872)">
			<title>Sheet.391</title>
			<desc>120V</desc>
			<v:textBlock v:margins="rect(4,4,4,4)" v:tabSpace="42.5197"/>
			<v:textRect cx="14.1732" cy="86.7067" width="28.35" height="14.1732"/>
			<rect x="0" y="79.6201" width="28.3465" height="14.1732" class="st3"/>
			<text x="7.91" y="88.51" class="st4" v:langID="1033"><v:paragraph v:horizAlign="1"/><v:tabList/>120V</text>		</g>
		<g id="shape392-97" v:mID="392" v:groupContext="shape" transform="translate(157.803,5.79429) rotate(90)">
			<title>Sheet.392</title>
			<path d="M0 93.79 L14.17 93.79" class="st1"/>
		</g>
		<g id="shape393-100" v:mID="393" v:groupContext="shape" transform="translate(157.803,28.4715) rotate(90)">
			<title>Sheet.393</title>
			<path d="M0 93.79 L48.19 93.79" class="st1"/>
		</g>
		<g id="shape394-103" v:mID="394" v:groupContext="shape" transform="translate(41.3879,-51.7156)">
			<title>Sheet.394</title>
			<desc>208V</desc>
			<v:textBlock v:margins="rect(4,4,4,4)" v:tabSpace="42.5197"/>
			<v:textRect cx="14.1732" cy="86.7067" width="28.35" height="14.1732"/>
			<rect x="0" y="79.6201" width="28.3465" height="14.1732" class="st3"/>
			<text x="7.91" y="88.51" class="st4" v:langID="1033"><v:paragraph v:horizAlign="1"/><v:tabList/>208V</text>		</g>
		<g id="shape395-106" v:mID="395" v:groupContext="shape" transform="translate(149.299,39.81) rotate(90)">
			<title>Sheet.395</title>
			<path d="M0 93.79 L24.27 93.79" class="st1"/>
		</g>
		<g id="shape396-109" v:mID="396" v:groupContext="shape" transform="translate(149.299,5.79429) rotate(90)">
			<title>Sheet.396</title>
			<path d="M0 93.79 L25.51 93.79" class="st1"/>
		</g>
		<g id="shape397-112" v:mID="397" v:groupContext="shape" transform="translate(41.3879,-14.2982)">
			<title>Sheet.397</title>
			<desc>208V</desc>
			<v:textBlock v:margins="rect(4,4,4,4)" v:tabSpace="42.5197"/>
			<v:textRect cx="14.1732" cy="86.7067" width="28.35" height="14.1732"/>
			<rect x="0" y="79.6201" width="28.3465" height="14.1732" class="st3"/>
			<text x="7.91" y="88.51" class="st4" v:langID="1033"><v:paragraph v:horizAlign="1"/><v:tabList/>208V</text>		</g>
		<g id="shape398-115" v:mID="398" v:groupContext="shape" transform="translate(149.299,64.0777) rotate(90)">
			<title>Sheet.398</title>
			<path d="M0 93.79 L4.08 93.79" class="st1"/>
		</g>
		<g id="shape399-118" v:mID="399" v:groupContext="shape" transform="translate(149.299,75.4163) rotate(90)">
			<title>Sheet.399</title>
			<path d="M0 93.79 L12.58 93.79" class="st1"/>
		</g>
		<g id="shape400-121" v:mID="400" v:groupContext="shape" transform="translate(58.3406,-17.1329)">
			<title>Sheet.400</title>
			<desc>120V</desc>
			<v:textBlock v:margins="rect(4,4,4,4)" v:tabSpace="42.5197"/>
			<v:textRect cx="14.1732" cy="88.124" width="28.35" height="11.3386"/>
			<rect x="0" y="82.4547" width="28.3465" height="11.3386" class="st3"/>
			<text x="7.91" y="89.92" class="st4" v:langID="1033"><v:paragraph v:horizAlign="1"/><v:tabList/>120V</text>		</g>
		<g id="shape401-124" v:mID="401" v:groupContext="shape" transform="translate(58.3406,-5.79429)">
			<title>Sheet.401</title>
			<desc>120V</desc>
			<v:textBlock v:margins="rect(4,4,4,4)" v:tabSpace="42.5197"/>
			<v:textRect cx="14.1732" cy="88.124" width="28.35" height="11.3386"/>
			<rect x="0" y="82.4547" width="28.3465" height="11.3386" class="st3"/>
			<text x="7.91" y="89.92" class="st4" v:langID="1033"><v:paragraph v:horizAlign="1"/><v:tabList/>120V</text>		</g>
		<g id="shape402-127" v:mID="402" v:groupContext="shape" transform="translate(166.307,64.0777) rotate(90)">
			<title>Sheet.402</title>
			<path d="M0 93.79 L4.08 93.79" class="st1"/>
		</g>
		<g id="shape403-130" v:mID="403" v:groupContext="shape" transform="translate(166.307,73.8258) rotate(90)">
			<title>Sheet.403</title>
			<path d="M0 93.79 L2.83 93.79" class="st1"/>
		</g>
		<g id="shape404-133" v:mID="404" v:groupContext="shape" transform="translate(166.307,85.1644) rotate(90)">
			<title>Sheet.404</title>
			<path d="M0 93.79 L2.83 93.79" class="st1"/>
		</g>
		<g id="shape405-136" v:mID="405" v:groupContext="shape" transform="translate(166.307,76.6604) rotate(90)">
			<title>Sheet.405</title>
			<path d="M0 93.79 L2.83 93.79" class="st1"/>
		</g>
		<g id="group406-139" transform="translate(-37.7205,87.999) rotate(-90)" v:mID="406" v:groupContext="group">
			<title>Sheet.406</title>
			<g id="shape407-140" v:mID="407" v:groupContext="shape">
				<title>Sheet.407</title>
				<path d="M0 93.23 L1.42 92.66 L1.42 93.79 L0 93.23 Z" class="st2"/>
			</g>
		</g>
		<g id="group408-142" transform="translate(-20.7127,87.999) rotate(-90)" v:mID="408" v:groupContext="group">
			<title>Sheet.408</title>
			<g id="shape409-143" v:mID="409" v:groupContext="shape">
				<title>Sheet.409</title>
				<path d="M0 93.23 L1.42 92.66 L1.42 93.79 L0 93.23 Z" class="st2"/>
			</g>
		</g>
		<g id="group410-145" transform="translate(-37.6653,63.9045) rotate(-90)" v:mID="410" v:groupContext="group">
			<title>Sheet.410</title>
			<g id="shape411-146" v:mID="411" v:groupContext="shape">
				<title>Sheet.411</title>
				<path d="M0 93.23 L1.42 92.66 L1.42 93.79 L0 93.23 Z" class="st2"/>
			</g>
		</g>
		<g id="group412-148" transform="translate(-29.2166,76.6605) rotate(-90)" v:mID="412" v:groupContext="group">
			<title>Sheet.412</title>
			<g id="shape413-149" v:mID="413" v:groupContext="shape">
				<title>Sheet.413</title>
				<path d="M0 93.23 L1.42 92.66 L1.42 93.79 L0 93.23 Z" class="st2"/>
			</g>
		</g>
		<g id="group414-151" transform="translate(-20.7127,76.6605) rotate(-90)" v:mID="414" v:groupContext="group">
			<title>Sheet.414</title>
			<g id="shape415-152" v:mID="415" v:groupContext="shape">
				<title>Sheet.415</title>
				<path d="M0 93.23 L1.42 92.66 L1.42 93.79 L0 93.23 Z" class="st2"/>
			</g>
		</g>
		<g id="group416-154" transform="translate(165.74,64.1881) rotate(90)" v:mID="416" v:groupContext="group">
			<title>Sheet.416</title>
			<g id="shape417-155" v:mID="417" v:groupContext="shape">
				<title>Sheet.417</title>
				<path d="M0 93.23 L1.42 92.66 L1.42 93.79 L0 93.23 Z" class="st2"/>
			</g>
		</g>
		<g id="group418-157" transform="translate(148.787,64.1881) rotate(90)" v:mID="418" v:groupContext="group">
			<title>Sheet.418</title>
			<g id="shape419-158" v:mID="419" v:groupContext="shape">
				<title>Sheet.419</title>
				<path d="M0 93.23 L1.42 92.66 L1.42 93.79 L0 93.23 Z" class="st2"/>
			</g>
		</g>
		<g id="group420-160" transform="translate(174.244,5.79445) rotate(90)" v:mID="420" v:groupContext="group">
			<title>Sheet.420</title>
			<g id="shape421-161" v:mID="421" v:groupContext="shape">
				<title>Sheet.421</title>
				<path d="M0 93.23 L1.42 92.66 L1.42 93.79 L0 93.23 Z" class="st2"/>
			</g>
		</g>
		<g id="group422-163" transform="translate(-11.9252,87.999) rotate(-90)" v:mID="422" v:groupContext="group">
			<title>Sheet.422</title>
			<g id="shape423-164" v:mID="423" v:groupContext="shape">
				<title>Sheet.423</title>
				<path d="M0 93.23 L1.42 92.66 L1.42 93.79 L0 93.23 Z" class="st2"/>
			</g>
		</g>
		<g id="group424-166" transform="translate(157.236,5.79445) rotate(90)" v:mID="424" v:groupContext="group">
			<title>Sheet.424</title>
			<g id="shape425-167" v:mID="425" v:groupContext="shape">
				<title>Sheet.425</title>
				<path d="M0 93.23 L1.42 92.66 L1.42 93.79 L0 93.23 Z" class="st2"/>
			</g>
		</g>
		<g id="group426-169" transform="translate(148.732,5.79445) rotate(90)" v:mID="426" v:groupContext="group">
			<title>Sheet.426</title>
			<g id="shape427-170" v:mID="427" v:groupContext="shape">
				<title>Sheet.427</title>
				<path d="M0 93.23 L1.42 92.66 L1.42 93.79 L0 93.23 Z" class="st2"/>
			</g>
		</g>
		<g id="group428-172" transform="translate(165.74,76.6605) rotate(90)" v:mID="428" v:groupContext="group">
			<title>Sheet.428</title>
			<g id="shape429-173" v:mID="429" v:groupContext="shape">
				<title>Sheet.429</title>
				<path d="M0 93.23 L1.42 92.66 L1.42 93.79 L0 93.23 Z" class="st2"/>
			</g>
		</g>
	</g>
</svg>
