<?xml version="1.0" encoding="UTF-8" standalone="no"?>
<!DOCTYPE svg PUBLIC "-//W3C//DTD SVG 1.1//EN" "http://www.w3.org/Graphics/SVG/1.1/DTD/svg11.dtd">
<!-- Generated by Microsoft Visio, SVG Export Figure_10_6.svg Page-1 -->
<svg xmlns="http://www.w3.org/2000/svg" xmlns:xlink="http://www.w3.org/1999/xlink" xmlns:ev="http://www.w3.org/2001/xml-events"
		xmlns:v="http://schemas.microsoft.com/visio/2003/SVGExtensions/" width="3.45476in" height="2.60536in"
		viewBox="0 0 124.371 93.7933" xml:space="preserve" color-interpolation-filters="sRGB" class="st5">
	<v:documentProperties v:langID="4105" v:metric="true" v:viewMarkup="false"/>

	<style type="text/css">
	<![CDATA[
		.st1 {stroke:#000000;stroke-linecap:round;stroke-linejoin:round;stroke-width:0.25}
		.st2 {fill:#000000;stroke:#000000;stroke-linecap:round;stroke-linejoin:round;stroke-width:0.25}
		.st3 {fill:none;stroke:none;stroke-linecap:round;stroke-linejoin:round;stroke-width:0.25}
		.st4 {fill:#000000;font-family:Calibri;font-size:0.499992em}
		.st5 {fill:none;fill-rule:evenodd;font-size:12px;overflow:visible;stroke-linecap:square;stroke-miterlimit:3}
	]]>
	</style>

	<g v:mID="0" v:index="1" v:groupContext="foregroundPage">
		<title>Page-1</title>
		<v:pageProperties v:drawingScale="0.0393701" v:pageScale="0.0393701" v:drawingUnits="24" v:shadowOffsetX="8.50394"
				v:shadowOffsetY="-8.50394"/>
		<v:layer v:name="Electrical" v:index="0"/>
		<g id="group517-1" transform="translate(2.55478,-28.8967)" v:mID="517" v:groupContext="group">
			<title>Sheet.517</title>
			<g id="group518-2" transform="translate(-69.1885,68.7067) rotate(-90)" v:mID="518" v:groupContext="group">
				<title>Sheet.518</title>
				<g id="group519-3" transform="translate(2.89613,-0.141732)" v:mID="519" v:groupContext="group" v:layerMember="0">
					<v:custProps>
						<v:cp v:nameU="Core" v:lbl="Core" v:type="1" v:format="Air;Magnetic;Magnetic with Gap" v:langID="1033"
								v:val="VT4(Air)"/>
						<v:cp v:nameU="Adjustability" v:lbl="Adjustability" v:type="1"
								v:format="Fixed;Adjustable;Continuously Adjustable" v:langID="1033" v:val="VT4(Fixed)"/>
						<v:cp v:nameU="Taps" v:lbl="Taps" v:type="1" v:format="0;1;2;3" v:langID="1033" v:val="VT4(0)"/>
						<v:cp v:nameU="Label" v:lbl="Label" v:type="0" v:format="" v:sortKey="" v:invis="false" v:ask="false"
								v:langID="1033" v:val="VT0(0):26"/>
						<v:cp v:nameU="Value" v:lbl="Value" v:type="0" v:format="@" v:sortKey="" v:invis="false" v:ask="false"
								v:langID="1033" v:val="VT4()"/>
					</v:custProps>
					<v:userDefs>
						<v:ud v:nameU="Core" v:val="VT0(0):26"/>
						<v:ud v:nameU="Adjustability" v:val="VT0(0):26"/>
						<v:ud v:nameU="CH"/>
						<v:ud v:nameU="visVersion" v:val="VT0(15):26"/>
						<v:ud v:nameU="visDescription" v:val="VT4(Inductor. Right-click to set inductor properties.)"/>
					</v:userDefs>
					<title>Inductor.18</title>
					<g id="shape520-4" v:mID="520" v:groupContext="shape" v:layerMember="0">
						<title>Sheet.520</title>
						<path d="M0 93.79 A3.54614 4.08856 0 1 1 7.09 93.79 A3.54614 4.08856 0 1 1 14.17 93.79 A3.54614 4.08856 0
									 1 1 21.26 93.79 A3.54614 4.08856 0 1 1 28.35 93.79" class="st1"/>
						<path d="M0 93.79 L0 93.94" class="st1"/>
						<path d="M28.35 93.79 L28.35 93.94" class="st1"/>
					</g>
					<g id="shape521-9" v:mID="521" v:groupContext="shape" v:layerMember="0" transform="translate(13.6639,4.78346)">
						<title>Sheet.521</title>
					</g>
					<g id="shape522-11" v:mID="522" v:groupContext="shape" v:layerMember="0"
							transform="translate(-61.5756,35.9094) rotate(-45)">
						<title>Sheet.522</title>
					</g>
				</g>
				<g id="shape523-13" v:mID="523" v:groupContext="shape" transform="translate(2.89613,187.587) rotate(180)">
					<title>Sheet.523</title>
					<path d="M0 93.79 L2.9 93.79" class="st1"/>
				</g>
				<g id="shape524-16" v:mID="524" v:groupContext="shape" transform="translate(31.2426,0)">
					<title>Sheet.524</title>
					<path d="M0 93.79 L2.77 93.79" class="st1"/>
				</g>
			</g>
			<g id="group525-19" transform="translate(-65.7699,26.6525) rotate(-45)" v:mID="525" v:groupContext="group">
				<title>Sheet.525</title>
				<g id="group526-20" transform="translate(2.89613,-0.141732)" v:mID="526" v:groupContext="group" v:layerMember="0">
					<v:custProps>
						<v:cp v:nameU="Core" v:lbl="Core" v:type="1" v:format="Air;Magnetic;Magnetic with Gap" v:langID="1033"
								v:val="VT4(Air)"/>
						<v:cp v:nameU="Adjustability" v:lbl="Adjustability" v:type="1"
								v:format="Fixed;Adjustable;Continuously Adjustable" v:langID="1033" v:val="VT4(Fixed)"/>
						<v:cp v:nameU="Taps" v:lbl="Taps" v:type="1" v:format="0;1;2;3" v:langID="1033" v:val="VT4(0)"/>
						<v:cp v:nameU="Label" v:lbl="Label" v:type="0" v:format="" v:sortKey="" v:invis="false" v:ask="false"
								v:langID="1033" v:val="VT0(0):26"/>
						<v:cp v:nameU="Value" v:lbl="Value" v:type="0" v:format="@" v:sortKey="" v:invis="false" v:ask="false"
								v:langID="1033" v:val="VT4()"/>
					</v:custProps>
					<v:userDefs>
						<v:ud v:nameU="Core" v:val="VT0(0):26"/>
						<v:ud v:nameU="Adjustability" v:val="VT0(0):26"/>
						<v:ud v:nameU="CH"/>
						<v:ud v:nameU="visVersion" v:val="VT0(15):26"/>
						<v:ud v:nameU="visDescription" v:val="VT4(Inductor. Right-click to set inductor properties.)"/>
					</v:userDefs>
					<title>Inductor.18</title>
					<g id="shape527-21" v:mID="527" v:groupContext="shape" v:layerMember="0">
						<title>Sheet.527</title>
						<path d="M0 93.79 A3.54614 4.08856 0 1 1 7.09 93.79 A3.54614 4.08856 0 1 1 14.17 93.79 A3.54614 4.08856 0
									 1 1 21.26 93.79 A3.54614 4.08856 0 1 1 28.35 93.79" class="st1"/>
						<path d="M0 93.79 L0 93.94" class="st1"/>
						<path d="M28.35 93.79 L28.35 93.94" class="st1"/>
					</g>
					<g id="shape528-26" v:mID="528" v:groupContext="shape" v:layerMember="0" transform="translate(13.6639,4.78346)">
						<title>Sheet.528</title>
					</g>
					<g id="shape529-28" v:mID="529" v:groupContext="shape" v:layerMember="0"
							transform="translate(-61.5756,35.9094) rotate(-45)">
						<title>Sheet.529</title>
					</g>
				</g>
				<g id="shape530-30" v:mID="530" v:groupContext="shape" transform="translate(2.89613,187.587) rotate(180)">
					<title>Sheet.530</title>
					<path d="M0 93.79 L2.9 93.79" class="st1"/>
				</g>
				<g id="shape531-33" v:mID="531" v:groupContext="shape" transform="translate(31.2426,1.42109E-14)">
					<title>Sheet.531</title>
					<path d="M0 93.79 L2.77 93.79" class="st1"/>
				</g>
			</g>
			<g id="group532-36" transform="translate(91.0369,2.5997) rotate(45)" v:mID="532" v:groupContext="group">
				<title>Sheet.532</title>
				<g id="group533-37" transform="translate(2.89613,-0.141732)" v:mID="533" v:groupContext="group" v:layerMember="0">
					<v:custProps>
						<v:cp v:nameU="Core" v:lbl="Core" v:type="1" v:format="Air;Magnetic;Magnetic with Gap" v:langID="1033"
								v:val="VT4(Air)"/>
						<v:cp v:nameU="Adjustability" v:lbl="Adjustability" v:type="1"
								v:format="Fixed;Adjustable;Continuously Adjustable" v:langID="1033" v:val="VT4(Fixed)"/>
						<v:cp v:nameU="Taps" v:lbl="Taps" v:type="1" v:format="0;1;2;3" v:langID="1033" v:val="VT4(0)"/>
						<v:cp v:nameU="Label" v:lbl="Label" v:type="0" v:format="" v:sortKey="" v:invis="false" v:ask="false"
								v:langID="1033" v:val="VT0(0):26"/>
						<v:cp v:nameU="Value" v:lbl="Value" v:type="0" v:format="@" v:sortKey="" v:invis="false" v:ask="false"
								v:langID="1033" v:val="VT4()"/>
					</v:custProps>
					<v:userDefs>
						<v:ud v:nameU="Core" v:val="VT0(0):26"/>
						<v:ud v:nameU="Adjustability" v:val="VT0(0):26"/>
						<v:ud v:nameU="CH"/>
						<v:ud v:nameU="visVersion" v:val="VT0(15):26"/>
						<v:ud v:nameU="visDescription" v:val="VT4(Inductor. Right-click to set inductor properties.)"/>
					</v:userDefs>
					<title>Inductor.18</title>
					<g id="shape534-38" v:mID="534" v:groupContext="shape" v:layerMember="0">
						<title>Sheet.534</title>
						<path d="M0 93.79 A3.54614 4.08856 0 1 1 7.09 93.79 A3.54614 4.08856 0 1 1 14.17 93.79 A3.54614 4.08856 0
									 1 1 21.26 93.79 A3.54614 4.08856 0 1 1 28.35 93.79" class="st1"/>
						<path d="M0 93.79 L0 93.94" class="st1"/>
						<path d="M28.35 93.79 L28.35 93.94" class="st1"/>
					</g>
					<g id="shape535-43" v:mID="535" v:groupContext="shape" v:layerMember="0" transform="translate(13.6639,4.78346)">
						<title>Sheet.535</title>
					</g>
					<g id="shape536-45" v:mID="536" v:groupContext="shape" v:layerMember="0"
							transform="translate(-61.5756,35.9094) rotate(-45)">
						<title>Sheet.536</title>
					</g>
				</g>
				<g id="shape537-47" v:mID="537" v:groupContext="shape" transform="translate(2.89613,187.587) rotate(180)">
					<title>Sheet.537</title>
					<path d="M0 93.79 L2.9 93.79" class="st1"/>
				</g>
				<g id="shape538-50" v:mID="538" v:groupContext="shape" transform="translate(31.2426,0)">
					<title>Sheet.538</title>
					<path d="M0 93.79 L2.77 93.79" class="st1"/>
				</g>
			</g>
			<g id="shape539-53" v:mID="539" v:groupContext="shape" transform="translate(23.9245,-23.6693)">
				<title>Sheet.539</title>
				<ellipse cx="0.680315" cy="93.0846" rx="0.680315" ry="0.708661" class="st2"/>
			</g>
			<g id="shape540-55" v:mID="540" v:groupContext="shape" transform="translate(23.9245,-58.3938)">
				<title>Sheet.540</title>
				<ellipse cx="0.680315" cy="93.0846" rx="0.680315" ry="0.708661" class="st2"/>
			</g>
			<g id="shape541-57" v:mID="541" v:groupContext="shape" transform="translate(0,-0.356603)">
				<title>Sheet.541</title>
				<ellipse cx="0.680315" cy="93.0846" rx="0.680315" ry="0.708661" class="st2"/>
			</g>
			<g id="shape542-59" v:mID="542" v:groupContext="shape" transform="translate(48.189,0)">
				<title>Sheet.542</title>
				<ellipse cx="0.680315" cy="93.0846" rx="0.680315" ry="0.708661" class="st2"/>
			</g>
		</g>
		<g id="shape543-61" v:mID="543" v:groupContext="shape" transform="translate(27.1596,-87.999)">
			<title>Sheet.543</title>
			<path d="M0 93.79 L56.69 93.79" class="st1"/>
		</g>
		<g id="shape544-64" v:mID="544" v:groupContext="shape" transform="translate(51.3226,-29.7156)">
			<title>Sheet.544</title>
			<path d="M0 93.79 L32.53 93.79" class="st1"/>
		</g>
		<g id="shape545-67" v:mID="545" v:groupContext="shape" transform="translate(27.2698,-17.1329)">
			<title>Sheet.545</title>
			<path d="M0 57.16 L0 93.79 L56.58 93.79" class="st1"/>
		</g>
		<g id="shape546-70" v:mID="546" v:groupContext="shape" transform="translate(3.10682,-5.79429)">
			<title>Sheet.546</title>
			<path d="M0 69.87 L0 93.79 L80.75 93.79" class="st1"/>
		</g>
		<g id="shape547-73" v:mID="547" v:groupContext="shape" transform="translate(83.8524,-82.3297)">
			<title>Sheet.547</title>
			<desc>Phase A</desc>
			<v:textBlock v:margins="rect(4,4,4,4)" v:tabSpace="42.5197"/>
			<v:textRect cx="20.1969" cy="88.124" width="40.4" height="11.3386"/>
			<rect x="0" y="82.4547" width="40.3937" height="11.3386" class="st3"/>
			<text x="4" y="89.92" class="st4" v:langID="1033"><v:paragraph/><v:tabList/>Phase A</text>		</g>
		<g id="shape548-76" v:mID="548" v:groupContext="shape" transform="translate(83.8524,-23.936)">
			<title>Sheet.548</title>
			<desc>Phase B</desc>
			<v:textBlock v:margins="rect(4,4,4,4)" v:tabSpace="42.5197"/>
			<v:textRect cx="20.1969" cy="88.124" width="40.4" height="11.3386"/>
			<rect x="0" y="82.4547" width="40.3937" height="11.3386" class="st3"/>
			<text x="4" y="89.92" class="st4" v:langID="1033"><v:paragraph/><v:tabList/>Phase B</text>		</g>
		<g id="shape549-79" v:mID="549" v:groupContext="shape" transform="translate(83.8524,-11.4636)">
			<title>Sheet.549</title>
			<desc>Neutral (N)</desc>
			<v:textBlock v:margins="rect(4,4,4,4)" v:tabSpace="42.5197"/>
			<v:textRect cx="20.1969" cy="88.124" width="40.4" height="11.3386"/>
			<rect x="0" y="82.4547" width="40.3937" height="11.3386" class="st3"/>
			<text x="4" y="89.92" class="st4" v:langID="1033"><v:paragraph/><v:tabList/>Neutral (N)</text>		</g>
		<g id="shape550-82" v:mID="550" v:groupContext="shape" transform="translate(83.8524,-0.125)">
			<title>Sheet.550</title>
			<desc>Phase C</desc>
			<v:textBlock v:margins="rect(4,4,4,4)" v:tabSpace="42.5197"/>
			<v:textRect cx="20.1969" cy="88.124" width="40.4" height="11.3386"/>
			<rect x="0" y="82.4547" width="40.3937" height="11.3386" class="st3"/>
			<text x="4" y="89.92" class="st4" v:langID="1033"><v:paragraph/><v:tabList/>Phase C</text>		</g>
		<g id="shape551-85" v:mID="551" v:groupContext="shape" transform="translate(66.8445,-51.1486)">
			<title>Sheet.551</title>
			<desc>400V</desc>
			<v:textBlock v:margins="rect(4,4,4,4)" v:tabSpace="42.5197"/>
			<v:textRect cx="14.1732" cy="86.7067" width="28.35" height="14.1732"/>
			<rect x="0" y="79.6201" width="28.3465" height="14.1732" class="st3"/>
			<text x="7.91" y="88.51" class="st4" v:langID="1033"><v:paragraph v:horizAlign="1"/><v:tabList/>400V</text>		</g>
		<g id="shape552-88" v:mID="552" v:groupContext="shape" transform="translate(175.095,39.81) rotate(90)">
			<title>Sheet.552</title>
			<path d="M0 93.79 L48.19 93.79" class="st1"/>
		</g>
		<g id="shape553-91" v:mID="553" v:groupContext="shape" transform="translate(174.811,5.79429) rotate(90)">
			<title>Sheet.553</title>
			<path d="M0 93.79 L25.51 93.79" class="st1"/>
		</g>
		<g id="shape554-94" v:mID="554" v:groupContext="shape" transform="translate(49.8367,-62.4872)">
			<title>Sheet.554</title>
			<desc>230V</desc>
			<v:textBlock v:margins="rect(4,4,4,4)" v:tabSpace="42.5197"/>
			<v:textRect cx="14.1732" cy="86.7067" width="28.35" height="14.1732"/>
			<rect x="0" y="79.6201" width="28.3465" height="14.1732" class="st3"/>
			<text x="7.91" y="88.51" class="st4" v:langID="1033"><v:paragraph v:horizAlign="1"/><v:tabList/>230V</text>		</g>
		<g id="shape555-97" v:mID="555" v:groupContext="shape" transform="translate(157.803,5.79429) rotate(90)">
			<title>Sheet.555</title>
			<path d="M0 93.79 L14.17 93.79" class="st1"/>
		</g>
		<g id="shape556-100" v:mID="556" v:groupContext="shape" transform="translate(157.803,28.4715) rotate(90)">
			<title>Sheet.556</title>
			<path d="M0 93.79 L48.19 93.79" class="st1"/>
		</g>
		<g id="shape557-103" v:mID="557" v:groupContext="shape" transform="translate(41.3879,-51.7156)">
			<title>Sheet.557</title>
			<desc>400V</desc>
			<v:textBlock v:margins="rect(4,4,4,4)" v:tabSpace="42.5197"/>
			<v:textRect cx="14.1732" cy="86.7067" width="28.35" height="14.1732"/>
			<rect x="0" y="79.6201" width="28.3465" height="14.1732" class="st3"/>
			<text x="7.91" y="88.51" class="st4" v:langID="1033"><v:paragraph v:horizAlign="1"/><v:tabList/>400V</text>		</g>
		<g id="shape558-106" v:mID="558" v:groupContext="shape" transform="translate(149.299,39.81) rotate(90)">
			<title>Sheet.558</title>
			<path d="M0 93.79 L24.27 93.79" class="st1"/>
		</g>
		<g id="shape559-109" v:mID="559" v:groupContext="shape" transform="translate(149.299,5.79429) rotate(90)">
			<title>Sheet.559</title>
			<path d="M0 93.79 L25.51 93.79" class="st1"/>
		</g>
		<g id="shape560-112" v:mID="560" v:groupContext="shape" transform="translate(41.3879,-14.2982)">
			<title>Sheet.560</title>
			<desc>400V</desc>
			<v:textBlock v:margins="rect(4,4,4,4)" v:tabSpace="42.5197"/>
			<v:textRect cx="14.1732" cy="86.7067" width="28.35" height="14.1732"/>
			<rect x="0" y="79.6201" width="28.3465" height="14.1732" class="st3"/>
			<text x="7.91" y="88.51" class="st4" v:langID="1033"><v:paragraph v:horizAlign="1"/><v:tabList/>400V</text>		</g>
		<g id="shape561-115" v:mID="561" v:groupContext="shape" transform="translate(149.299,64.0777) rotate(90)">
			<title>Sheet.561</title>
			<path d="M0 93.79 L4.08 93.79" class="st1"/>
		</g>
		<g id="shape562-118" v:mID="562" v:groupContext="shape" transform="translate(149.299,75.4163) rotate(90)">
			<title>Sheet.562</title>
			<path d="M0 93.79 L12.58 93.79" class="st1"/>
		</g>
		<g id="shape563-121" v:mID="563" v:groupContext="shape" transform="translate(58.3406,-17.1329)">
			<title>Sheet.563</title>
			<desc>231V</desc>
			<v:textBlock v:margins="rect(4,4,4,4)" v:tabSpace="42.5197"/>
			<v:textRect cx="14.1732" cy="88.124" width="28.35" height="11.3386"/>
			<rect x="0" y="82.4547" width="28.3465" height="11.3386" class="st3"/>
			<text x="7.91" y="89.92" class="st4" v:langID="1033"><v:paragraph v:horizAlign="1"/><v:tabList/>231V</text>		</g>
		<g id="shape564-124" v:mID="564" v:groupContext="shape" transform="translate(58.3406,-5.79429)">
			<title>Sheet.564</title>
			<desc>231V</desc>
			<v:textBlock v:margins="rect(4,4,4,4)" v:tabSpace="42.5197"/>
			<v:textRect cx="14.1732" cy="88.124" width="28.35" height="11.3386"/>
			<rect x="0" y="82.4547" width="28.3465" height="11.3386" class="st3"/>
			<text x="7.91" y="89.92" class="st4" v:langID="1033"><v:paragraph v:horizAlign="1"/><v:tabList/>231V</text>		</g>
		<g id="shape565-127" v:mID="565" v:groupContext="shape" transform="translate(166.307,64.0777) rotate(90)">
			<title>Sheet.565</title>
			<path d="M0 93.79 L4.08 93.79" class="st1"/>
		</g>
		<g id="shape566-130" v:mID="566" v:groupContext="shape" transform="translate(166.307,73.8258) rotate(90)">
			<title>Sheet.566</title>
			<path d="M0 93.79 L2.83 93.79" class="st1"/>
		</g>
		<g id="shape567-133" v:mID="567" v:groupContext="shape" transform="translate(166.307,85.1644) rotate(90)">
			<title>Sheet.567</title>
			<path d="M0 93.79 L2.83 93.79" class="st1"/>
		</g>
		<g id="shape568-136" v:mID="568" v:groupContext="shape" transform="translate(166.307,76.6604) rotate(90)">
			<title>Sheet.568</title>
			<path d="M0 93.79 L2.83 93.79" class="st1"/>
		</g>
		<g id="group569-139" transform="translate(-37.7205,87.999) rotate(-90)" v:mID="569" v:groupContext="group">
			<title>Sheet.569</title>
			<g id="shape570-140" v:mID="570" v:groupContext="shape">
				<title>Sheet.570</title>
				<path d="M0 93.23 L1.42 92.66 L1.42 93.79 L0 93.23 Z" class="st2"/>
			</g>
		</g>
		<g id="group571-142" transform="translate(-20.7127,87.999) rotate(-90)" v:mID="571" v:groupContext="group">
			<title>Sheet.571</title>
			<g id="shape572-143" v:mID="572" v:groupContext="shape">
				<title>Sheet.572</title>
				<path d="M0 93.23 L1.42 92.66 L1.42 93.79 L0 93.23 Z" class="st2"/>
			</g>
		</g>
		<g id="group573-145" transform="translate(-37.6653,63.9045) rotate(-90)" v:mID="573" v:groupContext="group">
			<title>Sheet.573</title>
			<g id="shape574-146" v:mID="574" v:groupContext="shape">
				<title>Sheet.574</title>
				<path d="M0 93.23 L1.42 92.66 L1.42 93.79 L0 93.23 Z" class="st2"/>
			</g>
		</g>
		<g id="group575-148" transform="translate(-29.2166,76.6605) rotate(-90)" v:mID="575" v:groupContext="group">
			<title>Sheet.575</title>
			<g id="shape576-149" v:mID="576" v:groupContext="shape">
				<title>Sheet.576</title>
				<path d="M0 93.23 L1.42 92.66 L1.42 93.79 L0 93.23 Z" class="st2"/>
			</g>
		</g>
		<g id="group577-151" transform="translate(-20.7127,76.6605) rotate(-90)" v:mID="577" v:groupContext="group">
			<title>Sheet.577</title>
			<g id="shape578-152" v:mID="578" v:groupContext="shape">
				<title>Sheet.578</title>
				<path d="M0 93.23 L1.42 92.66 L1.42 93.79 L0 93.23 Z" class="st2"/>
			</g>
		</g>
		<g id="group579-154" transform="translate(165.74,64.1881) rotate(90)" v:mID="579" v:groupContext="group">
			<title>Sheet.579</title>
			<g id="shape580-155" v:mID="580" v:groupContext="shape">
				<title>Sheet.580</title>
				<path d="M0 93.23 L1.42 92.66 L1.42 93.79 L0 93.23 Z" class="st2"/>
			</g>
		</g>
		<g id="group581-157" transform="translate(148.787,64.1881) rotate(90)" v:mID="581" v:groupContext="group">
			<title>Sheet.581</title>
			<g id="shape582-158" v:mID="582" v:groupContext="shape">
				<title>Sheet.582</title>
				<path d="M0 93.23 L1.42 92.66 L1.42 93.79 L0 93.23 Z" class="st2"/>
			</g>
		</g>
		<g id="group583-160" transform="translate(174.244,5.79445) rotate(90)" v:mID="583" v:groupContext="group">
			<title>Sheet.583</title>
			<g id="shape584-161" v:mID="584" v:groupContext="shape">
				<title>Sheet.584</title>
				<path d="M0 93.23 L1.42 92.66 L1.42 93.79 L0 93.23 Z" class="st2"/>
			</g>
		</g>
		<g id="group585-163" transform="translate(-11.9252,87.999) rotate(-90)" v:mID="585" v:groupContext="group">
			<title>Sheet.585</title>
			<g id="shape586-164" v:mID="586" v:groupContext="shape">
				<title>Sheet.586</title>
				<path d="M0 93.23 L1.42 92.66 L1.42 93.79 L0 93.23 Z" class="st2"/>
			</g>
		</g>
		<g id="group587-166" transform="translate(157.236,5.79445) rotate(90)" v:mID="587" v:groupContext="group">
			<title>Sheet.587</title>
			<g id="shape588-167" v:mID="588" v:groupContext="shape">
				<title>Sheet.588</title>
				<path d="M0 93.23 L1.42 92.66 L1.42 93.79 L0 93.23 Z" class="st2"/>
			</g>
		</g>
		<g id="group589-169" transform="translate(148.732,5.79445) rotate(90)" v:mID="589" v:groupContext="group">
			<title>Sheet.589</title>
			<g id="shape590-170" v:mID="590" v:groupContext="shape">
				<title>Sheet.590</title>
				<path d="M0 93.23 L1.42 92.66 L1.42 93.79 L0 93.23 Z" class="st2"/>
			</g>
		</g>
		<g id="group591-172" transform="translate(165.74,76.6605) rotate(90)" v:mID="591" v:groupContext="group">
			<title>Sheet.591</title>
			<g id="shape592-173" v:mID="592" v:groupContext="shape">
				<title>Sheet.592</title>
				<path d="M0 93.23 L1.42 92.66 L1.42 93.79 L0 93.23 Z" class="st2"/>
			</g>
		</g>
	</g>
</svg>
