<?xml version="1.0" encoding="UTF-8" standalone="no"?>
<!DOCTYPE svg PUBLIC "-//W3C//DTD SVG 1.1//EN" "http://www.w3.org/Graphics/SVG/1.1/DTD/svg11.dtd">
<!-- Generated by Microsoft Visio, SVG Export Figure_10_4.svg Page-1 -->
<svg xmlns="http://www.w3.org/2000/svg" xmlns:xlink="http://www.w3.org/1999/xlink" xmlns:ev="http://www.w3.org/2001/xml-events"
		xmlns:v="http://schemas.microsoft.com/visio/2003/SVGExtensions/" width="3.57536in" height="2.57262in"
		viewBox="0 0 128.713 92.6141" xml:space="preserve" color-interpolation-filters="sRGB" class="st7">
	<v:documentProperties v:langID="4105" v:metric="true" v:viewMarkup="false"/>

	<style type="text/css">
	<![CDATA[
		.st1 {stroke:#000000;stroke-linecap:round;stroke-linejoin:round;stroke-width:0.25}
		.st2 {fill:none;stroke:none;stroke-linecap:round;stroke-linejoin:round;stroke-width:0.25}
		.st3 {fill:#000000;font-family:Calibri;font-size:0.499992em}
		.st4 {font-size:1em}
		.st5 {fill:none;stroke:none;stroke-linecap:round;stroke-linejoin:round;stroke-width:0.75}
		.st6 {fill:#000000;stroke:#000000;stroke-linecap:round;stroke-linejoin:round;stroke-width:0.25}
		.st7 {fill:none;fill-rule:evenodd;font-size:12px;overflow:visible;stroke-linecap:square;stroke-miterlimit:3}
	]]>
	</style>

	<g v:mID="0" v:index="1" v:groupContext="foregroundPage">
		<title>Page-1</title>
		<v:pageProperties v:drawingScale="0.0393701" v:pageScale="0.0393701" v:drawingUnits="24" v:shadowOffsetX="8.50394"
				v:shadowOffsetY="-8.50394"/>
		<v:layer v:name="Electrical" v:index="0"/>
		<g id="group258-1" transform="translate(2.80059,-56.5118)" v:mID="258" v:groupContext="group">
			<title>Sheet.258</title>
			<g id="group259-2" transform="translate(1.00447,0)" v:mID="259" v:groupContext="group">
				<title>Sheet.259</title>
				<g id="group260-3" transform="translate(2.89613,-0.141732)" v:mID="260" v:groupContext="group" v:layerMember="0">
					<v:custProps>
						<v:cp v:nameU="Core" v:lbl="Core" v:type="1" v:format="Air;Magnetic;Magnetic with Gap" v:langID="1033"
								v:val="VT4(Air)"/>
						<v:cp v:nameU="Adjustability" v:lbl="Adjustability" v:type="1"
								v:format="Fixed;Adjustable;Continuously Adjustable" v:langID="1033" v:val="VT4(Fixed)"/>
						<v:cp v:nameU="Taps" v:lbl="Taps" v:type="1" v:format="0;1;2;3" v:langID="1033" v:val="VT4(0)"/>
						<v:cp v:nameU="Label" v:lbl="Label" v:type="0" v:format="" v:sortKey="" v:invis="false" v:ask="false"
								v:langID="1033" v:val="VT0(0):26"/>
						<v:cp v:nameU="Value" v:lbl="Value" v:type="0" v:format="@" v:sortKey="" v:invis="false" v:ask="false"
								v:langID="1033" v:val="VT4()"/>
					</v:custProps>
					<v:userDefs>
						<v:ud v:nameU="Core" v:val="VT0(0):26"/>
						<v:ud v:nameU="Adjustability" v:val="VT0(0):26"/>
						<v:ud v:nameU="CH"/>
						<v:ud v:nameU="visVersion" v:val="VT0(15):26"/>
						<v:ud v:nameU="visDescription" v:val="VT4(Inductor. Right-click to set inductor properties.)"/>
					</v:userDefs>
					<title>Inductor.18</title>
					<g id="shape261-4" v:mID="261" v:groupContext="shape" v:layerMember="0">
						<title>Sheet.261</title>
						<path d="M0 92.61 A3.54614 4.08856 0 1 1 7.09 92.61 A3.54614 4.08856 0 1 1 14.17 92.61 A3.54614 4.08856 0
									 1 1 21.26 92.61 A3.54614 4.08856 0 1 1 28.35 92.61" class="st1"/>
						<path d="M0 92.61 L0 92.76" class="st1"/>
						<path d="M28.35 92.61 L28.35 92.76" class="st1"/>
					</g>
					<g id="shape262-9" v:mID="262" v:groupContext="shape" v:layerMember="0" transform="translate(13.6639,4.78346)">
						<title>Sheet.262</title>
					</g>
					<g id="shape263-11" v:mID="263" v:groupContext="shape" v:layerMember="0"
							transform="translate(-60.7418,35.564) rotate(-45)">
						<title>Sheet.263</title>
					</g>
				</g>
				<g id="shape264-13" v:mID="264" v:groupContext="shape" transform="translate(2.89613,185.228) rotate(180)">
					<title>Sheet.264</title>
					<path d="M0 92.61 L2.9 92.61" class="st1"/>
				</g>
				<g id="shape265-16" v:mID="265" v:groupContext="shape" transform="translate(31.2426,-3.2685E-13)">
					<title>Sheet.265</title>
					<path d="M0 92.61 L2.77 92.61" class="st1"/>
				</g>
			</g>
			<g id="group266-19" transform="translate(-79.2017,46.307) rotate(-60)" v:mID="266" v:groupContext="group">
				<title>Sheet.266</title>
				<g id="group267-20" transform="translate(2.89613,-0.141732)" v:mID="267" v:groupContext="group" v:layerMember="0">
					<v:custProps>
						<v:cp v:nameU="Core" v:lbl="Core" v:type="1" v:format="Air;Magnetic;Magnetic with Gap" v:langID="1033"
								v:val="VT4(Air)"/>
						<v:cp v:nameU="Adjustability" v:lbl="Adjustability" v:type="1"
								v:format="Fixed;Adjustable;Continuously Adjustable" v:langID="1033" v:val="VT4(Fixed)"/>
						<v:cp v:nameU="Taps" v:lbl="Taps" v:type="1" v:format="0;1;2;3" v:langID="1033" v:val="VT4(0)"/>
						<v:cp v:nameU="Label" v:lbl="Label" v:type="0" v:format="" v:sortKey="" v:invis="false" v:ask="false"
								v:langID="1033" v:val="VT0(0):26"/>
						<v:cp v:nameU="Value" v:lbl="Value" v:type="0" v:format="@" v:sortKey="" v:invis="false" v:ask="false"
								v:langID="1033" v:val="VT4()"/>
					</v:custProps>
					<v:userDefs>
						<v:ud v:nameU="Core" v:val="VT0(0):26"/>
						<v:ud v:nameU="Adjustability" v:val="VT0(0):26"/>
						<v:ud v:nameU="CH"/>
						<v:ud v:nameU="visVersion" v:val="VT0(15):26"/>
						<v:ud v:nameU="visDescription" v:val="VT4(Inductor. Right-click to set inductor properties.)"/>
					</v:userDefs>
					<title>Inductor.18</title>
					<g id="shape268-21" v:mID="268" v:groupContext="shape" v:layerMember="0">
						<title>Sheet.268</title>
						<path d="M0 92.61 A3.54614 4.08856 0 1 1 7.09 92.61 A3.54614 4.08856 0 1 1 14.17 92.61 A3.54614 4.08856 0
									 1 1 21.26 92.61 A3.54614 4.08856 0 1 1 28.35 92.61" class="st1"/>
						<path d="M0 92.61 L0 92.76" class="st1"/>
						<path d="M28.35 92.61 L28.35 92.76" class="st1"/>
					</g>
					<g id="shape269-26" v:mID="269" v:groupContext="shape" v:layerMember="0" transform="translate(13.6639,4.78346)">
						<title>Sheet.269</title>
					</g>
					<g id="shape270-28" v:mID="270" v:groupContext="shape" v:layerMember="0"
							transform="translate(-60.7418,35.564) rotate(-45)">
						<title>Sheet.270</title>
					</g>
				</g>
				<g id="shape271-30" v:mID="271" v:groupContext="shape" transform="translate(2.89613,185.228) rotate(180)">
					<title>Sheet.271</title>
					<path d="M0 92.61 L2.9 92.61" class="st1"/>
				</g>
				<g id="shape272-33" v:mID="272" v:groupContext="shape" transform="translate(31.2426,0)">
					<title>Sheet.272</title>
					<path d="M0 92.61 L2.77 92.61" class="st1"/>
				</g>
			</g>
			<g id="group273-36" transform="translate(98.2333,16.8485) rotate(60)" v:mID="273" v:groupContext="group">
				<title>Sheet.273</title>
				<g id="group274-37" transform="translate(2.89613,-0.141732)" v:mID="274" v:groupContext="group" v:layerMember="0">
					<v:custProps>
						<v:cp v:nameU="Core" v:lbl="Core" v:type="1" v:format="Air;Magnetic;Magnetic with Gap" v:langID="1033"
								v:val="VT4(Air)"/>
						<v:cp v:nameU="Adjustability" v:lbl="Adjustability" v:type="1"
								v:format="Fixed;Adjustable;Continuously Adjustable" v:langID="1033" v:val="VT4(Fixed)"/>
						<v:cp v:nameU="Taps" v:lbl="Taps" v:type="1" v:format="0;1;2;3" v:langID="1033" v:val="VT4(0)"/>
						<v:cp v:nameU="Label" v:lbl="Label" v:type="0" v:format="" v:sortKey="" v:invis="false" v:ask="false"
								v:langID="1033" v:val="VT0(0):26"/>
						<v:cp v:nameU="Value" v:lbl="Value" v:type="0" v:format="@" v:sortKey="" v:invis="false" v:ask="false"
								v:langID="1033" v:val="VT4()"/>
					</v:custProps>
					<v:userDefs>
						<v:ud v:nameU="Core" v:val="VT0(0):26"/>
						<v:ud v:nameU="Adjustability" v:val="VT0(0):26"/>
						<v:ud v:nameU="CH"/>
						<v:ud v:nameU="visVersion" v:val="VT0(15):26"/>
						<v:ud v:nameU="visDescription" v:val="VT4(Inductor. Right-click to set inductor properties.)"/>
					</v:userDefs>
					<title>Inductor.18</title>
					<g id="shape275-38" v:mID="275" v:groupContext="shape" v:layerMember="0">
						<title>Sheet.275</title>
						<path d="M0 92.61 A3.54614 4.08856 0 1 1 7.09 92.61 A3.54614 4.08856 0 1 1 14.17 92.61 A3.54614 4.08856 0
									 1 1 21.26 92.61 A3.54614 4.08856 0 1 1 28.35 92.61" class="st1"/>
						<path d="M0 92.61 L0 92.76" class="st1"/>
						<path d="M28.35 92.61 L28.35 92.76" class="st1"/>
					</g>
					<g id="shape276-43" v:mID="276" v:groupContext="shape" v:layerMember="0" transform="translate(13.6639,4.78346)">
						<title>Sheet.276</title>
					</g>
					<g id="shape277-45" v:mID="277" v:groupContext="shape" v:layerMember="0"
							transform="translate(-60.7418,35.564) rotate(-45)">
						<title>Sheet.277</title>
					</g>
				</g>
				<g id="shape278-47" v:mID="278" v:groupContext="shape" transform="translate(2.89613,185.228) rotate(180)">
					<title>Sheet.278</title>
					<path d="M0 92.61 L2.9 92.61" class="st1"/>
				</g>
				<g id="shape279-50" v:mID="279" v:groupContext="shape" transform="translate(31.2426,0)">
					<title>Sheet.279</title>
					<path d="M0 92.61 L2.77 92.61" class="st1"/>
				</g>
			</g>
		</g>
		<g id="shape280-53" v:mID="280" v:groupContext="shape" transform="translate(20.8278,-85.9703)">
			<title>Sheet.280</title>
			<path d="M0 92.61 L67.44 92.61" class="st1"/>
		</g>
		<g id="shape281-56" v:mID="281" v:groupContext="shape" transform="translate(37.8356,-56.5118)">
			<title>Sheet.281</title>
			<path d="M0 92.61 L50.18 92.61" class="st1"/>
		</g>
		<g id="shape282-59" v:mID="282" v:groupContext="shape" transform="translate(96.4191,36.1023) rotate(90)">
			<title>Sheet.282</title>
			<path d="M0 92.61 L50.47 92.61" class="st1"/>
		</g>
		<g id="shape283-62" v:mID="283" v:groupContext="shape" transform="translate(3.80506,-6.04429)">
			<title>Sheet.283</title>
			<path d="M0 92.61 L83.7 92.61" class="st1"/>
		</g>
		<g id="shape287-65" v:mID="287" v:groupContext="shape" transform="translate(88.1943,-79.7451)">
			<title>Sheet.287</title>
			<desc>Phase C (High Leg)</desc>
			<v:textBlock v:margins="rect(4,4,4,4)" v:tabSpace="42.5197"/>
			<v:textRect cx="20.1969" cy="86.9448" width="40.4" height="11.3386"/>
			<rect x="0" y="81.2755" width="40.3937" height="11.3386" class="st2"/>
			<text x="4" y="85.15" class="st3" v:langID="1033"><v:paragraph/><v:tabList/>Phase C<v:newlineChar/><tspan x="4"
						dy="1.2em" class="st4">(High Leg)</tspan></text>		</g>
		<g id="shape288-69" v:mID="288" v:groupContext="shape" transform="translate(87.84,-51.3986)">
			<title>Sheet.288</title>
			<desc>Phase B</desc>
			<v:textBlock v:margins="rect(4,4,4,4)" v:tabSpace="42.5197"/>
			<v:textRect cx="20.1969" cy="86.9448" width="40.4" height="11.3386"/>
			<rect x="0" y="81.2755" width="40.3937" height="11.3386" class="st2"/>
			<text x="4" y="88.75" class="st3" v:langID="1033"><v:paragraph/><v:tabList/>Phase B</text>		</g>
		<g id="shape289-72" v:mID="289" v:groupContext="shape" transform="translate(87.84,-0.375)">
			<title>Sheet.289</title>
			<desc>Phase A</desc>
			<v:textBlock v:margins="rect(4,4,4,4)" v:tabSpace="42.5197"/>
			<v:textRect cx="20.1969" cy="86.9448" width="40.4" height="11.3386"/>
			<rect x="0" y="81.2755" width="40.3937" height="11.3386" class="st5"/>
			<text x="4" y="88.75" class="st3" v:langID="1033"><v:paragraph/><v:tabList/>Phase A</text>		</g>
		<g id="shape290-75" v:mID="290" v:groupContext="shape" transform="translate(32.1896,-65.5717)">
			<title>Sheet.290</title>
			<desc>240V</desc>
			<v:textBlock v:margins="rect(4,4,4,4)" v:tabSpace="42.5197"/>
			<v:textRect cx="14.1732" cy="86.9448" width="28.35" height="11.3386"/>
			<rect x="0" y="81.2755" width="28.3465" height="11.3386" class="st2"/>
			<text x="7.91" y="88.75" class="st3" v:langID="1033"><v:paragraph v:horizAlign="1"/><v:tabList/>240V</text>		</g>
		<g id="shape291-78" v:mID="291" v:groupContext="shape" transform="translate(155.985,24.2076) rotate(90)">
			<title>Sheet.291</title>
			<path d="M0 92.61 L62.07 92.61" class="st1"/>
		</g>
		<g id="group292-81" transform="translate(62.8038,-80.301)" v:mID="292" v:groupContext="group">
			<title>Sheet.292</title>
			<g id="shape293-82" v:mID="293" v:groupContext="shape" transform="translate(-92.0469,96.0047) rotate(-90)">
				<title>Sheet.293</title>
				<path d="M0 92.61 L9.06 92.61" class="st1"/>
			</g>
			<g id="group294-85" transform="translate(92.6141,86.9448) rotate(90)" v:mID="294" v:groupContext="group">
				<title>Sheet.294</title>
				<g id="shape295-86" v:mID="295" v:groupContext="shape">
					<title>Sheet.295</title>
					<path d="M0 92.05 L1.42 91.48 L1.42 92.61 L0 92.05 Z" class="st6"/>
				</g>
			</g>
		</g>
		<g id="group296-88" transform="translate(45.7959,-80.301)" v:mID="296" v:groupContext="group">
			<title>Sheet.296</title>
			<g id="shape297-89" v:mID="297" v:groupContext="shape" transform="translate(-92.0469,96.0047) rotate(-90)">
				<title>Sheet.297</title>
				<path d="M0 92.61 L9.06 92.61" class="st1"/>
			</g>
			<g id="group298-92" transform="translate(92.6141,86.9448) rotate(90)" v:mID="298" v:groupContext="group">
				<title>Sheet.298</title>
				<g id="shape299-93" v:mID="299" v:groupContext="shape">
					<title>Sheet.299</title>
					<path d="M0 92.05 L1.42 91.48 L1.42 92.61 L0 92.05 Z" class="st6"/>
				</g>
			</g>
		</g>
		<g id="group300-95" transform="translate(46.9298,122.491) rotate(180)" v:mID="300" v:groupContext="group">
			<title>Sheet.300</title>
			<g id="shape301-96" v:mID="301" v:groupContext="shape" transform="translate(-92.0469,98.2834) rotate(-90)">
				<title>Sheet.301</title>
				<path d="M0 92.61 L11.34 92.61" class="st1"/>
			</g>
			<g id="group302-99" transform="translate(92.6141,86.9448) rotate(90)" v:mID="302" v:groupContext="group">
				<title>Sheet.302</title>
				<g id="shape303-100" v:mID="303" v:groupContext="shape">
					<title>Sheet.303</title>
					<path d="M0 92.05 L1.42 91.48 L1.42 92.61 L0 92.05 Z" class="st6"/>
				</g>
			</g>
		</g>
		<g id="shape304-102" v:mID="304" v:groupContext="shape" transform="translate(49.1975,-65.5718)">
			<title>Sheet.304</title>
			<desc>240V</desc>
			<v:textBlock v:margins="rect(4,4,4,4)" v:tabSpace="42.5197"/>
			<v:textRect cx="14.1732" cy="86.9448" width="28.35" height="11.3386"/>
			<rect x="0" y="81.2755" width="28.3465" height="11.3386" class="st2"/>
			<text x="7.91" y="88.75" class="st3" v:langID="1033"><v:paragraph v:horizAlign="1"/><v:tabList/>240V</text>		</g>
		<g id="group305-105" transform="translate(-28.6764,86.5697) rotate(-90)" v:mID="305" v:groupContext="group">
			<title>Sheet.305</title>
			<g id="shape306-106" v:mID="306" v:groupContext="shape">
				<title>Sheet.306</title>
				<path d="M0 92.05 L1.42 91.48 L1.42 92.61 L0 92.05 Z" class="st6"/>
			</g>
		</g>
		<g id="group307-108" transform="translate(46.9298,173.515) rotate(180)" v:mID="307" v:groupContext="group">
			<title>Sheet.307</title>
			<g id="shape308-109" v:mID="308" v:groupContext="shape" transform="translate(-92.0469,120.961) rotate(-90)">
				<title>Sheet.308</title>
				<path d="M0 92.61 L34.02 92.61" class="st1"/>
			</g>
			<g id="group309-112" transform="translate(92.6141,86.9448) rotate(90)" v:mID="309" v:groupContext="group">
				<title>Sheet.309</title>
				<g id="shape310-113" v:mID="310" v:groupContext="shape">
					<title>Sheet.310</title>
					<path d="M0 92.05 L1.42 91.48 L1.42 92.61 L0 92.05 Z" class="st6"/>
				</g>
			</g>
		</g>
		<g id="group311-115" transform="translate(45.7959,-50.8425)" v:mID="311" v:groupContext="group">
			<title>Sheet.311</title>
			<g id="shape312-116" v:mID="312" v:groupContext="shape" transform="translate(-92.0469,96.0047) rotate(-90)">
				<title>Sheet.312</title>
				<path d="M0 92.61 L9.06 92.61" class="st1"/>
			</g>
			<g id="group313-119" transform="translate(92.6141,86.9448) rotate(90)" v:mID="313" v:groupContext="group">
				<title>Sheet.313</title>
				<g id="shape314-120" v:mID="314" v:groupContext="shape">
					<title>Sheet.314</title>
					<path d="M0 92.05 L1.42 91.48 L1.42 92.61 L0 92.05 Z" class="st6"/>
				</g>
			</g>
		</g>
		<g id="shape315-122" v:mID="315" v:groupContext="shape" transform="translate(32.1896,-37.2254)">
			<title>Sheet.315</title>
			<desc>240V</desc>
			<v:textBlock v:margins="rect(4,4,4,4)" v:tabSpace="42.5197"/>
			<v:textRect cx="14.1732" cy="86.9448" width="28.35" height="11.3386"/>
			<rect x="0" y="81.2755" width="28.3465" height="11.3386" class="st2"/>
			<text x="7.91" y="88.75" class="st3" v:langID="1033"><v:paragraph v:horizAlign="1"/><v:tabList/>240V</text>		</g>
		<g id="shape316-125" v:mID="316" v:groupContext="shape" transform="translate(20.1708,-85.4143)">
			<title>Sheet.316</title>
			<ellipse cx="0.680315" cy="91.9054" rx="0.680315" ry="0.708661" class="st6"/>
		</g>
		<g id="shape317-127" v:mID="317" v:groupContext="shape" transform="translate(3.16283,-55.6506)">
			<title>Sheet.317</title>
			<ellipse cx="0.680315" cy="91.9054" rx="0.680315" ry="0.708661" class="st6"/>
		</g>
		<g id="shape318-129" v:mID="318" v:groupContext="shape" transform="translate(37.0652,-55.6506)">
			<title>Sheet.318</title>
			<ellipse cx="0.680315" cy="91.9054" rx="0.680315" ry="0.708661" class="st6"/>
		</g>
		<g id="shape319-131" v:mID="319" v:groupContext="shape" transform="translate(87.2527,156.507) rotate(180)">
			<title>Sheet.319</title>
			<path d="M0 92.61 L66.03 92.61" class="st1"/>
		</g>
		<g id="shape320-134" v:mID="320" v:groupContext="shape" transform="translate(113.551,35.0586) rotate(89.4177)">
			<title>Sheet.320</title>
			<path d="M0 92.61 L27.89 92.61" class="st1"/>
		</g>
		<g id="shape321-137" v:mID="321" v:groupContext="shape" transform="translate(87.84,-23.0522)">
			<title>Sheet.321</title>
			<desc>Neutral (N)</desc>
			<v:textBlock v:margins="rect(4,4,4,4)" v:tabSpace="42.5197"/>
			<v:textRect cx="20.1969" cy="86.9448" width="40.4" height="11.3386"/>
			<rect x="0" y="81.2755" width="40.3937" height="11.3386" class="st2"/>
			<text x="4" y="88.75" class="st3" v:langID="1033"><v:paragraph/><v:tabList/>Neutral (N)</text>		</g>
		<g id="shape322-140" v:mID="322" v:groupContext="shape" transform="translate(59.4935,-36.6694)">
			<title>Sheet.322</title>
			<desc>120V</desc>
			<v:textBlock v:margins="rect(4,4,4,4)" v:tabSpace="42.5197"/>
			<v:textRect cx="14.1732" cy="86.9448" width="28.35" height="11.3386"/>
			<rect x="0" y="81.2755" width="28.3465" height="11.3386" class="st2"/>
			<text x="7.91" y="88.75" class="st3" v:langID="1033"><v:paragraph v:horizAlign="1"/><v:tabList/>120V</text>		</g>
		<g id="group323-143" transform="translate(73.0997,-50.8425)" v:mID="323" v:groupContext="group">
			<title>Sheet.323</title>
			<g id="shape324-144" v:mID="324" v:groupContext="shape" transform="translate(-92.0469,96.0047) rotate(-90)">
				<title>Sheet.324</title>
				<path d="M0 92.61 L9.06 92.61" class="st1"/>
			</g>
			<g id="group325-147" transform="translate(92.6141,86.9448) rotate(90)" v:mID="325" v:groupContext="group">
				<title>Sheet.325</title>
				<g id="shape326-148" v:mID="326" v:groupContext="shape">
					<title>Sheet.326</title>
					<path d="M0 92.05 L1.42 91.48 L1.42 92.61 L0 92.05 Z" class="st6"/>
				</g>
			</g>
		</g>
		<g id="group327-150" transform="translate(74.2337,151.393) rotate(180)" v:mID="327" v:groupContext="group">
			<title>Sheet.327</title>
			<g id="shape328-151" v:mID="328" v:groupContext="shape" transform="translate(-92.0469,96.0047) rotate(-90)">
				<title>Sheet.328</title>
				<path d="M0 92.61 L9.06 92.61" class="st1"/>
			</g>
			<g id="group329-154" transform="translate(92.6141,86.9448) rotate(90)" v:mID="329" v:groupContext="group">
				<title>Sheet.329</title>
				<g id="shape330-155" v:mID="330" v:groupContext="shape">
					<title>Sheet.330</title>
					<path d="M0 92.05 L1.42 91.48 L1.42 92.61 L0 92.05 Z" class="st6"/>
				</g>
			</g>
		</g>
		<g id="shape331-157" v:mID="331" v:groupContext="shape" transform="translate(59.4935,-11.7136)">
			<title>Sheet.331</title>
			<desc>120V</desc>
			<v:textBlock v:margins="rect(4,4,4,4)" v:tabSpace="42.5197"/>
			<v:textRect cx="14.1732" cy="86.9448" width="28.35" height="11.3386"/>
			<rect x="0" y="81.2755" width="28.3465" height="11.3386" class="st2"/>
			<text x="7.91" y="88.75" class="st3" v:langID="1033"><v:paragraph v:horizAlign="1"/><v:tabList/>120V</text>		</g>
		<g id="group332-160" transform="translate(73.0998,-23.0522)" v:mID="332" v:groupContext="group">
			<title>Sheet.332</title>
			<g id="shape333-161" v:mID="333" v:groupContext="shape" transform="translate(-92.0469,94.0315) rotate(-90)">
				<title>Sheet.333</title>
				<path d="M0 92.61 L7.09 92.61" class="st1"/>
			</g>
			<g id="group334-164" transform="translate(92.6141,86.9448) rotate(90)" v:mID="334" v:groupContext="group">
				<title>Sheet.334</title>
				<g id="shape335-165" v:mID="335" v:groupContext="shape">
					<title>Sheet.335</title>
					<path d="M0 92.05 L1.42 91.48 L1.42 92.61 L0 92.05 Z" class="st6"/>
				</g>
			</g>
		</g>
		<g id="group336-167" transform="translate(74.2336,173.515) rotate(180)" v:mID="336" v:groupContext="group">
			<title>Sheet.336</title>
			<g id="shape337-168" v:mID="337" v:groupContext="shape" transform="translate(-92.0469,94.0313) rotate(-90)">
				<title>Sheet.337</title>
				<path d="M0 92.61 L7.09 92.61" class="st1"/>
			</g>
			<g id="group338-171" transform="translate(92.6141,86.9448) rotate(90)" v:mID="338" v:groupContext="group">
				<title>Sheet.338</title>
				<g id="shape339-172" v:mID="339" v:groupContext="shape">
					<title>Sheet.339</title>
					<path d="M0 92.05 L1.42 91.48 L1.42 92.61 L0 92.05 Z" class="st6"/>
				</g>
			</g>
		</g>
		<g id="shape340-174" v:mID="340" v:groupContext="shape" transform="translate(67.9974,-65.5718)">
			<title>Sheet.340</title>
			<desc>208V</desc>
			<v:textBlock v:margins="rect(4,4,4,4)" v:tabSpace="42.5197"/>
			<v:textRect cx="14.1732" cy="86.9448" width="28.35" height="11.3386"/>
			<rect x="0" y="81.2755" width="28.3465" height="11.3386" class="st2"/>
			<text x="7.91" y="88.75" class="st3" v:langID="1033"><v:paragraph v:horizAlign="1"/><v:tabList/>208V</text>		</g>
		<g id="group341-177" transform="translate(81.6037,-80.3011)" v:mID="341" v:groupContext="group">
			<title>Sheet.341</title>
			<g id="shape342-178" v:mID="342" v:groupContext="shape" transform="translate(-92.0469,96.0047) rotate(-90)">
				<title>Sheet.342</title>
				<path d="M0 92.61 L9.06 92.61" class="st1"/>
			</g>
			<g id="group343-181" transform="translate(92.6141,86.9448) rotate(90)" v:mID="343" v:groupContext="group">
				<title>Sheet.343</title>
				<g id="shape344-182" v:mID="344" v:groupContext="shape">
					<title>Sheet.344</title>
					<path d="M0 92.05 L1.42 91.48 L1.42 92.61 L0 92.05 Z" class="st6"/>
				</g>
			</g>
		</g>
		<g id="group345-184" transform="translate(82.7376,150.837) rotate(180)" v:mID="345" v:groupContext="group">
			<title>Sheet.345</title>
			<g id="shape346-185" v:mID="346" v:groupContext="shape" transform="translate(-92.0469,126.63) rotate(-90)">
				<title>Sheet.346</title>
				<path d="M0 92.61 L39.69 92.61" class="st1"/>
			</g>
			<g id="group347-188" transform="translate(92.6141,86.9448) rotate(90)" v:mID="347" v:groupContext="group">
				<title>Sheet.347</title>
				<g id="shape348-189" v:mID="348" v:groupContext="shape">
					<title>Sheet.348</title>
					<path d="M0 92.05 L1.42 91.48 L1.42 92.61 L0 92.05 Z" class="st6"/>
				</g>
			</g>
		</g>
		<g id="group350-191" transform="translate(20.2842,-50.2866)" v:mID="350" v:groupContext="group">
			<title>Sheet.350</title>
			<g id="shape351-192" v:mID="351" v:groupContext="shape" transform="translate(-92.0469,96.0047) rotate(-90)">
				<title>Sheet.351</title>
				<path d="M0 92.61 L9.06 92.61" class="st1"/>
			</g>
			<g id="group352-195" transform="translate(92.6141,86.9448) rotate(90)" v:mID="352" v:groupContext="group">
				<title>Sheet.352</title>
				<g id="shape353-196" v:mID="353" v:groupContext="shape">
					<title>Sheet.353</title>
					<path d="M0 92.05 L1.42 91.48 L1.42 92.61 L0 92.05 Z" class="st6"/>
				</g>
			</g>
		</g>
	</g>
</svg>
