<?xml version="1.0" encoding="UTF-8" standalone="no"?>
<!DOCTYPE svg PUBLIC "-//W3C//DTD SVG 1.1//EN" "http://www.w3.org/Graphics/SVG/1.1/DTD/svg11.dtd">
<!-- Generated by Microsoft Visio, SVG Export Figure_10_3.svg Page-1 -->
<svg xmlns="http://www.w3.org/2000/svg" xmlns:xlink="http://www.w3.org/1999/xlink" xmlns:ev="http://www.w3.org/2001/xml-events"
		xmlns:v="http://schemas.microsoft.com/visio/2003/SVGExtensions/" width="3.45476in" height="2.60536in"
		viewBox="0 0 124.371 93.7933" xml:space="preserve" color-interpolation-filters="sRGB" class="st5">
	<v:documentProperties v:langID="4105" v:metric="true" v:viewMarkup="false"/>

	<style type="text/css">
	<![CDATA[
		.st1 {stroke:#000000;stroke-linecap:round;stroke-linejoin:round;stroke-width:0.25}
		.st2 {fill:#000000;stroke:#000000;stroke-linecap:round;stroke-linejoin:round;stroke-width:0.25}
		.st3 {fill:none;stroke:none;stroke-linecap:round;stroke-linejoin:round;stroke-width:0.25}
		.st4 {fill:#000000;font-family:Calibri;font-size:0.499992em}
		.st5 {fill:none;fill-rule:evenodd;font-size:12px;overflow:visible;stroke-linecap:square;stroke-miterlimit:3}
	]]>
	</style>

	<g v:mID="0" v:index="1" v:groupContext="foregroundPage">
		<title>Page-1</title>
		<v:pageProperties v:drawingScale="0.0393701" v:pageScale="0.0393701" v:drawingUnits="24" v:shadowOffsetX="8.50394"
				v:shadowOffsetY="-8.50394"/>
		<v:layer v:name="Electrical" v:index="0"/>
		<g id="group200-1" transform="translate(2.55478,-28.8967)" v:mID="200" v:groupContext="group">
			<title>Sheet.200</title>
			<g id="group174-2" transform="translate(-69.1885,68.7067) rotate(-90)" v:mID="174" v:groupContext="group">
				<title>Sheet.174</title>
				<g id="group175-3" transform="translate(2.89613,-0.141732)" v:mID="175" v:groupContext="group" v:layerMember="0">
					<v:custProps>
						<v:cp v:nameU="Core" v:lbl="Core" v:type="1" v:format="Air;Magnetic;Magnetic with Gap" v:langID="1033"
								v:val="VT4(Air)"/>
						<v:cp v:nameU="Adjustability" v:lbl="Adjustability" v:type="1"
								v:format="Fixed;Adjustable;Continuously Adjustable" v:langID="1033" v:val="VT4(Fixed)"/>
						<v:cp v:nameU="Taps" v:lbl="Taps" v:type="1" v:format="0;1;2;3" v:langID="1033" v:val="VT4(0)"/>
						<v:cp v:nameU="Label" v:lbl="Label" v:type="0" v:format="" v:sortKey="" v:invis="false" v:ask="false"
								v:langID="1033" v:val="VT0(0):26"/>
						<v:cp v:nameU="Value" v:lbl="Value" v:type="0" v:format="@" v:sortKey="" v:invis="false" v:ask="false"
								v:langID="1033" v:val="VT4()"/>
					</v:custProps>
					<v:userDefs>
						<v:ud v:nameU="Core" v:val="VT0(0):26"/>
						<v:ud v:nameU="Adjustability" v:val="VT0(0):26"/>
						<v:ud v:nameU="CH"/>
						<v:ud v:nameU="visVersion" v:val="VT0(15):26"/>
						<v:ud v:nameU="visDescription" v:val="VT4(Inductor. Right-click to set inductor properties.)"/>
					</v:userDefs>
					<title>Inductor.18</title>
					<g id="shape176-4" v:mID="176" v:groupContext="shape" v:layerMember="0">
						<title>Sheet.176</title>
						<path d="M0 93.79 A3.54614 4.08856 0 1 1 7.09 93.79 A3.54614 4.08856 0 1 1 14.17 93.79 A3.54614 4.08856 0
									 1 1 21.26 93.79 A3.54614 4.08856 0 1 1 28.35 93.79" class="st1"/>
						<path d="M0 93.79 L0 93.94" class="st1"/>
						<path d="M28.35 93.79 L28.35 93.94" class="st1"/>
					</g>
					<g id="shape177-9" v:mID="177" v:groupContext="shape" v:layerMember="0" transform="translate(13.6639,4.78346)">
						<title>Sheet.177</title>
					</g>
					<g id="shape178-11" v:mID="178" v:groupContext="shape" v:layerMember="0"
							transform="translate(-61.5756,35.9094) rotate(-45)">
						<title>Sheet.178</title>
					</g>
				</g>
				<g id="shape179-13" v:mID="179" v:groupContext="shape" transform="translate(2.89613,187.587) rotate(180)">
					<title>Sheet.179</title>
					<path d="M0 93.79 L2.9 93.79" class="st1"/>
				</g>
				<g id="shape180-16" v:mID="180" v:groupContext="shape" transform="translate(31.2426,0)">
					<title>Sheet.180</title>
					<path d="M0 93.79 L2.77 93.79" class="st1"/>
				</g>
			</g>
			<g id="group181-19" transform="translate(-65.7699,26.6525) rotate(-45)" v:mID="181" v:groupContext="group">
				<title>Sheet.181</title>
				<g id="group182-20" transform="translate(2.89613,-0.141732)" v:mID="182" v:groupContext="group" v:layerMember="0">
					<v:custProps>
						<v:cp v:nameU="Core" v:lbl="Core" v:type="1" v:format="Air;Magnetic;Magnetic with Gap" v:langID="1033"
								v:val="VT4(Air)"/>
						<v:cp v:nameU="Adjustability" v:lbl="Adjustability" v:type="1"
								v:format="Fixed;Adjustable;Continuously Adjustable" v:langID="1033" v:val="VT4(Fixed)"/>
						<v:cp v:nameU="Taps" v:lbl="Taps" v:type="1" v:format="0;1;2;3" v:langID="1033" v:val="VT4(0)"/>
						<v:cp v:nameU="Label" v:lbl="Label" v:type="0" v:format="" v:sortKey="" v:invis="false" v:ask="false"
								v:langID="1033" v:val="VT0(0):26"/>
						<v:cp v:nameU="Value" v:lbl="Value" v:type="0" v:format="@" v:sortKey="" v:invis="false" v:ask="false"
								v:langID="1033" v:val="VT4()"/>
					</v:custProps>
					<v:userDefs>
						<v:ud v:nameU="Core" v:val="VT0(0):26"/>
						<v:ud v:nameU="Adjustability" v:val="VT0(0):26"/>
						<v:ud v:nameU="CH"/>
						<v:ud v:nameU="visVersion" v:val="VT0(15):26"/>
						<v:ud v:nameU="visDescription" v:val="VT4(Inductor. Right-click to set inductor properties.)"/>
					</v:userDefs>
					<title>Inductor.18</title>
					<g id="shape183-21" v:mID="183" v:groupContext="shape" v:layerMember="0">
						<title>Sheet.183</title>
						<path d="M0 93.79 A3.54614 4.08856 0 1 1 7.09 93.79 A3.54614 4.08856 0 1 1 14.17 93.79 A3.54614 4.08856 0
									 1 1 21.26 93.79 A3.54614 4.08856 0 1 1 28.35 93.79" class="st1"/>
						<path d="M0 93.79 L0 93.94" class="st1"/>
						<path d="M28.35 93.79 L28.35 93.94" class="st1"/>
					</g>
					<g id="shape184-26" v:mID="184" v:groupContext="shape" v:layerMember="0" transform="translate(13.6639,4.78346)">
						<title>Sheet.184</title>
					</g>
					<g id="shape185-28" v:mID="185" v:groupContext="shape" v:layerMember="0"
							transform="translate(-61.5756,35.9094) rotate(-45)">
						<title>Sheet.185</title>
					</g>
				</g>
				<g id="shape186-30" v:mID="186" v:groupContext="shape" transform="translate(2.89613,187.587) rotate(180)">
					<title>Sheet.186</title>
					<path d="M0 93.79 L2.9 93.79" class="st1"/>
				</g>
				<g id="shape187-33" v:mID="187" v:groupContext="shape" transform="translate(31.2426,1.42109E-14)">
					<title>Sheet.187</title>
					<path d="M0 93.79 L2.77 93.79" class="st1"/>
				</g>
			</g>
			<g id="group188-36" transform="translate(91.0369,2.5997) rotate(45)" v:mID="188" v:groupContext="group">
				<title>Sheet.188</title>
				<g id="group189-37" transform="translate(2.89613,-0.141732)" v:mID="189" v:groupContext="group" v:layerMember="0">
					<v:custProps>
						<v:cp v:nameU="Core" v:lbl="Core" v:type="1" v:format="Air;Magnetic;Magnetic with Gap" v:langID="1033"
								v:val="VT4(Air)"/>
						<v:cp v:nameU="Adjustability" v:lbl="Adjustability" v:type="1"
								v:format="Fixed;Adjustable;Continuously Adjustable" v:langID="1033" v:val="VT4(Fixed)"/>
						<v:cp v:nameU="Taps" v:lbl="Taps" v:type="1" v:format="0;1;2;3" v:langID="1033" v:val="VT4(0)"/>
						<v:cp v:nameU="Label" v:lbl="Label" v:type="0" v:format="" v:sortKey="" v:invis="false" v:ask="false"
								v:langID="1033" v:val="VT0(0):26"/>
						<v:cp v:nameU="Value" v:lbl="Value" v:type="0" v:format="@" v:sortKey="" v:invis="false" v:ask="false"
								v:langID="1033" v:val="VT4()"/>
					</v:custProps>
					<v:userDefs>
						<v:ud v:nameU="Core" v:val="VT0(0):26"/>
						<v:ud v:nameU="Adjustability" v:val="VT0(0):26"/>
						<v:ud v:nameU="CH"/>
						<v:ud v:nameU="visVersion" v:val="VT0(15):26"/>
						<v:ud v:nameU="visDescription" v:val="VT4(Inductor. Right-click to set inductor properties.)"/>
					</v:userDefs>
					<title>Inductor.18</title>
					<g id="shape190-38" v:mID="190" v:groupContext="shape" v:layerMember="0">
						<title>Sheet.190</title>
						<path d="M0 93.79 A3.54614 4.08856 0 1 1 7.09 93.79 A3.54614 4.08856 0 1 1 14.17 93.79 A3.54614 4.08856 0
									 1 1 21.26 93.79 A3.54614 4.08856 0 1 1 28.35 93.79" class="st1"/>
						<path d="M0 93.79 L0 93.94" class="st1"/>
						<path d="M28.35 93.79 L28.35 93.94" class="st1"/>
					</g>
					<g id="shape191-43" v:mID="191" v:groupContext="shape" v:layerMember="0" transform="translate(13.6639,4.78346)">
						<title>Sheet.191</title>
					</g>
					<g id="shape192-45" v:mID="192" v:groupContext="shape" v:layerMember="0"
							transform="translate(-61.5756,35.9094) rotate(-45)">
						<title>Sheet.192</title>
					</g>
				</g>
				<g id="shape193-47" v:mID="193" v:groupContext="shape" transform="translate(2.89613,187.587) rotate(180)">
					<title>Sheet.193</title>
					<path d="M0 93.79 L2.9 93.79" class="st1"/>
				</g>
				<g id="shape194-50" v:mID="194" v:groupContext="shape" transform="translate(31.2426,0)">
					<title>Sheet.194</title>
					<path d="M0 93.79 L2.77 93.79" class="st1"/>
				</g>
			</g>
			<g id="shape196-53" v:mID="196" v:groupContext="shape" transform="translate(23.9245,-23.6693)">
				<title>Sheet.196</title>
				<ellipse cx="0.680315" cy="93.0846" rx="0.680315" ry="0.708661" class="st2"/>
			</g>
			<g id="shape197-55" v:mID="197" v:groupContext="shape" transform="translate(23.9245,-58.3938)">
				<title>Sheet.197</title>
				<ellipse cx="0.680315" cy="93.0846" rx="0.680315" ry="0.708661" class="st2"/>
			</g>
			<g id="shape198-57" v:mID="198" v:groupContext="shape" transform="translate(0,-0.356603)">
				<title>Sheet.198</title>
				<ellipse cx="0.680315" cy="93.0846" rx="0.680315" ry="0.708661" class="st2"/>
			</g>
			<g id="shape199-59" v:mID="199" v:groupContext="shape" transform="translate(48.189,0)">
				<title>Sheet.199</title>
				<ellipse cx="0.680315" cy="93.0846" rx="0.680315" ry="0.708661" class="st2"/>
			</g>
		</g>
		<g id="shape202-61" v:mID="202" v:groupContext="shape" transform="translate(27.1596,-87.999)">
			<title>Sheet.202</title>
			<path d="M0 93.79 L56.69 93.79" class="st1"/>
		</g>
		<g id="shape205-64" v:mID="205" v:groupContext="shape" transform="translate(51.3226,-29.7156)">
			<title>Sheet.205</title>
			<path d="M0 93.79 L32.53 93.79" class="st1"/>
		</g>
		<g id="shape206-67" v:mID="206" v:groupContext="shape" transform="translate(27.2698,-17.1329)">
			<title>Sheet.206</title>
			<path d="M0 57.16 L0 93.79 L56.58 93.79" class="st1"/>
		</g>
		<g id="shape207-70" v:mID="207" v:groupContext="shape" transform="translate(3.10682,-5.79429)">
			<title>Sheet.207</title>
			<path d="M0 69.87 L0 93.79 L80.75 93.79" class="st1"/>
		</g>
		<g id="shape208-73" v:mID="208" v:groupContext="shape" transform="translate(83.8524,-82.3297)">
			<title>Sheet.208</title>
			<desc>Line 1 (A)</desc>
			<v:textBlock v:margins="rect(4,4,4,4)" v:tabSpace="42.5197"/>
			<v:textRect cx="20.1969" cy="88.124" width="40.4" height="11.3386"/>
			<rect x="0" y="82.4547" width="40.3937" height="11.3386" class="st3"/>
			<text x="4" y="89.92" class="st4" v:langID="1033"><v:paragraph/><v:tabList/>Line 1 (A)</text>		</g>
		<g id="shape209-76" v:mID="209" v:groupContext="shape" transform="translate(83.8524,-23.936)">
			<title>Sheet.209</title>
			<desc>Line 2 (B)</desc>
			<v:textBlock v:margins="rect(4,4,4,4)" v:tabSpace="42.5197"/>
			<v:textRect cx="20.1969" cy="88.124" width="40.4" height="11.3386"/>
			<rect x="0" y="82.4547" width="40.3937" height="11.3386" class="st3"/>
			<text x="4" y="89.92" class="st4" v:langID="1033"><v:paragraph/><v:tabList/>Line 2 (B)</text>		</g>
		<g id="shape210-79" v:mID="210" v:groupContext="shape" transform="translate(83.8524,-11.4636)">
			<title>Sheet.210</title>
			<desc>Neutral (N)</desc>
			<v:textBlock v:margins="rect(4,4,4,4)" v:tabSpace="42.5197"/>
			<v:textRect cx="20.1969" cy="88.124" width="40.4" height="11.3386"/>
			<rect x="0" y="82.4547" width="40.3937" height="11.3386" class="st3"/>
			<text x="4" y="89.92" class="st4" v:langID="1033"><v:paragraph/><v:tabList/>Neutral (N)</text>		</g>
		<g id="shape211-82" v:mID="211" v:groupContext="shape" transform="translate(83.8524,-0.125)">
			<title>Sheet.211</title>
			<desc>Line 3 (C)</desc>
			<v:textBlock v:margins="rect(4,4,4,4)" v:tabSpace="42.5197"/>
			<v:textRect cx="20.1969" cy="88.124" width="40.4" height="11.3386"/>
			<rect x="0" y="82.4547" width="40.3937" height="11.3386" class="st3"/>
			<text x="4" y="89.92" class="st4" v:langID="1033"><v:paragraph/><v:tabList/>Line 3 (C)</text>		</g>
		<g id="shape212-85" v:mID="212" v:groupContext="shape" transform="translate(66.8445,-51.1486)">
			<title>Sheet.212</title>
			<desc>600V</desc>
			<v:textBlock v:margins="rect(4,4,4,4)" v:tabSpace="42.5197"/>
			<v:textRect cx="14.1732" cy="86.7067" width="28.35" height="14.1732"/>
			<rect x="0" y="79.6201" width="28.3465" height="14.1732" class="st3"/>
			<text x="7.91" y="88.51" class="st4" v:langID="1033"><v:paragraph v:horizAlign="1"/><v:tabList/>600V</text>		</g>
		<g id="shape213-88" v:mID="213" v:groupContext="shape" transform="translate(175.095,39.81) rotate(90)">
			<title>Sheet.213</title>
			<path d="M0 93.79 L48.19 93.79" class="st1"/>
		</g>
		<g id="shape214-91" v:mID="214" v:groupContext="shape" transform="translate(174.811,5.79429) rotate(90)">
			<title>Sheet.214</title>
			<path d="M0 93.79 L25.51 93.79" class="st1"/>
		</g>
		<g id="shape215-94" v:mID="215" v:groupContext="shape" transform="translate(49.8367,-62.4872)">
			<title>Sheet.215</title>
			<desc>347V</desc>
			<v:textBlock v:margins="rect(4,4,4,4)" v:tabSpace="42.5197"/>
			<v:textRect cx="14.1732" cy="86.7067" width="28.35" height="14.1732"/>
			<rect x="0" y="79.6201" width="28.3465" height="14.1732" class="st3"/>
			<text x="7.91" y="88.51" class="st4" v:langID="1033"><v:paragraph v:horizAlign="1"/><v:tabList/>347V</text>		</g>
		<g id="shape216-97" v:mID="216" v:groupContext="shape" transform="translate(157.803,5.79429) rotate(90)">
			<title>Sheet.216</title>
			<path d="M0 93.79 L14.17 93.79" class="st1"/>
		</g>
		<g id="shape217-100" v:mID="217" v:groupContext="shape" transform="translate(157.803,28.4715) rotate(90)">
			<title>Sheet.217</title>
			<path d="M0 93.79 L48.19 93.79" class="st1"/>
		</g>
		<g id="shape218-103" v:mID="218" v:groupContext="shape" transform="translate(41.3879,-51.7156)">
			<title>Sheet.218</title>
			<desc>600V</desc>
			<v:textBlock v:margins="rect(4,4,4,4)" v:tabSpace="42.5197"/>
			<v:textRect cx="14.1732" cy="86.7067" width="28.35" height="14.1732"/>
			<rect x="0" y="79.6201" width="28.3465" height="14.1732" class="st3"/>
			<text x="7.91" y="88.51" class="st4" v:langID="1033"><v:paragraph v:horizAlign="1"/><v:tabList/>600V</text>		</g>
		<g id="shape219-106" v:mID="219" v:groupContext="shape" transform="translate(149.299,39.81) rotate(90)">
			<title>Sheet.219</title>
			<path d="M0 93.79 L24.27 93.79" class="st1"/>
		</g>
		<g id="shape220-109" v:mID="220" v:groupContext="shape" transform="translate(149.299,5.79429) rotate(90)">
			<title>Sheet.220</title>
			<path d="M0 93.79 L25.51 93.79" class="st1"/>
		</g>
		<g id="shape221-112" v:mID="221" v:groupContext="shape" transform="translate(41.3879,-14.2982)">
			<title>Sheet.221</title>
			<desc>600V</desc>
			<v:textBlock v:margins="rect(4,4,4,4)" v:tabSpace="42.5197"/>
			<v:textRect cx="14.1732" cy="86.7067" width="28.35" height="14.1732"/>
			<rect x="0" y="79.6201" width="28.3465" height="14.1732" class="st3"/>
			<text x="7.91" y="88.51" class="st4" v:langID="1033"><v:paragraph v:horizAlign="1"/><v:tabList/>600V</text>		</g>
		<g id="shape222-115" v:mID="222" v:groupContext="shape" transform="translate(149.299,64.0777) rotate(90)">
			<title>Sheet.222</title>
			<path d="M0 93.79 L4.08 93.79" class="st1"/>
		</g>
		<g id="shape223-118" v:mID="223" v:groupContext="shape" transform="translate(149.299,75.4163) rotate(90)">
			<title>Sheet.223</title>
			<path d="M0 93.79 L12.58 93.79" class="st1"/>
		</g>
		<g id="shape224-121" v:mID="224" v:groupContext="shape" transform="translate(58.3406,-17.1329)">
			<title>Sheet.224</title>
			<desc>347V</desc>
			<v:textBlock v:margins="rect(4,4,4,4)" v:tabSpace="42.5197"/>
			<v:textRect cx="14.1732" cy="88.124" width="28.35" height="11.3386"/>
			<rect x="0" y="82.4547" width="28.3465" height="11.3386" class="st3"/>
			<text x="7.91" y="89.92" class="st4" v:langID="1033"><v:paragraph v:horizAlign="1"/><v:tabList/>347V</text>		</g>
		<g id="shape225-124" v:mID="225" v:groupContext="shape" transform="translate(58.3406,-5.79429)">
			<title>Sheet.225</title>
			<desc>347V</desc>
			<v:textBlock v:margins="rect(4,4,4,4)" v:tabSpace="42.5197"/>
			<v:textRect cx="14.1732" cy="88.124" width="28.35" height="11.3386"/>
			<rect x="0" y="82.4547" width="28.3465" height="11.3386" class="st3"/>
			<text x="7.91" y="89.92" class="st4" v:langID="1033"><v:paragraph v:horizAlign="1"/><v:tabList/>347V</text>		</g>
		<g id="shape226-127" v:mID="226" v:groupContext="shape" transform="translate(166.307,64.0777) rotate(90)">
			<title>Sheet.226</title>
			<path d="M0 93.79 L4.08 93.79" class="st1"/>
		</g>
		<g id="shape227-130" v:mID="227" v:groupContext="shape" transform="translate(166.307,73.8258) rotate(90)">
			<title>Sheet.227</title>
			<path d="M0 93.79 L2.83 93.79" class="st1"/>
		</g>
		<g id="shape228-133" v:mID="228" v:groupContext="shape" transform="translate(166.307,85.1644) rotate(90)">
			<title>Sheet.228</title>
			<path d="M0 93.79 L2.83 93.79" class="st1"/>
		</g>
		<g id="shape229-136" v:mID="229" v:groupContext="shape" transform="translate(166.307,76.6604) rotate(90)">
			<title>Sheet.229</title>
			<path d="M0 93.79 L2.83 93.79" class="st1"/>
		</g>
		<g id="group230-139" transform="translate(-37.7205,87.999) rotate(-90)" v:mID="230" v:groupContext="group">
			<title>Sheet.230</title>
			<g id="shape231-140" v:mID="231" v:groupContext="shape">
				<title>Sheet.231</title>
				<path d="M0 93.23 L1.42 92.66 L1.42 93.79 L0 93.23 Z" class="st2"/>
			</g>
		</g>
		<g id="group232-142" transform="translate(-20.7127,87.999) rotate(-90)" v:mID="232" v:groupContext="group">
			<title>Sheet.232</title>
			<g id="shape233-143" v:mID="233" v:groupContext="shape">
				<title>Sheet.233</title>
				<path d="M0 93.23 L1.42 92.66 L1.42 93.79 L0 93.23 Z" class="st2"/>
			</g>
		</g>
		<g id="group234-145" transform="translate(-37.6653,63.9045) rotate(-90)" v:mID="234" v:groupContext="group">
			<title>Sheet.234</title>
			<g id="shape235-146" v:mID="235" v:groupContext="shape">
				<title>Sheet.235</title>
				<path d="M0 93.23 L1.42 92.66 L1.42 93.79 L0 93.23 Z" class="st2"/>
			</g>
		</g>
		<g id="group236-148" transform="translate(-29.2166,76.6605) rotate(-90)" v:mID="236" v:groupContext="group">
			<title>Sheet.236</title>
			<g id="shape237-149" v:mID="237" v:groupContext="shape">
				<title>Sheet.237</title>
				<path d="M0 93.23 L1.42 92.66 L1.42 93.79 L0 93.23 Z" class="st2"/>
			</g>
		</g>
		<g id="group238-151" transform="translate(-20.7127,76.6605) rotate(-90)" v:mID="238" v:groupContext="group">
			<title>Sheet.238</title>
			<g id="shape239-152" v:mID="239" v:groupContext="shape">
				<title>Sheet.239</title>
				<path d="M0 93.23 L1.42 92.66 L1.42 93.79 L0 93.23 Z" class="st2"/>
			</g>
		</g>
		<g id="group240-154" transform="translate(165.74,64.1881) rotate(90)" v:mID="240" v:groupContext="group">
			<title>Sheet.240</title>
			<g id="shape241-155" v:mID="241" v:groupContext="shape">
				<title>Sheet.241</title>
				<path d="M0 93.23 L1.42 92.66 L1.42 93.79 L0 93.23 Z" class="st2"/>
			</g>
		</g>
		<g id="group242-157" transform="translate(148.787,64.1881) rotate(90)" v:mID="242" v:groupContext="group">
			<title>Sheet.242</title>
			<g id="shape243-158" v:mID="243" v:groupContext="shape">
				<title>Sheet.243</title>
				<path d="M0 93.23 L1.42 92.66 L1.42 93.79 L0 93.23 Z" class="st2"/>
			</g>
		</g>
		<g id="group244-160" transform="translate(174.244,5.79445) rotate(90)" v:mID="244" v:groupContext="group">
			<title>Sheet.244</title>
			<g id="shape245-161" v:mID="245" v:groupContext="shape">
				<title>Sheet.245</title>
				<path d="M0 93.23 L1.42 92.66 L1.42 93.79 L0 93.23 Z" class="st2"/>
			</g>
		</g>
		<g id="group250-163" transform="translate(-11.9252,87.999) rotate(-90)" v:mID="250" v:groupContext="group">
			<title>Sheet.250</title>
			<g id="shape251-164" v:mID="251" v:groupContext="shape">
				<title>Sheet.251</title>
				<path d="M0 93.23 L1.42 92.66 L1.42 93.79 L0 93.23 Z" class="st2"/>
			</g>
		</g>
		<g id="group252-166" transform="translate(157.236,5.79445) rotate(90)" v:mID="252" v:groupContext="group">
			<title>Sheet.252</title>
			<g id="shape253-167" v:mID="253" v:groupContext="shape">
				<title>Sheet.253</title>
				<path d="M0 93.23 L1.42 92.66 L1.42 93.79 L0 93.23 Z" class="st2"/>
			</g>
		</g>
		<g id="group254-169" transform="translate(148.732,5.79445) rotate(90)" v:mID="254" v:groupContext="group">
			<title>Sheet.254</title>
			<g id="shape255-170" v:mID="255" v:groupContext="shape">
				<title>Sheet.255</title>
				<path d="M0 93.23 L1.42 92.66 L1.42 93.79 L0 93.23 Z" class="st2"/>
			</g>
		</g>
		<g id="group256-172" transform="translate(165.74,76.6605) rotate(90)" v:mID="256" v:groupContext="group">
			<title>Sheet.256</title>
			<g id="shape257-173" v:mID="257" v:groupContext="shape">
				<title>Sheet.257</title>
				<path d="M0 93.23 L1.42 92.66 L1.42 93.79 L0 93.23 Z" class="st2"/>
			</g>
		</g>
	</g>
</svg>
