<?xml version="1.0" encoding="UTF-8" standalone="no"?>
<!DOCTYPE svg PUBLIC "-//W3C//DTD SVG 1.1//EN"
 "http://www.w3.org/Graphics/SVG/1.1/DTD/svg11.dtd">
<!-- Generated by graphviz version 12.1.2 (20240928.0832)
 -->
<!-- Title: G Pages: 1 -->
<svg width="1216pt" height="661pt"
 viewBox="0.00 0.00 1216.44 660.59" xmlns="http://www.w3.org/2000/svg" xmlns:xlink="http://www.w3.org/1999/xlink">
<g id="graph0" class="graph" transform="scale(1 1) rotate(0) translate(4 656.59)">
<title>G</title>
<polygon fill="white" stroke="none" points="-4,4 -4,-656.59 1212.44,-656.59 1212.44,4 -4,4"/>
<!-- n_85b310fc49 -->
<g id="node1" class="node">
<title>n_85b310fc49</title>
<polygon fill="none" stroke="black" points="54,-52 0,-52 0,-16 54,-16 54,-52"/>
<text text-anchor="middle" x="27" y="-30.12" font-family="Times New Roman,serif" font-size="10.00">AHU&#45;1</text>
</g>
<!-- n_9ffe7b1da3 -->
<g id="node3" class="node">
<title>n_9ffe7b1da3</title>
<polygon fill="none" stroke="black" points="186,-291 132,-291 132,-255 186,-255 186,-291"/>
<text text-anchor="middle" x="159" y="-269.12" font-family="Times New Roman,serif" font-size="10.00">Coil</text>
</g>
<!-- n_85b310fc49&#45;&gt;n_9ffe7b1da3 -->
<g id="edge7" class="edge">
<title>n_85b310fc49&#45;&gt;n_9ffe7b1da3</title>
<path fill="none" stroke="black" d="M37.99,-52.36C60.53,-93.8 115.51,-194.88 142.51,-244.53"/>
<polygon fill="black" stroke="black" points="139.4,-246.14 147.26,-253.25 145.55,-242.79 139.4,-246.14"/>
<text text-anchor="middle" x="93" y="-190.82" font-family="Times New Roman,serif" font-size="9.00">hasMember</text>
</g>
<!-- n_8b97395b83 -->
<g id="node13" class="node">
<title>n_8b97395b83</title>
<polygon fill="none" stroke="black" points="416.48,-36 362.48,-36 362.48,0 416.48,0 416.48,-36"/>
<text text-anchor="middle" x="389.48" y="-14.13" font-family="Times New Roman,serif" font-size="10.00">SF</text>
</g>
<!-- n_85b310fc49&#45;&gt;n_8b97395b83 -->
<g id="edge14" class="edge">
<title>n_85b310fc49&#45;&gt;n_8b97395b83</title>
<path fill="none" stroke="black" d="M54.22,-32.84C117.29,-30.04 277.72,-22.92 350.97,-19.66"/>
<polygon fill="black" stroke="black" points="351.02,-23.17 360.85,-19.23 350.71,-16.17 351.02,-23.17"/>
<text text-anchor="middle" x="159" y="-31.32" font-family="Times New Roman,serif" font-size="9.00">hasMember</text>
</g>
<!-- n_4b75ecf34d -->
<g id="node2" class="node">
<title>n_4b75ecf34d</title>
<ellipse fill="none" stroke="black" cx="389.48" cy="-577" rx="75.59" ry="75.59"/>
<text text-anchor="middle" x="389.48" y="-573.12" font-family="Times New Roman,serif" font-size="10.00">averageSurfaceTemperature</text>
</g>
<!-- n_9ffe7b1da3&#45;&gt;n_4b75ecf34d -->
<g id="edge12" class="edge">
<title>n_9ffe7b1da3&#45;&gt;n_4b75ecf34d</title>
<path fill="none" stroke="black" d="M159.7,-291.47C160.03,-327.94 165.34,-410.28 204,-464 229.97,-500.09 271.37,-526.96 308.37,-545.43"/>
<polygon fill="black" stroke="black" points="306.79,-548.55 317.31,-549.75 309.83,-542.25 306.79,-548.55"/>
<text text-anchor="middle" x="239.62" y="-527.9" font-family="Times New Roman,serif" font-size="9.00">hasProperty</text>
</g>
<!-- n_62312d1c9b -->
<g id="node4" class="node">
<title>n_62312d1c9b</title>
<polygon fill="none" stroke="black" points="389.48,-375 334.67,-357 389.48,-339 444.29,-357 389.48,-375"/>
<text text-anchor="middle" x="389.48" y="-353.12" font-family="Times New Roman,serif" font-size="10.00">Coil.airInlet</text>
</g>
<!-- n_9ffe7b1da3&#45;&gt;n_62312d1c9b -->
<g id="edge13" class="edge">
<title>n_9ffe7b1da3&#45;&gt;n_62312d1c9b</title>
<path fill="none" stroke="black" d="M170.48,-291.41C178.2,-303.22 189.8,-317.83 204,-326 240.35,-346.92 286.97,-354.62 324.25,-357.12"/>
<polygon fill="black" stroke="black" points="323.81,-360.6 333.99,-357.65 324.2,-353.61 323.81,-360.6"/>
<text text-anchor="middle" x="239.62" y="-351.94" font-family="Times New Roman,serif" font-size="9.00">hasConnectionPoint</text>
</g>
<!-- n_48a7e114d5 -->
<g id="node5" class="node">
<title>n_48a7e114d5</title>
<polygon fill="none" stroke="black" points="564.8,-273 503.71,-255 564.8,-237 625.88,-255 564.8,-273"/>
<text text-anchor="middle" x="564.8" y="-251.12" font-family="Times New Roman,serif" font-size="10.00">Coil.airOutlet</text>
</g>
<!-- n_9ffe7b1da3&#45;&gt;n_48a7e114d5 -->
<g id="edge3" class="edge">
<title>n_9ffe7b1da3&#45;&gt;n_48a7e114d5</title>
<path fill="none" stroke="black" d="M186.15,-279.37C241.97,-291.91 376.57,-316.55 485.71,-292 502.67,-288.19 520.27,-280.24 534.47,-272.69"/>
<polygon fill="black" stroke="black" points="535.77,-275.97 542.81,-268.06 532.37,-269.85 535.77,-275.97"/>
<text text-anchor="middle" x="239.62" y="-296.38" font-family="Times New Roman,serif" font-size="9.00">hasConnectionPoint</text>
</g>
<!-- n_5d70400809 -->
<g id="node6" class="node">
<title>n_5d70400809</title>
<polygon fill="none" stroke="black" points="389.48,-429 299.53,-411 389.48,-393 479.43,-411 389.48,-429"/>
<text text-anchor="middle" x="389.48" y="-407.12" font-family="Times New Roman,serif" font-size="10.00">Coil.chilledWaterInlet</text>
</g>
<!-- n_9ffe7b1da3&#45;&gt;n_5d70400809 -->
<g id="edge19" class="edge">
<title>n_9ffe7b1da3&#45;&gt;n_5d70400809</title>
<path fill="none" stroke="black" d="M163.93,-291.25C169.35,-311.99 181.17,-345.35 204,-364 232.64,-387.4 271.49,-399.32 306.15,-405.33"/>
<polygon fill="black" stroke="black" points="305.32,-408.74 315.74,-406.84 306.41,-401.83 305.32,-408.74"/>
<text text-anchor="middle" x="239.62" y="-399.71" font-family="Times New Roman,serif" font-size="9.00">hasConnectionPoint</text>
</g>
<!-- n_5a68f5bca9 -->
<g id="node7" class="node">
<title>n_5a68f5bca9</title>
<polygon fill="none" stroke="black" points="389.48,-483 293.25,-465 389.48,-447 485.71,-465 389.48,-483"/>
<text text-anchor="middle" x="389.48" y="-461.12" font-family="Times New Roman,serif" font-size="10.00">Coil.chilledWaterOutlet</text>
</g>
<!-- n_9ffe7b1da3&#45;&gt;n_5a68f5bca9 -->
<g id="edge10" class="edge">
<title>n_9ffe7b1da3&#45;&gt;n_5a68f5bca9</title>
<path fill="none" stroke="black" d="M160.52,-291.11C162.36,-320.63 170.33,-379.1 204,-412 230.78,-438.16 269.58,-451.57 304.69,-458.38"/>
<polygon fill="black" stroke="black" points="304,-461.81 314.46,-460.1 305.22,-454.92 304,-461.81"/>
<text text-anchor="middle" x="239.62" y="-451.69" font-family="Times New Roman,serif" font-size="9.00">hasConnectionPoint</text>
</g>
<!-- n_3ee157a319 -->
<g id="node10" class="node">
<title>n_3ee157a319</title>
<ellipse fill="none" stroke="black" cx="389.48" cy="-235" rx="47.63" ry="47.63"/>
<text text-anchor="middle" x="389.48" y="-231.12" font-family="Times New Roman,serif" font-size="10.00">internalPressure</text>
</g>
<!-- n_9ffe7b1da3&#45;&gt;n_3ee157a319 -->
<g id="edge8" class="edge">
<title>n_9ffe7b1da3&#45;&gt;n_3ee157a319</title>
<path fill="none" stroke="black" d="M186.21,-268.64C221.29,-262.81 284.49,-252.3 330.93,-244.57"/>
<polygon fill="black" stroke="black" points="331.27,-248.06 340.56,-242.97 330.12,-241.16 331.27,-248.06"/>
<text text-anchor="middle" x="239.62" y="-266.74" font-family="Times New Roman,serif" font-size="9.00">hasProperty</text>
</g>
<!-- n_72b5bf2f6e -->
<g id="node11" class="node">
<title>n_72b5bf2f6e</title>
<ellipse fill="none" stroke="black" cx="389.48" cy="-112" rx="57.84" ry="57.84"/>
<text text-anchor="middle" x="389.48" y="-108.12" font-family="Times New Roman,serif" font-size="10.00">internalTemperature</text>
</g>
<!-- n_9ffe7b1da3&#45;&gt;n_72b5bf2f6e -->
<g id="edge23" class="edge">
<title>n_9ffe7b1da3&#45;&gt;n_72b5bf2f6e</title>
<path fill="none" stroke="black" d="M183.6,-254.72C190.16,-249.72 197.32,-244.35 204,-239.5 246.41,-208.72 295.22,-175.07 331.98,-150.06"/>
<polygon fill="black" stroke="black" points="333.49,-153.26 339.8,-144.75 329.56,-147.47 333.49,-153.26"/>
<text text-anchor="middle" x="239.62" y="-241.45" font-family="Times New Roman,serif" font-size="9.00">hasProperty</text>
</g>
<!-- n_9ffe7b1da3&#45;&gt;n_8b97395b83 -->
<g id="edge25" class="edge">
<title>n_9ffe7b1da3&#45;&gt;n_8b97395b83</title>
<path fill="none" stroke="black" d="M167.18,-254.56C175.22,-234.6 189.08,-202.05 204,-175.5 212.6,-160.18 278.99,-55.26 293.25,-45 310.12,-32.87 332.29,-26.17 351,-22.48"/>
<polygon fill="black" stroke="black" points="351.38,-25.97 360.63,-20.81 350.18,-19.07 351.38,-25.97"/>
<text text-anchor="middle" x="239.62" y="-177.45" font-family="Times New Roman,serif" font-size="9.00">connectedFrom</text>
</g>
<!-- n_9c802b4b77 -->
<g id="node9" class="node">
<title>n_9c802b4b77</title>
<polygon fill="none" stroke="black" points="1208.44,-300 1154.19,-300 1154.19,-264 1208.44,-264 1208.44,-300"/>
<text text-anchor="middle" x="1181.32" y="-278.12" font-family="Times New Roman,serif" font-size="10.00">Fluid&#45;Air</text>
</g>
<!-- n_62312d1c9b&#45;&gt;n_9c802b4b77 -->
<g id="edge9" class="edge">
<title>n_62312d1c9b&#45;&gt;n_9c802b4b77</title>
<path fill="none" stroke="black" d="M438.67,-359.24C551.15,-363.59 839.44,-369.73 1076.19,-332 1103.45,-327.66 1111.45,-328.22 1136.19,-316 1141.14,-313.56 1146.07,-310.52 1150.74,-307.27"/>
<polygon fill="black" stroke="black" points="1152.78,-310.12 1158.7,-301.33 1148.59,-304.51 1152.78,-310.12"/>
<text text-anchor="middle" x="900.54" y="-357.45" font-family="Times New Roman,serif" font-size="9.00">hasMedium</text>
</g>
<!-- n_29bc7a2511 -->
<g id="node12" class="node">
<title>n_29bc7a2511</title>
<polygon fill="none" stroke="black" points="834.63,-333 643.88,-333 643.88,-297 834.63,-297 834.63,-333"/>
<text text-anchor="middle" x="739.26" y="-311.12" font-family="Times New Roman,serif" font-size="10.00">nf2c62a048d72497ba6a2df08490de9e4b4</text>
</g>
<!-- n_62312d1c9b&#45;&gt;n_29bc7a2511 -->
<g id="edge11" class="edge">
<title>n_62312d1c9b&#45;&gt;n_29bc7a2511</title>
<path fill="none" stroke="black" d="M420.25,-348.71C439.33,-342.98 464.43,-334.66 485.71,-325 494.14,-321.17 494.77,-316.92 503.71,-314.5 544.76,-303.4 591.35,-301.44 632.13,-303.01"/>
<polygon fill="black" stroke="black" points="631.8,-306.5 641.96,-303.47 632.13,-299.51 631.8,-306.5"/>
<text text-anchor="middle" x="564.8" y="-316.45" font-family="Times New Roman,serif" font-size="9.00">connectsThrough</text>
</g>
<!-- n_48a7e114d5&#45;&gt;n_9c802b4b77 -->
<g id="edge20" class="edge">
<title>n_48a7e114d5&#45;&gt;n_9c802b4b77</title>
<path fill="none" stroke="black" d="M613.9,-250.96C704.71,-244.24 907.43,-233.48 1076.19,-255 1098.65,-257.86 1123.18,-264.07 1142.79,-269.81"/>
<polygon fill="black" stroke="black" points="1141.68,-273.13 1152.27,-272.67 1143.71,-266.43 1141.68,-273.13"/>
<text text-anchor="middle" x="900.54" y="-246.19" font-family="Times New Roman,serif" font-size="9.00">hasMedium</text>
</g>
<!-- n_f0bdc4e838 -->
<g id="node17" class="node">
<title>n_f0bdc4e838</title>
<polygon fill="none" stroke="black" points="788.13,-449 690.38,-449 690.38,-413 788.13,-413 788.13,-449"/>
<text text-anchor="middle" x="739.26" y="-427.12" font-family="Times New Roman,serif" font-size="10.00">Water&#45;ChilledWater</text>
</g>
<!-- n_5d70400809&#45;&gt;n_f0bdc4e838 -->
<g id="edge21" class="edge">
<title>n_5d70400809&#45;&gt;n_f0bdc4e838</title>
<path fill="none" stroke="black" d="M461.28,-415.07C525.27,-418.75 618.43,-424.11 678.69,-427.57"/>
<polygon fill="black" stroke="black" points="678.22,-431.05 688.4,-428.13 678.62,-424.06 678.22,-431.05"/>
<text text-anchor="middle" x="564.8" y="-426.48" font-family="Times New Roman,serif" font-size="9.00">hasMedium</text>
</g>
<!-- n_5a68f5bca9&#45;&gt;n_f0bdc4e838 -->
<g id="edge2" class="edge">
<title>n_5a68f5bca9&#45;&gt;n_f0bdc4e838</title>
<path fill="none" stroke="black" d="M454.67,-458.72C518.79,-452.46 616.53,-442.9 678.89,-436.8"/>
<polygon fill="black" stroke="black" points="678.98,-440.31 688.6,-435.85 678.3,-433.34 678.98,-440.31"/>
<text text-anchor="middle" x="564.8" y="-454.98" font-family="Times New Roman,serif" font-size="9.00">hasMedium</text>
</g>
<!-- n_f3e8c0989f -->
<g id="node8" class="node">
<title>n_f3e8c0989f</title>
<polygon fill="none" stroke="black" points="1076.19,-36 966.44,-36 966.44,0 1076.19,0 1076.19,-36"/>
<text text-anchor="middle" x="1021.32" y="-14.13" font-family="Times New Roman,serif" font-size="10.00">Constituent&#45;Electricity</text>
</g>
<!-- n_29bc7a2511&#45;&gt;n_62312d1c9b -->
<g id="edge6" class="edge">
<title>n_29bc7a2511&#45;&gt;n_62312d1c9b</title>
<path fill="none" stroke="black" d="M643.46,-326.45C578.48,-334.3 494.77,-344.4 441.85,-350.8"/>
<polygon fill="black" stroke="black" points="441.73,-347.29 432.22,-351.96 442.56,-354.24 441.73,-347.29"/>
<text text-anchor="middle" x="564.8" y="-344.17" font-family="Times New Roman,serif" font-size="9.00">connectsAt</text>
</g>
<!-- n_29bc7a2511&#45;&gt;n_9c802b4b77 -->
<g id="edge24" class="edge">
<title>n_29bc7a2511&#45;&gt;n_9c802b4b77</title>
<path fill="none" stroke="black" d="M834.77,-318.75C902.3,-320.1 995.18,-319.27 1076.19,-309 1103.17,-305.58 1109.93,-304.06 1136.19,-297 1138.45,-296.39 1140.76,-295.73 1143.09,-295.04"/>
<polygon fill="black" stroke="black" points="1143.97,-298.43 1152.45,-292.07 1141.86,-291.75 1143.97,-298.43"/>
<text text-anchor="middle" x="1021.32" y="-319.5" font-family="Times New Roman,serif" font-size="9.00">hasMedium</text>
</g>
<!-- n_d99463c4e2 -->
<g id="node15" class="node">
<title>n_d99463c4e2</title>
<polygon fill="none" stroke="black" points="1021.32,-300 967.14,-282 1021.32,-264 1075.5,-282 1021.32,-300"/>
<text text-anchor="middle" x="1021.32" y="-278.12" font-family="Times New Roman,serif" font-size="10.00">SF.airOutlet</text>
</g>
<!-- n_29bc7a2511&#45;&gt;n_d99463c4e2 -->
<g id="edge16" class="edge">
<title>n_29bc7a2511&#45;&gt;n_d99463c4e2</title>
<path fill="none" stroke="black" d="M784.53,-296.56C804.89,-289.04 829.59,-281.24 852.63,-277.5 894.66,-270.67 905.88,-276.17 948.44,-277.5 953.5,-277.66 958.75,-277.88 964.02,-278.14"/>
<polygon fill="black" stroke="black" points="963.79,-281.63 973.97,-278.68 964.17,-274.64 963.79,-281.63"/>
<text text-anchor="middle" x="900.54" y="-279.45" font-family="Times New Roman,serif" font-size="9.00">connectsAt</text>
</g>
<!-- n_8b97395b83&#45;&gt;n_9ffe7b1da3 -->
<g id="edge5" class="edge">
<title>n_8b97395b83&#45;&gt;n_9ffe7b1da3</title>
<path fill="none" stroke="black" d="M362.12,-21.28C313.85,-27.53 215.15,-41.48 204,-52.5 177.34,-78.84 165.92,-189.68 161.88,-243.47"/>
<polygon fill="black" stroke="black" points="158.41,-242.9 161.19,-253.12 165.39,-243.4 158.41,-242.9"/>
<text text-anchor="middle" x="239.62" y="-54.45" font-family="Times New Roman,serif" font-size="9.00">connectedTo</text>
</g>
<!-- n_c0534da604 -->
<g id="node14" class="node">
<title>n_c0534da604</title>
<polygon fill="none" stroke="black" points="900.54,-140 852.63,-122 900.54,-104 948.44,-122 900.54,-140"/>
<text text-anchor="middle" x="900.54" y="-118.12" font-family="Times New Roman,serif" font-size="10.00">SF.airInlet</text>
</g>
<!-- n_8b97395b83&#45;&gt;n_c0534da604 -->
<g id="edge15" class="edge">
<title>n_8b97395b83&#45;&gt;n_c0534da604</title>
<path fill="none" stroke="black" d="M416.78,-23.37C499.6,-40.29 755.6,-92.59 857.28,-113.37"/>
<polygon fill="black" stroke="black" points="856.34,-116.75 866.84,-115.32 857.75,-109.89 856.34,-116.75"/>
<text text-anchor="middle" x="564.8" y="-67.5" font-family="Times New Roman,serif" font-size="9.00">hasConnectionPoint</text>
</g>
<!-- n_8b97395b83&#45;&gt;n_d99463c4e2 -->
<g id="edge26" class="edge">
<title>n_8b97395b83&#45;&gt;n_d99463c4e2</title>
<path fill="none" stroke="black" d="M416.94,-19.81C437.67,-22.47 466.16,-29 485.71,-45 499.25,-56.08 490.27,-68.81 503.71,-80 662.37,-212.07 769.83,-110.5 948.44,-214 968.75,-225.77 987.86,-244.35 1001.26,-259.11"/>
<polygon fill="black" stroke="black" points="998.59,-261.38 1007.83,-266.58 1003.85,-256.76 998.59,-261.38"/>
<text text-anchor="middle" x="739.26" y="-171.42" font-family="Times New Roman,serif" font-size="9.00">hasConnectionPoint</text>
</g>
<!-- n_3f891df280 -->
<g id="node16" class="node">
<title>n_3f891df280</title>
<polygon fill="none" stroke="black" points="739.26,-36 668.76,-18 739.26,0 809.76,-18 739.26,-36"/>
<text text-anchor="middle" x="739.26" y="-14.13" font-family="Times New Roman,serif" font-size="10.00">SF.electricalInlet</text>
</g>
<!-- n_8b97395b83&#45;&gt;n_3f891df280 -->
<g id="edge1" class="edge">
<title>n_8b97395b83&#45;&gt;n_3f891df280</title>
<path fill="none" stroke="black" d="M416.91,-18C467.14,-18 578.31,-18 655.73,-18"/>
<polygon fill="black" stroke="black" points="655.38,-21.5 665.38,-18 655.38,-14.5 655.38,-21.5"/>
<text text-anchor="middle" x="564.8" y="-19.95" font-family="Times New Roman,serif" font-size="9.00">hasConnectionPoint</text>
</g>
<!-- n_c0534da604&#45;&gt;n_9c802b4b77 -->
<g id="edge18" class="edge">
<title>n_c0534da604&#45;&gt;n_9c802b4b77</title>
<path fill="none" stroke="black" d="M930.85,-129.07C978.02,-141.57 1071.97,-171.14 1136.19,-222 1147.33,-230.82 1157.03,-243.11 1164.48,-254.28"/>
<polygon fill="black" stroke="black" points="1161.31,-255.82 1169.62,-262.4 1167.23,-252.08 1161.31,-255.82"/>
<text text-anchor="middle" x="1021.32" y="-184.21" font-family="Times New Roman,serif" font-size="9.00">hasMedium</text>
</g>
<!-- n_d99463c4e2&#45;&gt;n_9c802b4b77 -->
<g id="edge4" class="edge">
<title>n_d99463c4e2&#45;&gt;n_9c802b4b77</title>
<path fill="none" stroke="black" d="M1076.69,-282C1098.38,-282 1122.82,-282 1142.51,-282"/>
<polygon fill="black" stroke="black" points="1142.29,-285.5 1152.29,-282 1142.29,-278.5 1142.29,-285.5"/>
<text text-anchor="middle" x="1115.19" y="-283.95" font-family="Times New Roman,serif" font-size="9.00">hasMedium</text>
</g>
<!-- n_d99463c4e2&#45;&gt;n_29bc7a2511 -->
<g id="edge22" class="edge">
<title>n_d99463c4e2&#45;&gt;n_29bc7a2511</title>
<path fill="none" stroke="black" d="M979.9,-286.76C945.04,-290.87 893.11,-296.99 846.48,-302.48"/>
<polygon fill="black" stroke="black" points="846.1,-299 836.58,-303.65 846.92,-305.96 846.1,-299"/>
<text text-anchor="middle" x="900.54" y="-303.41" font-family="Times New Roman,serif" font-size="9.00">connectsThrough</text>
</g>
<!-- n_3f891df280&#45;&gt;n_f3e8c0989f -->
<g id="edge17" class="edge">
<title>n_3f891df280&#45;&gt;n_f3e8c0989f</title>
<path fill="none" stroke="black" d="M811.65,-18C855.74,-18 911.89,-18 954.84,-18"/>
<polygon fill="black" stroke="black" points="954.78,-21.5 964.78,-18 954.78,-14.5 954.78,-21.5"/>
<text text-anchor="middle" x="900.54" y="-19.95" font-family="Times New Roman,serif" font-size="9.00">hasMedium</text>
</g>
</g>
</svg>
