<?xml version="1.0" encoding="UTF-8" standalone="no"?>
<!DOCTYPE svg PUBLIC "-//W3C//DTD SVG 1.1//EN"
 "http://www.w3.org/Graphics/SVG/1.1/DTD/svg11.dtd">
<!-- Generated by graphviz version 12.1.2 (20240928.0832)
 -->
<!-- Title: G Pages: 1 -->
<svg width="1223pt" height="661pt"
 viewBox="0.00 0.00 1223.19 660.59" xmlns="http://www.w3.org/2000/svg" xmlns:xlink="http://www.w3.org/1999/xlink">
<g id="graph0" class="graph" transform="scale(1 1) rotate(0) translate(4 656.59)">
<title>G</title>
<polygon fill="white" stroke="none" points="-4,4 -4,-656.59 1219.19,-656.59 1219.19,4 -4,4"/>
<!-- n_2ca5eaa169 -->
<g id="node1" class="node">
<title>n_2ca5eaa169</title>
<polygon fill="none" stroke="black" points="54,-52 0,-52 0,-16 54,-16 54,-52"/>
<text text-anchor="middle" x="27" y="-30.12" font-family="Times New Roman,serif" font-size="10.00">AHU&#45;1</text>
</g>
<!-- n_63203917f3 -->
<g id="node3" class="node">
<title>n_63203917f3</title>
<polygon fill="none" stroke="black" points="186,-291 132,-291 132,-255 186,-255 186,-291"/>
<text text-anchor="middle" x="159" y="-269.12" font-family="Times New Roman,serif" font-size="10.00">Coil</text>
</g>
<!-- n_2ca5eaa169&#45;&gt;n_63203917f3 -->
<g id="edge9" class="edge">
<title>n_2ca5eaa169&#45;&gt;n_63203917f3</title>
<path fill="none" stroke="black" d="M37.99,-52.36C60.53,-93.8 115.51,-194.88 142.51,-244.53"/>
<polygon fill="black" stroke="black" points="139.4,-246.14 147.26,-253.25 145.55,-242.79 139.4,-246.14"/>
<text text-anchor="middle" x="93" y="-190.82" font-family="Times New Roman,serif" font-size="9.00">hasMember</text>
</g>
<!-- n_9be0262b13 -->
<g id="node13" class="node">
<title>n_9be0262b13</title>
<polygon fill="none" stroke="black" points="416.48,-36 362.48,-36 362.48,0 416.48,0 416.48,-36"/>
<text text-anchor="middle" x="389.48" y="-14.13" font-family="Times New Roman,serif" font-size="10.00">SF</text>
</g>
<!-- n_2ca5eaa169&#45;&gt;n_9be0262b13 -->
<g id="edge8" class="edge">
<title>n_2ca5eaa169&#45;&gt;n_9be0262b13</title>
<path fill="none" stroke="black" d="M54.22,-32.84C117.29,-30.04 277.72,-22.92 350.97,-19.66"/>
<polygon fill="black" stroke="black" points="351.02,-23.17 360.85,-19.23 350.71,-16.17 351.02,-23.17"/>
<text text-anchor="middle" x="159" y="-31.32" font-family="Times New Roman,serif" font-size="9.00">hasMember</text>
</g>
<!-- n_6264911306 -->
<g id="node2" class="node">
<title>n_6264911306</title>
<ellipse fill="none" stroke="black" cx="389.48" cy="-577" rx="75.59" ry="75.59"/>
<text text-anchor="middle" x="389.48" y="-573.12" font-family="Times New Roman,serif" font-size="10.00">averageSurfaceTemperature</text>
</g>
<!-- n_63203917f3&#45;&gt;n_6264911306 -->
<g id="edge26" class="edge">
<title>n_63203917f3&#45;&gt;n_6264911306</title>
<path fill="none" stroke="black" d="M159.7,-291.47C160.03,-327.94 165.34,-410.28 204,-464 229.97,-500.09 271.37,-526.96 308.37,-545.43"/>
<polygon fill="black" stroke="black" points="306.79,-548.55 317.31,-549.75 309.83,-542.25 306.79,-548.55"/>
<text text-anchor="middle" x="239.62" y="-527.9" font-family="Times New Roman,serif" font-size="9.00">hasProperty</text>
</g>
<!-- n_0bcdc8593a -->
<g id="node4" class="node">
<title>n_0bcdc8593a</title>
<polygon fill="none" stroke="black" points="389.48,-375 334.67,-357 389.48,-339 444.29,-357 389.48,-375"/>
<text text-anchor="middle" x="389.48" y="-353.12" font-family="Times New Roman,serif" font-size="10.00">Coil.airInlet</text>
</g>
<!-- n_63203917f3&#45;&gt;n_0bcdc8593a -->
<g id="edge23" class="edge">
<title>n_63203917f3&#45;&gt;n_0bcdc8593a</title>
<path fill="none" stroke="black" d="M170.48,-291.41C178.2,-303.22 189.8,-317.83 204,-326 240.35,-346.92 286.97,-354.62 324.25,-357.12"/>
<polygon fill="black" stroke="black" points="323.81,-360.6 333.99,-357.65 324.2,-353.61 323.81,-360.6"/>
<text text-anchor="middle" x="239.62" y="-351.94" font-family="Times New Roman,serif" font-size="9.00">hasConnectionPoint</text>
</g>
<!-- n_8e50d552a5 -->
<g id="node5" class="node">
<title>n_8e50d552a5</title>
<polygon fill="none" stroke="black" points="564.8,-273 503.71,-255 564.8,-237 625.88,-255 564.8,-273"/>
<text text-anchor="middle" x="564.8" y="-251.12" font-family="Times New Roman,serif" font-size="10.00">Coil.airOutlet</text>
</g>
<!-- n_63203917f3&#45;&gt;n_8e50d552a5 -->
<g id="edge16" class="edge">
<title>n_63203917f3&#45;&gt;n_8e50d552a5</title>
<path fill="none" stroke="black" d="M186.15,-279.37C241.97,-291.91 376.57,-316.55 485.71,-292 502.67,-288.19 520.27,-280.24 534.47,-272.69"/>
<polygon fill="black" stroke="black" points="535.77,-275.97 542.81,-268.06 532.37,-269.85 535.77,-275.97"/>
<text text-anchor="middle" x="239.62" y="-296.38" font-family="Times New Roman,serif" font-size="9.00">hasConnectionPoint</text>
</g>
<!-- n_e1c0d953c2 -->
<g id="node6" class="node">
<title>n_e1c0d953c2</title>
<polygon fill="none" stroke="black" points="389.48,-429 299.53,-411 389.48,-393 479.43,-411 389.48,-429"/>
<text text-anchor="middle" x="389.48" y="-407.12" font-family="Times New Roman,serif" font-size="10.00">Coil.chilledWaterInlet</text>
</g>
<!-- n_63203917f3&#45;&gt;n_e1c0d953c2 -->
<g id="edge20" class="edge">
<title>n_63203917f3&#45;&gt;n_e1c0d953c2</title>
<path fill="none" stroke="black" d="M163.93,-291.25C169.35,-311.99 181.17,-345.35 204,-364 232.64,-387.4 271.49,-399.32 306.15,-405.33"/>
<polygon fill="black" stroke="black" points="305.32,-408.74 315.74,-406.84 306.41,-401.83 305.32,-408.74"/>
<text text-anchor="middle" x="239.62" y="-399.71" font-family="Times New Roman,serif" font-size="9.00">hasConnectionPoint</text>
</g>
<!-- n_9d521fe341 -->
<g id="node7" class="node">
<title>n_9d521fe341</title>
<polygon fill="none" stroke="black" points="389.48,-483 293.25,-465 389.48,-447 485.71,-465 389.48,-483"/>
<text text-anchor="middle" x="389.48" y="-461.12" font-family="Times New Roman,serif" font-size="10.00">Coil.chilledWaterOutlet</text>
</g>
<!-- n_63203917f3&#45;&gt;n_9d521fe341 -->
<g id="edge14" class="edge">
<title>n_63203917f3&#45;&gt;n_9d521fe341</title>
<path fill="none" stroke="black" d="M160.52,-291.11C162.36,-320.63 170.33,-379.1 204,-412 230.78,-438.16 269.58,-451.57 304.69,-458.38"/>
<polygon fill="black" stroke="black" points="304,-461.81 314.46,-460.1 305.22,-454.92 304,-461.81"/>
<text text-anchor="middle" x="239.62" y="-451.69" font-family="Times New Roman,serif" font-size="9.00">hasConnectionPoint</text>
</g>
<!-- n_578b4fbd0d -->
<g id="node10" class="node">
<title>n_578b4fbd0d</title>
<ellipse fill="none" stroke="black" cx="389.48" cy="-235" rx="47.63" ry="47.63"/>
<text text-anchor="middle" x="389.48" y="-231.12" font-family="Times New Roman,serif" font-size="10.00">internalPressure</text>
</g>
<!-- n_63203917f3&#45;&gt;n_578b4fbd0d -->
<g id="edge11" class="edge">
<title>n_63203917f3&#45;&gt;n_578b4fbd0d</title>
<path fill="none" stroke="black" d="M186.21,-268.64C221.29,-262.81 284.49,-252.3 330.93,-244.57"/>
<polygon fill="black" stroke="black" points="331.27,-248.06 340.56,-242.97 330.12,-241.16 331.27,-248.06"/>
<text text-anchor="middle" x="239.62" y="-266.74" font-family="Times New Roman,serif" font-size="9.00">hasProperty</text>
</g>
<!-- n_75db797137 -->
<g id="node11" class="node">
<title>n_75db797137</title>
<ellipse fill="none" stroke="black" cx="389.48" cy="-112" rx="57.84" ry="57.84"/>
<text text-anchor="middle" x="389.48" y="-108.12" font-family="Times New Roman,serif" font-size="10.00">internalTemperature</text>
</g>
<!-- n_63203917f3&#45;&gt;n_75db797137 -->
<g id="edge18" class="edge">
<title>n_63203917f3&#45;&gt;n_75db797137</title>
<path fill="none" stroke="black" d="M183.6,-254.72C190.16,-249.72 197.32,-244.35 204,-239.5 246.41,-208.72 295.22,-175.07 331.98,-150.06"/>
<polygon fill="black" stroke="black" points="333.49,-153.26 339.8,-144.75 329.56,-147.47 333.49,-153.26"/>
<text text-anchor="middle" x="239.62" y="-241.45" font-family="Times New Roman,serif" font-size="9.00">hasProperty</text>
</g>
<!-- n_63203917f3&#45;&gt;n_9be0262b13 -->
<g id="edge15" class="edge">
<title>n_63203917f3&#45;&gt;n_9be0262b13</title>
<path fill="none" stroke="black" d="M167.18,-254.56C175.22,-234.6 189.08,-202.05 204,-175.5 212.6,-160.18 278.99,-55.26 293.25,-45 310.12,-32.87 332.29,-26.17 351,-22.48"/>
<polygon fill="black" stroke="black" points="351.38,-25.97 360.63,-20.81 350.18,-19.07 351.38,-25.97"/>
<text text-anchor="middle" x="239.62" y="-177.45" font-family="Times New Roman,serif" font-size="9.00">connectedFrom</text>
</g>
<!-- n_9c802b4b77 -->
<g id="node9" class="node">
<title>n_9c802b4b77</title>
<polygon fill="none" stroke="black" points="1215.19,-300 1160.94,-300 1160.94,-264 1215.19,-264 1215.19,-300"/>
<text text-anchor="middle" x="1188.07" y="-278.12" font-family="Times New Roman,serif" font-size="10.00">Fluid&#45;Air</text>
</g>
<!-- n_0bcdc8593a&#45;&gt;n_9c802b4b77 -->
<g id="edge19" class="edge">
<title>n_0bcdc8593a&#45;&gt;n_9c802b4b77</title>
<path fill="none" stroke="black" d="M441.92,-358.18C489.62,-359.05 562.56,-359.8 625.88,-358 829.27,-352.22 882.03,-364.16 1082.94,-332 1110.19,-327.64 1118.2,-328.22 1142.94,-316 1147.89,-313.56 1152.82,-310.52 1157.49,-307.27"/>
<polygon fill="black" stroke="black" points="1159.53,-310.12 1165.45,-301.33 1155.34,-304.51 1159.53,-310.12"/>
<text text-anchor="middle" x="907.29" y="-356.67" font-family="Times New Roman,serif" font-size="9.00">hasMedium</text>
</g>
<!-- n_848d6f5ef4 -->
<g id="node12" class="node">
<title>n_848d6f5ef4</title>
<polygon fill="none" stroke="black" points="841.38,-333 643.88,-333 643.88,-297 841.38,-297 841.38,-333"/>
<text text-anchor="middle" x="742.63" y="-311.12" font-family="Times New Roman,serif" font-size="10.00">n9e7b8fd4db00476ea24c0ad99c708a26b13</text>
</g>
<!-- n_0bcdc8593a&#45;&gt;n_848d6f5ef4 -->
<g id="edge2" class="edge">
<title>n_0bcdc8593a&#45;&gt;n_848d6f5ef4</title>
<path fill="none" stroke="black" d="M419.13,-348.34C438.2,-342.33 463.71,-333.86 485.71,-325 493.92,-321.7 495.08,-318.46 503.71,-316.5 545.04,-307.1 591.45,-304.99 632.24,-305.84"/>
<polygon fill="black" stroke="black" points="631.98,-309.34 642.08,-306.11 632.18,-302.34 631.98,-309.34"/>
<text text-anchor="middle" x="564.8" y="-318.45" font-family="Times New Roman,serif" font-size="9.00">connectsThrough</text>
</g>
<!-- n_8e50d552a5&#45;&gt;n_9c802b4b77 -->
<g id="edge10" class="edge">
<title>n_8e50d552a5&#45;&gt;n_9c802b4b77</title>
<path fill="none" stroke="black" d="M613.82,-250.96C705.48,-244.15 911.5,-233.13 1082.94,-255 1105.4,-257.86 1129.93,-264.07 1149.54,-269.81"/>
<polygon fill="black" stroke="black" points="1148.43,-273.13 1159.02,-272.67 1150.46,-266.43 1148.43,-273.13"/>
<text text-anchor="middle" x="907.29" y="-246.33" font-family="Times New Roman,serif" font-size="9.00">hasMedium</text>
</g>
<!-- n_f0bdc4e838 -->
<g id="node17" class="node">
<title>n_f0bdc4e838</title>
<polygon fill="none" stroke="black" points="791.51,-449 693.76,-449 693.76,-413 791.51,-413 791.51,-449"/>
<text text-anchor="middle" x="742.63" y="-427.12" font-family="Times New Roman,serif" font-size="10.00">Water&#45;ChilledWater</text>
</g>
<!-- n_e1c0d953c2&#45;&gt;n_f0bdc4e838 -->
<g id="edge4" class="edge">
<title>n_e1c0d953c2&#45;&gt;n_f0bdc4e838</title>
<path fill="none" stroke="black" d="M461.54,-415.05C526.4,-418.74 621.18,-424.14 682.13,-427.61"/>
<polygon fill="black" stroke="black" points="681.79,-431.1 691.97,-428.17 682.19,-424.11 681.79,-431.1"/>
<text text-anchor="middle" x="564.8" y="-425.91" font-family="Times New Roman,serif" font-size="9.00">hasMedium</text>
</g>
<!-- n_9d521fe341&#45;&gt;n_f0bdc4e838 -->
<g id="edge17" class="edge">
<title>n_9d521fe341&#45;&gt;n_f0bdc4e838</title>
<path fill="none" stroke="black" d="M454.89,-458.76C519.75,-452.48 619.01,-442.87 682.09,-436.77"/>
<polygon fill="black" stroke="black" points="682.3,-440.26 691.92,-435.81 681.63,-433.29 682.3,-440.26"/>
<text text-anchor="middle" x="564.8" y="-455.95" font-family="Times New Roman,serif" font-size="9.00">hasMedium</text>
</g>
<!-- n_f3e8c0989f -->
<g id="node8" class="node">
<title>n_f3e8c0989f</title>
<polygon fill="none" stroke="black" points="1082.94,-36 973.19,-36 973.19,0 1082.94,0 1082.94,-36"/>
<text text-anchor="middle" x="1028.07" y="-14.13" font-family="Times New Roman,serif" font-size="10.00">Constituent&#45;Electricity</text>
</g>
<!-- n_848d6f5ef4&#45;&gt;n_0bcdc8593a -->
<g id="edge6" class="edge">
<title>n_848d6f5ef4&#45;&gt;n_0bcdc8593a</title>
<path fill="none" stroke="black" d="M643.51,-326.74C578.19,-334.55 494.97,-344.5 442.19,-350.81"/>
<polygon fill="black" stroke="black" points="441.78,-347.34 432.26,-352 442.61,-354.29 441.78,-347.34"/>
<text text-anchor="middle" x="564.8" y="-345.36" font-family="Times New Roman,serif" font-size="9.00">connectsAt</text>
</g>
<!-- n_848d6f5ef4&#45;&gt;n_9c802b4b77 -->
<g id="edge25" class="edge">
<title>n_848d6f5ef4&#45;&gt;n_9c802b4b77</title>
<path fill="none" stroke="black" d="M841.66,-318.86C909.65,-320.17 1002.14,-319.24 1082.94,-309 1109.92,-305.58 1116.68,-304.06 1142.94,-297 1145.2,-296.39 1147.51,-295.73 1149.84,-295.04"/>
<polygon fill="black" stroke="black" points="1150.72,-298.43 1159.2,-292.07 1148.61,-291.75 1150.72,-298.43"/>
<text text-anchor="middle" x="1028.07" y="-319.58" font-family="Times New Roman,serif" font-size="9.00">hasMedium</text>
</g>
<!-- n_94591c88b9 -->
<g id="node15" class="node">
<title>n_94591c88b9</title>
<polygon fill="none" stroke="black" points="1028.07,-300 973.89,-282 1028.07,-264 1082.25,-282 1028.07,-300"/>
<text text-anchor="middle" x="1028.07" y="-278.12" font-family="Times New Roman,serif" font-size="10.00">SF.airOutlet</text>
</g>
<!-- n_848d6f5ef4&#45;&gt;n_94591c88b9 -->
<g id="edge24" class="edge">
<title>n_848d6f5ef4&#45;&gt;n_94591c88b9</title>
<path fill="none" stroke="black" d="M787.86,-296.57C809.09,-288.7 835.13,-280.43 859.38,-276.5 901.42,-269.69 912.64,-274.87 955.19,-276.5 960.91,-276.72 966.87,-277.03 972.82,-277.41"/>
<polygon fill="black" stroke="black" points="972.43,-280.89 982.64,-278.07 972.9,-273.9 972.43,-280.89"/>
<text text-anchor="middle" x="907.29" y="-278.45" font-family="Times New Roman,serif" font-size="9.00">connectsAt</text>
</g>
<!-- n_9be0262b13&#45;&gt;n_63203917f3 -->
<g id="edge7" class="edge">
<title>n_9be0262b13&#45;&gt;n_63203917f3</title>
<path fill="none" stroke="black" d="M362.12,-21.28C313.85,-27.53 215.15,-41.48 204,-52.5 177.34,-78.84 165.92,-189.68 161.88,-243.47"/>
<polygon fill="black" stroke="black" points="158.41,-242.9 161.19,-253.12 165.39,-243.4 158.41,-242.9"/>
<text text-anchor="middle" x="239.62" y="-54.45" font-family="Times New Roman,serif" font-size="9.00">connectedTo</text>
</g>
<!-- n_d5a63811d5 -->
<g id="node14" class="node">
<title>n_d5a63811d5</title>
<polygon fill="none" stroke="black" points="907.29,-140 859.38,-122 907.29,-104 955.19,-122 907.29,-140"/>
<text text-anchor="middle" x="907.29" y="-118.12" font-family="Times New Roman,serif" font-size="10.00">SF.airInlet</text>
</g>
<!-- n_9be0262b13&#45;&gt;n_d5a63811d5 -->
<g id="edge5" class="edge">
<title>n_9be0262b13&#45;&gt;n_d5a63811d5</title>
<path fill="none" stroke="black" d="M416.77,-23.3C500.39,-40.16 760.75,-92.66 863.74,-113.42"/>
<polygon fill="black" stroke="black" points="862.95,-116.83 873.44,-115.38 864.33,-109.97 862.95,-116.83"/>
<text text-anchor="middle" x="564.8" y="-65.28" font-family="Times New Roman,serif" font-size="9.00">hasConnectionPoint</text>
</g>
<!-- n_9be0262b13&#45;&gt;n_94591c88b9 -->
<g id="edge1" class="edge">
<title>n_9be0262b13&#45;&gt;n_94591c88b9</title>
<path fill="none" stroke="black" d="M416.84,-19.94C437.5,-22.67 465.97,-29.24 485.71,-45 498.77,-55.43 490.74,-67.47 503.71,-78 666.4,-210.1 773.87,-108.94 955.19,-214 975.5,-225.77 994.61,-244.35 1008.01,-259.11"/>
<polygon fill="black" stroke="black" points="1005.34,-261.38 1014.58,-266.58 1010.6,-256.76 1005.34,-261.38"/>
<text text-anchor="middle" x="742.63" y="-170.51" font-family="Times New Roman,serif" font-size="9.00">hasConnectionPoint</text>
</g>
<!-- n_0a1e5f0183 -->
<g id="node16" class="node">
<title>n_0a1e5f0183</title>
<polygon fill="none" stroke="black" points="742.63,-36 672.13,-18 742.63,0 813.13,-18 742.63,-36"/>
<text text-anchor="middle" x="742.63" y="-14.13" font-family="Times New Roman,serif" font-size="10.00">SF.electricalInlet</text>
</g>
<!-- n_9be0262b13&#45;&gt;n_0a1e5f0183 -->
<g id="edge21" class="edge">
<title>n_9be0262b13&#45;&gt;n_0a1e5f0183</title>
<path fill="none" stroke="black" d="M416.87,-18C467.57,-18 580.49,-18 658.84,-18"/>
<polygon fill="black" stroke="black" points="658.62,-21.5 668.62,-18 658.62,-14.5 658.62,-21.5"/>
<text text-anchor="middle" x="564.8" y="-19.95" font-family="Times New Roman,serif" font-size="9.00">hasConnectionPoint</text>
</g>
<!-- n_d5a63811d5&#45;&gt;n_9c802b4b77 -->
<g id="edge13" class="edge">
<title>n_d5a63811d5&#45;&gt;n_9c802b4b77</title>
<path fill="none" stroke="black" d="M937.6,-129.07C984.77,-141.57 1078.72,-171.14 1142.94,-222 1154.08,-230.82 1163.78,-243.11 1171.23,-254.28"/>
<polygon fill="black" stroke="black" points="1168.06,-255.82 1176.37,-262.4 1173.98,-252.08 1168.06,-255.82"/>
<text text-anchor="middle" x="1028.07" y="-184.21" font-family="Times New Roman,serif" font-size="9.00">hasMedium</text>
</g>
<!-- n_94591c88b9&#45;&gt;n_9c802b4b77 -->
<g id="edge3" class="edge">
<title>n_94591c88b9&#45;&gt;n_9c802b4b77</title>
<path fill="none" stroke="black" d="M1083.44,-282C1105.13,-282 1129.57,-282 1149.26,-282"/>
<polygon fill="black" stroke="black" points="1149.04,-285.5 1159.04,-282 1149.04,-278.5 1149.04,-285.5"/>
<text text-anchor="middle" x="1121.94" y="-283.95" font-family="Times New Roman,serif" font-size="9.00">hasMedium</text>
</g>
<!-- n_94591c88b9&#45;&gt;n_848d6f5ef4 -->
<g id="edge12" class="edge">
<title>n_94591c88b9&#45;&gt;n_848d6f5ef4</title>
<path fill="none" stroke="black" d="M986.76,-286.69C951.88,-290.75 899.8,-296.82 852.77,-302.29"/>
<polygon fill="black" stroke="black" points="852.6,-298.79 843.07,-303.42 853.41,-305.74 852.6,-298.79"/>
<text text-anchor="middle" x="907.29" y="-303.41" font-family="Times New Roman,serif" font-size="9.00">connectsThrough</text>
</g>
<!-- n_0a1e5f0183&#45;&gt;n_f3e8c0989f -->
<g id="edge22" class="edge">
<title>n_0a1e5f0183&#45;&gt;n_f3e8c0989f</title>
<path fill="none" stroke="black" d="M814.79,-18C859.8,-18 917.55,-18 961.46,-18"/>
<polygon fill="black" stroke="black" points="961.36,-21.5 971.36,-18 961.36,-14.5 961.36,-21.5"/>
<text text-anchor="middle" x="907.29" y="-19.95" font-family="Times New Roman,serif" font-size="9.00">hasMedium</text>
</g>
</g>
</svg>
