<?xml version="1.0" encoding="UTF-8" standalone="no"?>
<!DOCTYPE svg PUBLIC "-//W3C//DTD SVG 1.1//EN"
 "http://www.w3.org/Graphics/SVG/1.1/DTD/svg11.dtd">
<!-- Generated by graphviz version 12.1.2 (20240928.0832)
 -->
<!-- Title: G Pages: 1 -->
<svg width="513pt" height="152pt"
 viewBox="0.00 0.00 513.06 152.00" xmlns="http://www.w3.org/2000/svg" xmlns:xlink="http://www.w3.org/1999/xlink">
<g id="graph0" class="graph" transform="scale(1 1) rotate(0) translate(4 148)">
<title>G</title>
<polygon fill="white" stroke="none" points="-4,4 -4,-148 509.06,-148 509.06,4 -4,4"/>
<!-- n_f3e8c0989f -->
<g id="node1" class="node">
<title>n_f3e8c0989f</title>
<polygon fill="none" stroke="black" points="505.06,-36 395.31,-36 395.31,0 505.06,0 505.06,-36"/>
<text text-anchor="middle" x="450.19" y="-14.12" font-family="Times New Roman,serif" font-size="10.00">Constituent&#45;Electricity</text>
</g>
<!-- n_9c802b4b77 -->
<g id="node2" class="node">
<title>n_9c802b4b77</title>
<polygon fill="none" stroke="black" points="477.31,-107 423.06,-107 423.06,-71 477.31,-71 477.31,-107"/>
<text text-anchor="middle" x="450.19" y="-85.12" font-family="Times New Roman,serif" font-size="10.00">Fluid&#45;Air</text>
</g>
<!-- n_9d313d03bb -->
<g id="node3" class="node">
<title>n_9d313d03bb</title>
<polygon fill="none" stroke="black" points="54,-90 0,-90 0,-54 54,-54 54,-90"/>
<text text-anchor="middle" x="27" y="-68.12" font-family="Times New Roman,serif" font-size="10.00">SF&#45;1</text>
</g>
<!-- n_17c6b8b23b -->
<g id="node4" class="node">
<title>n_17c6b8b23b</title>
<polygon fill="none" stroke="black" points="239.28,-144 183.84,-126 239.28,-108 294.72,-126 239.28,-144"/>
<text text-anchor="middle" x="239.28" y="-122.12" font-family="Times New Roman,serif" font-size="10.00">SF&#45;1.airInlet</text>
</g>
<!-- n_9d313d03bb&#45;&gt;n_17c6b8b23b -->
<g id="edge6" class="edge">
<title>n_9d313d03bb&#45;&gt;n_17c6b8b23b</title>
<path fill="none" stroke="black" d="M54.39,-81.47C60.16,-83.4 66.26,-85.35 72,-87 112.59,-98.65 159.47,-109.4 193.09,-116.66"/>
<polygon fill="black" stroke="black" points="191.96,-120 202.47,-118.66 193.42,-113.15 191.96,-120"/>
<text text-anchor="middle" x="107.62" y="-106.61" font-family="Times New Roman,serif" font-size="9.00">hasConnectionPoint</text>
</g>
<!-- n_3bad381454 -->
<g id="node5" class="node">
<title>n_3bad381454</title>
<polygon fill="none" stroke="black" points="239.28,-90 177.57,-72 239.28,-54 300.99,-72 239.28,-90"/>
<text text-anchor="middle" x="239.28" y="-68.12" font-family="Times New Roman,serif" font-size="10.00">SF&#45;1.airOutlet</text>
</g>
<!-- n_9d313d03bb&#45;&gt;n_3bad381454 -->
<g id="edge2" class="edge">
<title>n_9d313d03bb&#45;&gt;n_3bad381454</title>
<path fill="none" stroke="black" d="M54.21,-72C81.76,-72 126.37,-72 164.77,-72"/>
<polygon fill="black" stroke="black" points="164.42,-75.5 174.42,-72 164.42,-68.5 164.42,-75.5"/>
<text text-anchor="middle" x="107.62" y="-73.95" font-family="Times New Roman,serif" font-size="9.00">hasConnectionPoint</text>
</g>
<!-- n_1620199fc3 -->
<g id="node6" class="node">
<title>n_1620199fc3</title>
<polygon fill="none" stroke="black" points="239.28,-36 161.25,-18 239.28,0 317.31,-18 239.28,-36"/>
<text text-anchor="middle" x="239.28" y="-14.12" font-family="Times New Roman,serif" font-size="10.00">SF&#45;1.electricalInlet</text>
</g>
<!-- n_9d313d03bb&#45;&gt;n_1620199fc3 -->
<g id="edge3" class="edge">
<title>n_9d313d03bb&#45;&gt;n_1620199fc3</title>
<path fill="none" stroke="black" d="M54.41,-62.89C60.18,-61.02 66.27,-59.12 72,-57.5 109.93,-46.77 153.26,-36.54 186.19,-29.18"/>
<polygon fill="black" stroke="black" points="186.89,-32.61 195.89,-27.03 185.37,-25.77 186.89,-32.61"/>
<text text-anchor="middle" x="107.62" y="-59.45" font-family="Times New Roman,serif" font-size="9.00">hasConnectionPoint</text>
</g>
<!-- n_17c6b8b23b&#45;&gt;n_9c802b4b77 -->
<g id="edge5" class="edge">
<title>n_17c6b8b23b&#45;&gt;n_9c802b4b77</title>
<path fill="none" stroke="black" d="M276.19,-119.64C313.93,-112.95 373.05,-102.48 411.46,-95.68"/>
<polygon fill="black" stroke="black" points="411.95,-99.15 421.18,-93.96 410.72,-92.26 411.95,-99.15"/>
<text text-anchor="middle" x="356.31" y="-110.56" font-family="Times New Roman,serif" font-size="9.00">hasMedium</text>
</g>
<!-- n_3bad381454&#45;&gt;n_9c802b4b77 -->
<g id="edge1" class="edge">
<title>n_3bad381454&#45;&gt;n_9c802b4b77</title>
<path fill="none" stroke="black" d="M289,-75.96C326.31,-79 377.05,-83.13 411.35,-85.92"/>
<polygon fill="black" stroke="black" points="410.98,-89.4 421.23,-86.73 411.55,-82.43 410.98,-89.4"/>
<text text-anchor="middle" x="356.31" y="-84.97" font-family="Times New Roman,serif" font-size="9.00">hasMedium</text>
</g>
<!-- n_1620199fc3&#45;&gt;n_f3e8c0989f -->
<g id="edge4" class="edge">
<title>n_1620199fc3&#45;&gt;n_f3e8c0989f</title>
<path fill="none" stroke="black" d="M319.26,-18C340.51,-18 363.26,-18 383.69,-18"/>
<polygon fill="black" stroke="black" points="383.58,-21.5 393.58,-18 383.58,-14.5 383.58,-21.5"/>
<text text-anchor="middle" x="356.31" y="-19.95" font-family="Times New Roman,serif" font-size="9.00">hasMedium</text>
</g>
</g>
</svg>
