<?xml version="1.0" encoding="UTF-8" standalone="no"?>
<!DOCTYPE svg PUBLIC "-//W3C//DTD SVG 1.1//EN"
 "http://www.w3.org/Graphics/SVG/1.1/DTD/svg11.dtd">
<!-- Generated by graphviz version 12.1.2 (20240928.0832)
 -->
<!-- Title: G Pages: 1 -->
<svg width="1373pt" height="791pt"
 viewBox="0.00 0.00 1372.91 790.63" xmlns="http://www.w3.org/2000/svg" xmlns:xlink="http://www.w3.org/1999/xlink">
<g id="graph0" class="graph" transform="scale(1 1) rotate(0) translate(4 786.63)">
<title>G</title>
<polygon fill="white" stroke="none" points="-4,4 -4,-786.63 1368.91,-786.63 1368.91,4 -4,4"/>
<!-- n_ca23f8349e -->
<g id="node1" class="node">
<title>n_ca23f8349e</title>
<polygon fill="none" stroke="black" points="54,-128 0,-128 0,-92 54,-92 54,-128"/>
<text text-anchor="middle" x="27" y="-106.12" font-family="Times New Roman,serif" font-size="10.00">AHU&#45;2</text>
</g>
<!-- n_0c5a2da72c -->
<g id="node3" class="node">
<title>n_0c5a2da72c</title>
<polygon fill="none" stroke="black" points="196,-291 132,-291 132,-255 196,-255 196,-291"/>
<text text-anchor="middle" x="164" y="-269.12" font-family="Times New Roman,serif" font-size="10.00">ChWCoil&#45;2</text>
</g>
<!-- n_ca23f8349e&#45;&gt;n_0c5a2da72c -->
<g id="edge16" class="edge">
<title>n_ca23f8349e&#45;&gt;n_0c5a2da72c</title>
<path fill="none" stroke="black" d="M43.22,-128.38C67.05,-157.15 113.26,-212.95 140.8,-246.2"/>
<polygon fill="black" stroke="black" points="138,-248.3 147.07,-253.77 143.39,-243.83 138,-248.3"/>
<text text-anchor="middle" x="93" y="-212.84" font-family="Times New Roman,serif" font-size="9.00">hasMember</text>
</g>
<!-- n_7b04ce3874 -->
<g id="node9" class="node">
<title>n_7b04ce3874</title>
<polygon fill="none" stroke="black" points="451.58,-120 397.58,-120 397.58,-84 451.58,-84 451.58,-120"/>
<text text-anchor="middle" x="424.58" y="-98.12" font-family="Times New Roman,serif" font-size="10.00">Fan&#45;2</text>
</g>
<!-- n_ca23f8349e&#45;&gt;n_7b04ce3874 -->
<g id="edge19" class="edge">
<title>n_ca23f8349e&#45;&gt;n_7b04ce3874</title>
<path fill="none" stroke="black" d="M54.26,-109.47C122.62,-108.09 306.31,-104.37 385.92,-102.76"/>
<polygon fill="black" stroke="black" points="385.89,-106.26 395.82,-102.56 385.75,-99.26 385.89,-106.26"/>
<text text-anchor="middle" x="164" y="-109.76" font-family="Times New Roman,serif" font-size="9.00">hasMember</text>
</g>
<!-- n_4e83bf501c -->
<g id="node2" class="node">
<title>n_4e83bf501c</title>
<ellipse fill="none" stroke="black" cx="424.58" cy="-461" rx="75.59" ry="75.59"/>
<text text-anchor="middle" x="424.58" y="-457.12" font-family="Times New Roman,serif" font-size="10.00">averageSurfaceTemperature</text>
</g>
<!-- n_0c5a2da72c&#45;&gt;n_4e83bf501c -->
<g id="edge24" class="edge">
<title>n_0c5a2da72c&#45;&gt;n_4e83bf501c</title>
<path fill="none" stroke="black" d="M177.52,-291.44C186.68,-304.08 199.91,-320.71 214,-333 254.08,-367.95 304.85,-399.22 346.38,-422.11"/>
<polygon fill="black" stroke="black" points="344.67,-425.16 355.13,-426.87 348.02,-419.02 344.67,-425.16"/>
<text text-anchor="middle" x="249.62" y="-387.05" font-family="Times New Roman,serif" font-size="9.00">hasProperty</text>
</g>
<!-- n_40e6a126b7 -->
<g id="node4" class="node">
<title>n_40e6a126b7</title>
<polygon fill="none" stroke="black" points="424.58,-259 344.67,-241 424.58,-223 504.5,-241 424.58,-259"/>
<text text-anchor="middle" x="424.58" y="-237.12" font-family="Times New Roman,serif" font-size="10.00">ChWCoil&#45;2.airInlet</text>
</g>
<!-- n_0c5a2da72c&#45;&gt;n_40e6a126b7 -->
<g id="edge15" class="edge">
<title>n_0c5a2da72c&#45;&gt;n_40e6a126b7</title>
<path fill="none" stroke="black" d="M196.27,-265.77C202.14,-264.56 208.24,-263.41 214,-262.5 259.48,-255.32 310.9,-250 351.43,-246.45"/>
<polygon fill="black" stroke="black" points="351.65,-249.94 361.32,-245.6 351.06,-242.97 351.65,-249.94"/>
<text text-anchor="middle" x="249.62" y="-264.45" font-family="Times New Roman,serif" font-size="9.00">hasConnectionPoint</text>
</g>
<!-- n_84db69a1a5 -->
<g id="node5" class="node">
<title>n_84db69a1a5</title>
<polygon fill="none" stroke="black" points="650.11,-178 563.92,-160 650.11,-142 736.3,-160 650.11,-178"/>
<text text-anchor="middle" x="650.11" y="-156.12" font-family="Times New Roman,serif" font-size="10.00">ChWCoil&#45;2.airOutlet</text>
</g>
<!-- n_0c5a2da72c&#45;&gt;n_84db69a1a5 -->
<g id="edge13" class="edge">
<title>n_0c5a2da72c&#45;&gt;n_84db69a1a5</title>
<path fill="none" stroke="black" d="M187.42,-254.77C195.44,-248.92 204.78,-242.85 214,-238.5 251.2,-220.95 263.03,-222.63 303.25,-214 399.5,-193.34 512.41,-177.21 582.37,-168.14"/>
<polygon fill="black" stroke="black" points="582.67,-171.63 592.14,-166.89 581.78,-164.69 582.67,-171.63"/>
<text text-anchor="middle" x="249.62" y="-240.45" font-family="Times New Roman,serif" font-size="9.00">hasConnectionPoint</text>
</g>
<!-- n_9fe47385a9 -->
<g id="node6" class="node">
<title>n_9fe47385a9</title>
<polygon fill="none" stroke="black" points="424.58,-367 309.53,-349 424.58,-331 539.64,-349 424.58,-367"/>
<text text-anchor="middle" x="424.58" y="-345.12" font-family="Times New Roman,serif" font-size="10.00">ChWCoil&#45;2.chilledWaterInlet</text>
</g>
<!-- n_0c5a2da72c&#45;&gt;n_9fe47385a9 -->
<g id="edge10" class="edge">
<title>n_0c5a2da72c&#45;&gt;n_9fe47385a9</title>
<path fill="none" stroke="black" d="M196.26,-289.36C202.07,-292.1 208.16,-294.77 214,-297 260.85,-314.86 315.95,-328.25 357.89,-336.97"/>
<polygon fill="black" stroke="black" points="357.1,-340.38 367.6,-338.95 358.5,-333.52 357.1,-340.38"/>
<text text-anchor="middle" x="249.62" y="-320.72" font-family="Times New Roman,serif" font-size="9.00">hasConnectionPoint</text>
</g>
<!-- n_307a7e5014 -->
<g id="node7" class="node">
<title>n_307a7e5014</title>
<polygon fill="none" stroke="black" points="424.58,-313 303.25,-295 424.58,-277 545.92,-295 424.58,-313"/>
<text text-anchor="middle" x="424.58" y="-291.12" font-family="Times New Roman,serif" font-size="10.00">ChWCoil&#45;2.chilledWaterOutlet</text>
</g>
<!-- n_0c5a2da72c&#45;&gt;n_307a7e5014 -->
<g id="edge23" class="edge">
<title>n_0c5a2da72c&#45;&gt;n_307a7e5014</title>
<path fill="none" stroke="black" d="M196.45,-275.68C230.4,-278.56 286.04,-283.3 333.75,-287.36"/>
<polygon fill="black" stroke="black" points="333.29,-290.83 343.55,-288.19 333.88,-283.86 333.29,-290.83"/>
<text text-anchor="middle" x="249.62" y="-284.63" font-family="Times New Roman,serif" font-size="9.00">hasConnectionPoint</text>
</g>
<!-- n_0c5a2da72c&#45;&gt;n_7b04ce3874 -->
<g id="edge6" class="edge">
<title>n_0c5a2da72c&#45;&gt;n_7b04ce3874</title>
<path fill="none" stroke="black" d="M165.34,-255C166.99,-223.84 175.22,-160.17 214,-128.5 239.55,-107.63 332.69,-103.01 385.8,-102.1"/>
<polygon fill="black" stroke="black" points="385.65,-105.6 395.61,-101.97 385.56,-98.6 385.65,-105.6"/>
<text text-anchor="middle" x="249.62" y="-130.45" font-family="Times New Roman,serif" font-size="9.00">connectedFrom</text>
</g>
<!-- n_4ea97d9f6b -->
<g id="node14" class="node">
<title>n_4ea97d9f6b</title>
<ellipse fill="none" stroke="black" cx="424.58" cy="-735" rx="47.63" ry="47.63"/>
<text text-anchor="middle" x="424.58" y="-731.12" font-family="Times New Roman,serif" font-size="10.00">internalPressure</text>
</g>
<!-- n_0c5a2da72c&#45;&gt;n_4ea97d9f6b -->
<g id="edge21" class="edge">
<title>n_0c5a2da72c&#45;&gt;n_4ea97d9f6b</title>
<path fill="none" stroke="black" d="M166.08,-291.5C169.14,-335.36 179.98,-448.57 214,-536 241.17,-605.82 247.13,-629.36 303.25,-679 321.86,-695.47 346.15,-708 368.03,-716.99"/>
<polygon fill="black" stroke="black" points="366.55,-720.16 377.13,-720.56 369.11,-713.65 366.55,-720.16"/>
<text text-anchor="middle" x="249.62" y="-664.08" font-family="Times New Roman,serif" font-size="9.00">hasProperty</text>
</g>
<!-- n_1b0db12057 -->
<g id="node15" class="node">
<title>n_1b0db12057</title>
<ellipse fill="none" stroke="black" cx="424.58" cy="-612" rx="57.84" ry="57.84"/>
<text text-anchor="middle" x="424.58" y="-608.12" font-family="Times New Roman,serif" font-size="10.00">internalTemperature</text>
</g>
<!-- n_0c5a2da72c&#45;&gt;n_1b0db12057 -->
<g id="edge11" class="edge">
<title>n_0c5a2da72c&#45;&gt;n_1b0db12057</title>
<path fill="none" stroke="black" d="M169.6,-291.18C182.6,-339.08 223.87,-470.27 303.25,-546 319.69,-561.69 340.59,-574.85 360.33,-585.18"/>
<polygon fill="black" stroke="black" points="358.67,-588.26 369.17,-589.65 361.82,-582.02 358.67,-588.26"/>
<text text-anchor="middle" x="249.62" y="-523.92" font-family="Times New Roman,serif" font-size="9.00">hasProperty</text>
</g>
<!-- n_9c802b4b77 -->
<g id="node13" class="node">
<title>n_9c802b4b77</title>
<polygon fill="none" stroke="black" points="1364.91,-207 1310.66,-207 1310.66,-171 1364.91,-171 1364.91,-207"/>
<text text-anchor="middle" x="1337.78" y="-185.12" font-family="Times New Roman,serif" font-size="10.00">Fluid&#45;Air</text>
</g>
<!-- n_40e6a126b7&#45;&gt;n_9c802b4b77 -->
<g id="edge3" class="edge">
<title>n_40e6a126b7&#45;&gt;n_9c802b4b77</title>
<path fill="none" stroke="black" d="M489.26,-244.9C512.72,-246.15 539.52,-247.38 563.92,-248 756.51,-252.87 1228.37,-239.64 1232.66,-239 1260.07,-234.94 1267.81,-234.28 1292.66,-222 1297.22,-219.75 1301.79,-217 1306.17,-214.07"/>
<polygon fill="black" stroke="black" points="1308.05,-217.03 1314.14,-208.36 1303.97,-211.34 1308.05,-217.03"/>
<text text-anchor="middle" x="1024.5" y="-247.51" font-family="Times New Roman,serif" font-size="9.00">hasMedium</text>
</g>
<!-- n_df32096a48 -->
<g id="node16" class="node">
<title>n_df32096a48</title>
<polygon fill="none" stroke="black" points="947.3,-235 754.3,-235 754.3,-199 947.3,-199 947.3,-235"/>
<text text-anchor="middle" x="850.8" y="-213.12" font-family="Times New Roman,serif" font-size="10.00">na1a30cb1ca484143a6c7741c20c30255b8</text>
</g>
<!-- n_40e6a126b7&#45;&gt;n_df32096a48 -->
<g id="edge22" class="edge">
<title>n_40e6a126b7&#45;&gt;n_df32096a48</title>
<path fill="none" stroke="black" d="M491.36,-237.53C554.25,-234.19 651.76,-228.92 736.3,-224 738.35,-223.88 740.42,-223.76 742.52,-223.64"/>
<polygon fill="black" stroke="black" points="742.53,-227.14 752.31,-223.06 742.12,-220.15 742.53,-227.14"/>
<text text-anchor="middle" x="650.11" y="-235.4" font-family="Times New Roman,serif" font-size="9.00">connectsThrough</text>
</g>
<!-- n_84db69a1a5&#45;&gt;n_9c802b4b77 -->
<g id="edge5" class="edge">
<title>n_84db69a1a5&#45;&gt;n_9c802b4b77</title>
<path fill="none" stroke="black" d="M714.7,-155.05C822.01,-147.86 1045.66,-137.82 1232.66,-162 1255.11,-164.9 1279.64,-171.11 1299.25,-176.84"/>
<polygon fill="black" stroke="black" points="1298.14,-180.16 1308.73,-179.7 1300.16,-173.46 1298.14,-180.16"/>
<text text-anchor="middle" x="1024.5" y="-151.33" font-family="Times New Roman,serif" font-size="9.00">hasMedium</text>
</g>
<!-- n_f0bdc4e838 -->
<g id="node17" class="node">
<title>n_f0bdc4e838</title>
<polygon fill="none" stroke="black" points="899.67,-357 801.92,-357 801.92,-321 899.67,-321 899.67,-357"/>
<text text-anchor="middle" x="850.8" y="-335.12" font-family="Times New Roman,serif" font-size="10.00">Water&#45;ChilledWater</text>
</g>
<!-- n_9fe47385a9&#45;&gt;n_f0bdc4e838 -->
<g id="edge9" class="edge">
<title>n_9fe47385a9&#45;&gt;n_f0bdc4e838</title>
<path fill="none" stroke="black" d="M527.46,-346.6C609.5,-344.66 721.99,-342.01 790.09,-340.41"/>
<polygon fill="black" stroke="black" points="790.02,-343.91 799.93,-340.18 789.85,-336.91 790.02,-343.91"/>
<text text-anchor="middle" x="650.11" y="-347.43" font-family="Times New Roman,serif" font-size="9.00">hasMedium</text>
</g>
<!-- n_307a7e5014&#45;&gt;n_f0bdc4e838 -->
<g id="edge14" class="edge">
<title>n_307a7e5014&#45;&gt;n_f0bdc4e838</title>
<path fill="none" stroke="black" d="M498.03,-302.51C580.41,-311.06 713.39,-324.85 790.07,-332.81"/>
<polygon fill="black" stroke="black" points="789.61,-336.28 799.92,-333.83 790.33,-329.31 789.61,-336.28"/>
<text text-anchor="middle" x="650.11" y="-329.15" font-family="Times New Roman,serif" font-size="9.00">hasMedium</text>
</g>
<!-- n_f3e8c0989f -->
<g id="node8" class="node">
<title>n_f3e8c0989f</title>
<polygon fill="none" stroke="black" points="1222.05,-36 1112.3,-36 1112.3,0 1222.05,0 1222.05,-36"/>
<text text-anchor="middle" x="1167.18" y="-14.12" font-family="Times New Roman,serif" font-size="10.00">Constituent&#45;Electricity</text>
</g>
<!-- n_7b04ce3874&#45;&gt;n_0c5a2da72c -->
<g id="edge26" class="edge">
<title>n_7b04ce3874&#45;&gt;n_0c5a2da72c</title>
<path fill="none" stroke="black" d="M397.27,-108.96C342.58,-123.52 221.06,-156.34 214,-162.5 189.83,-183.58 177.06,-218.86 170.69,-243.88"/>
<polygon fill="black" stroke="black" points="167.32,-242.89 168.46,-253.43 174.14,-244.48 167.32,-242.89"/>
<text text-anchor="middle" x="249.62" y="-164.45" font-family="Times New Roman,serif" font-size="9.00">connectedTo</text>
</g>
<!-- n_9d2e2f5a42 -->
<g id="node10" class="node">
<title>n_9d2e2f5a42</title>
<polygon fill="none" stroke="black" points="1024.5,-89 965.3,-71 1024.5,-53 1083.7,-71 1024.5,-89"/>
<text text-anchor="middle" x="1024.5" y="-67.12" font-family="Times New Roman,serif" font-size="10.00">Fan&#45;2.airInlet</text>
</g>
<!-- n_7b04ce3874&#45;&gt;n_9d2e2f5a42 -->
<g id="edge17" class="edge">
<title>n_7b04ce3874&#45;&gt;n_9d2e2f5a42</title>
<path fill="none" stroke="black" d="M452.04,-98.15C479.83,-94.27 524.85,-88.44 563.92,-85.5 701.57,-75.14 862.95,-72.16 953.2,-71.32"/>
<polygon fill="black" stroke="black" points="953.16,-74.82 963.13,-71.23 953.1,-67.82 953.16,-74.82"/>
<text text-anchor="middle" x="650.11" y="-87.45" font-family="Times New Roman,serif" font-size="9.00">hasConnectionPoint</text>
</g>
<!-- n_46beb69352 -->
<g id="node11" class="node">
<title>n_46beb69352</title>
<polygon fill="none" stroke="black" points="1167.18,-207 1101.7,-189 1167.18,-171 1232.66,-189 1167.18,-207"/>
<text text-anchor="middle" x="1167.18" y="-185.12" font-family="Times New Roman,serif" font-size="10.00">Fan&#45;2.airOutlet</text>
</g>
<!-- n_7b04ce3874&#45;&gt;n_46beb69352 -->
<g id="edge8" class="edge">
<title>n_7b04ce3874&#45;&gt;n_46beb69352</title>
<path fill="none" stroke="black" d="M451.81,-101.91C566.84,-101.66 1023.71,-102.07 1083.7,-124 1107.68,-132.77 1130.11,-151.4 1145.51,-166.47"/>
<polygon fill="black" stroke="black" points="1142.74,-168.65 1152.24,-173.32 1147.73,-163.74 1142.74,-168.65"/>
<text text-anchor="middle" x="850.8" y="-111.29" font-family="Times New Roman,serif" font-size="9.00">hasConnectionPoint</text>
</g>
<!-- n_b99ccc1c05 -->
<g id="node12" class="node">
<title>n_b99ccc1c05</title>
<polygon fill="none" stroke="black" points="850.8,-36 769,-18 850.8,0 932.59,-18 850.8,-36"/>
<text text-anchor="middle" x="850.8" y="-14.12" font-family="Times New Roman,serif" font-size="10.00">Fan&#45;2.electricalInlet</text>
</g>
<!-- n_7b04ce3874&#45;&gt;n_b99ccc1c05 -->
<g id="edge18" class="edge">
<title>n_7b04ce3874&#45;&gt;n_b99ccc1c05</title>
<path fill="none" stroke="black" d="M452.02,-84.2C478.89,-67.18 522.36,-42.52 563.92,-31.5 634.16,-12.87 717.44,-11.12 775.95,-13.04"/>
<polygon fill="black" stroke="black" points="775.67,-16.54 785.79,-13.42 775.93,-9.54 775.67,-16.54"/>
<text text-anchor="middle" x="650.11" y="-33.45" font-family="Times New Roman,serif" font-size="9.00">hasConnectionPoint</text>
</g>
<!-- n_9d2e2f5a42&#45;&gt;n_9c802b4b77 -->
<g id="edge20" class="edge">
<title>n_9d2e2f5a42&#45;&gt;n_9c802b4b77</title>
<path fill="none" stroke="black" d="M1082.34,-71.87C1139.68,-75.24 1228.64,-87.49 1292.66,-129 1304.82,-136.89 1314.8,-149.38 1322.17,-160.93"/>
<polygon fill="black" stroke="black" points="1319.08,-162.58 1327.19,-169.39 1325.1,-159.01 1319.08,-162.58"/>
<text text-anchor="middle" x="1167.18" y="-101.27" font-family="Times New Roman,serif" font-size="9.00">hasMedium</text>
</g>
<!-- n_46beb69352&#45;&gt;n_9c802b4b77 -->
<g id="edge7" class="edge">
<title>n_46beb69352&#45;&gt;n_9c802b4b77</title>
<path fill="none" stroke="black" d="M1234.33,-189C1256.23,-189 1279.85,-189 1298.88,-189"/>
<polygon fill="black" stroke="black" points="1298.86,-192.5 1308.86,-189 1298.86,-185.5 1298.86,-192.5"/>
<text text-anchor="middle" x="1271.66" y="-190.95" font-family="Times New Roman,serif" font-size="9.00">hasMedium</text>
</g>
<!-- n_46beb69352&#45;&gt;n_df32096a48 -->
<g id="edge2" class="edge">
<title>n_46beb69352&#45;&gt;n_df32096a48</title>
<path fill="none" stroke="black" d="M1116.16,-193.45C1073.92,-197.22 1011.96,-202.74 958.64,-207.48"/>
<polygon fill="black" stroke="black" points="958.56,-203.98 948.91,-208.35 959.18,-210.95 958.56,-203.98"/>
<text text-anchor="middle" x="1024.5" y="-208.28" font-family="Times New Roman,serif" font-size="9.00">connectsThrough</text>
</g>
<!-- n_b99ccc1c05&#45;&gt;n_f3e8c0989f -->
<g id="edge12" class="edge">
<title>n_b99ccc1c05&#45;&gt;n_f3e8c0989f</title>
<path fill="none" stroke="black" d="M934.81,-18C986.68,-18 1052.54,-18 1100.71,-18"/>
<polygon fill="black" stroke="black" points="1100.43,-21.5 1110.43,-18 1100.43,-14.5 1100.43,-21.5"/>
<text text-anchor="middle" x="1024.5" y="-19.95" font-family="Times New Roman,serif" font-size="9.00">hasMedium</text>
</g>
<!-- n_df32096a48&#45;&gt;n_40e6a126b7 -->
<g id="edge1" class="edge">
<title>n_df32096a48&#45;&gt;n_40e6a126b7</title>
<path fill="none" stroke="black" d="M753.82,-213.83C747.89,-213.7 742.01,-213.59 736.3,-213.5 659.69,-212.32 640.16,-206 563.92,-213.5 534.09,-216.44 501.17,-222.85 474.92,-228.75"/>
<polygon fill="black" stroke="black" points="474.18,-225.33 465.22,-230.98 475.75,-232.15 474.18,-225.33"/>
<text text-anchor="middle" x="650.11" y="-215.45" font-family="Times New Roman,serif" font-size="9.00">connectsAt</text>
</g>
<!-- n_df32096a48&#45;&gt;n_46beb69352 -->
<g id="edge25" class="edge">
<title>n_df32096a48&#45;&gt;n_46beb69352</title>
<path fill="none" stroke="black" d="M901.07,-198.56C920.75,-192.11 943.8,-185.69 965.3,-182.5 1017.35,-174.76 1031.12,-180.43 1083.7,-182.5 1090.67,-182.77 1097.96,-183.18 1105.21,-183.65"/>
<polygon fill="black" stroke="black" points="1104.76,-187.13 1114.99,-184.34 1105.26,-180.15 1104.76,-187.13"/>
<text text-anchor="middle" x="1024.5" y="-184.45" font-family="Times New Roman,serif" font-size="9.00">connectsAt</text>
</g>
<!-- n_df32096a48&#45;&gt;n_9c802b4b77 -->
<g id="edge4" class="edge">
<title>n_df32096a48&#45;&gt;n_9c802b4b77</title>
<path fill="none" stroke="black" d="M947.68,-223.12C1024.94,-226.52 1136.2,-227.97 1232.66,-216 1255.12,-213.21 1279.66,-207.01 1299.26,-201.25"/>
<polygon fill="black" stroke="black" points="1300.18,-204.63 1308.74,-198.38 1298.15,-197.93 1300.18,-204.63"/>
<text text-anchor="middle" x="1167.18" y="-226.83" font-family="Times New Roman,serif" font-size="9.00">hasMedium</text>
</g>
</g>
</svg>
