<?xml version="1.0" encoding="UTF-8" standalone="no"?>
<!DOCTYPE svg PUBLIC "-//W3C//DTD SVG 1.1//EN" "http://www.w3.org/Graphics/SVG/1.1/DTD/svg11.dtd">
<!-- Generated by Microsoft Visio, SVG Export Figure_10_1.svg Page-1 -->
<svg xmlns="http://www.w3.org/2000/svg" xmlns:xlink="http://www.w3.org/1999/xlink" xmlns:ev="http://www.w3.org/2001/xml-events"
		xmlns:v="http://schemas.microsoft.com/visio/2003/SVGExtensions/" width="2.93936in" height="1.438156in"
		viewBox="0 0 105.817 51.7736" xml:space="preserve" color-interpolation-filters="sRGB" class="st6">
	<v:documentProperties v:langID="4105" v:metric="true" v:viewMarkup="false"/>

	<style type="text/css">
	<![CDATA[
		.st1 {stroke:#000000;stroke-linecap:round;stroke-linejoin:round;stroke-width:0.25}
		.st2 {fill:none;stroke:none;stroke-linecap:round;stroke-linejoin:round;stroke-width:0.75}
		.st3 {fill:#000000;font-family:Calibri;font-size:0.499992em}
		.st4 {fill:none;stroke:none;stroke-linecap:round;stroke-linejoin:round;stroke-width:0.25}
		.st5 {fill:#000000;stroke:#000000;stroke-linecap:round;stroke-linejoin:round;stroke-width:0.25}
		.st6 {fill:none;fill-rule:evenodd;font-size:12px;overflow:visible;stroke-linecap:square;stroke-miterlimit:3}
	]]>
	</style>

	<g v:mID="0" v:index="1" v:groupContext="foregroundPage">
		<title>Page-1</title>
		<v:pageProperties v:drawingScale="0.0393701" v:pageScale="0.0393701" v:drawingUnits="24" v:shadowOffsetX="8.50394"
				v:shadowOffsetY="-8.50394"/>
		<v:layer v:name="Electrical" v:index="0"/>
		<g id="group62-1" transform="translate(-44.127,40.06) rotate(-90)" v:mID="62" v:groupContext="group" v:layerMember="0">
			<v:custProps>
				<v:cp v:nameU="Core" v:lbl="Core" v:type="1" v:format="Air;Magnetic;Magnetic with Gap" v:langID="1033"
						v:val="VT4(Air)"/>
				<v:cp v:nameU="Adjustability" v:lbl="Adjustability" v:type="1" v:format="Fixed;Adjustable;Continuously Adjustable"
						v:langID="1033" v:val="VT4(Fixed)"/>
				<v:cp v:nameU="Taps" v:lbl="Taps" v:type="1" v:format="0;1;2;3" v:langID="1033" v:val="VT4(0)"/>
				<v:cp v:nameU="Label" v:lbl="Label" v:type="0" v:format="" v:sortKey="" v:invis="false" v:ask="false"
						v:langID="1033" v:val="VT0(0):26"/>
				<v:cp v:nameU="Value" v:lbl="Value" v:type="0" v:format="@" v:sortKey="" v:invis="false" v:ask="false"
						v:langID="1033" v:val="VT4()"/>
			</v:custProps>
			<v:userDefs>
				<v:ud v:nameU="Core" v:val="VT0(0):26"/>
				<v:ud v:nameU="Adjustability" v:val="VT0(0):26"/>
				<v:ud v:nameU="CH"/>
				<v:ud v:nameU="visVersion" v:val="VT0(15):26"/>
				<v:ud v:nameU="visDescription" v:val="VT4(Inductor. Right-click to set inductor properties.)"/>
			</v:userDefs>
			<title>Inductor</title>
			<g id="shape63-2" v:mID="63" v:groupContext="shape" v:layerMember="0">
				<title>Sheet.63</title>
				<path d="M0 51.77 A3.54614 4.08856 0 1 1 7.09 51.77 A3.54614 4.08856 0 1 1 14.17 51.77 A3.54614 4.08856 0 1 1 21.26
							 51.77 A3.54614 4.08856 0 1 1 28.35 51.77" class="st1"/>
				<path d="M0 51.77 L0 52.48" class="st1"/>
				<path d="M28.35 51.77 L28.35 52.48" class="st1"/>
			</g>
			<g id="shape64-7" v:mID="64" v:groupContext="shape" v:layerMember="0" transform="translate(13.6639,4.78346)">
				<title>Sheet.64</title>
			</g>
			<g id="shape65-9" v:mID="65" v:groupContext="shape" v:layerMember="0"
					transform="translate(-31.8632,23.6021) rotate(-45)">
				<title>Sheet.65</title>
			</g>
		</g>
		<g id="shape66-11" v:mID="66" v:groupContext="shape" transform="translate(8.35528,-40.06)">
			<title>Sheet.66</title>
			<path d="M0 51.77 L0 46.1 L56.69 46.1" class="st1"/>
		</g>
		<g id="shape67-14" v:mID="67" v:groupContext="shape" transform="translate(8.35528,-6.04429)">
			<title>Sheet.67</title>
			<path d="M0 46.1 L0 51.77 L56.69 51.77" class="st1"/>
		</g>
		<g id="shape71-17" v:mID="71" v:groupContext="shape" transform="translate(65.0482,-40.06)">
			<title>Sheet.71</title>
			<desc>Line 1 (A)</desc>
			<v:textBlock v:margins="rect(4,4,4,4)" v:tabSpace="42.5197"/>
			<v:textRect cx="20.1969" cy="46.1043" width="40.4" height="11.3386"/>
			<rect x="0" y="40.435" width="40.3937" height="11.3386" class="st2"/>
			<text x="4" y="47.9" class="st3" v:langID="1033"><v:paragraph/><v:tabList/>Line 1 (A)</text>		</g>
		<g id="shape72-20" v:mID="72" v:groupContext="shape" transform="translate(65.0482,-0.375)">
			<title>Sheet.72</title>
			<desc>Line 2 (B)</desc>
			<v:textBlock v:margins="rect(4,4,4,4)" v:tabSpace="42.5197"/>
			<v:textRect cx="20.1969" cy="46.1043" width="40.4" height="11.3386"/>
			<rect x="0" y="40.435" width="40.3937" height="11.3386" class="st2"/>
			<text x="4" y="47.9" class="st3" v:langID="1033"><v:paragraph/><v:tabList/>Line 2 (B)</text>		</g>
		<g id="shape73-23" v:mID="73" v:groupContext="shape" transform="translate(14.0247,-28.7215)">
			<title>Sheet.73</title>
			<desc>120V</desc>
			<v:textBlock v:margins="rect(4,4,4,4)" v:tabSpace="42.5197"/>
			<v:textRect cx="14.1732" cy="44.687" width="28.35" height="14.1732"/>
			<rect x="0" y="37.6004" width="28.3465" height="14.1732" class="st4"/>
			<text x="7.91" y="46.49" class="st3" v:langID="1033"><v:paragraph v:horizAlign="1"/><v:tabList/>120V</text>		</g>
		<g id="shape74-26" v:mID="74" v:groupContext="shape" transform="translate(14.0246,-8.87894)">
			<title>Sheet.74</title>
			<desc>120V</desc>
			<v:textBlock v:margins="rect(4,4,4,4)" v:tabSpace="42.5197"/>
			<v:textRect cx="14.1732" cy="44.687" width="28.35" height="14.1732"/>
			<rect x="0" y="37.6004" width="28.3465" height="14.1732" class="st4"/>
			<text x="7.91" y="46.49" class="st3" v:langID="1033"><v:paragraph v:horizAlign="1"/><v:tabList/>120V</text>		</g>
		<g id="shape92-29" v:mID="92" v:groupContext="shape" transform="translate(36.7017,-28.7215)">
			<title>Sheet.92</title>
			<desc>240V</desc>
			<v:textBlock v:margins="rect(4,4,4,4)" v:tabSpace="42.5197"/>
			<v:textRect cx="14.1732" cy="44.687" width="28.35" height="14.1732"/>
			<rect x="0" y="37.6004" width="28.3465" height="14.1732" class="st4"/>
			<text x="7.91" y="46.49" class="st3" v:langID="1033"><v:paragraph v:horizAlign="1"/><v:tabList/>240V</text>		</g>
		<g id="group93-32" transform="translate(27.6307,-40.0601)" v:mID="93" v:groupContext="group">
			<title>Sheet.93</title>
			<g id="shape75-33" v:mID="75" v:groupContext="shape" transform="translate(-51.2065,51.7736) rotate(-90)">
				<title>Sheet.75</title>
				<path d="M0 51.77 L5.67 51.77" class="st1"/>
			</g>
			<g id="group84-36" transform="translate(51.7736,46.1044) rotate(90)" v:mID="84" v:groupContext="group">
				<title>Sheet.84</title>
				<g id="shape85-37" v:mID="85" v:groupContext="shape">
					<title>Sheet.85</title>
					<path d="M0 51.21 L1.42 50.64 L1.42 51.77 L0 51.21 Z" class="st5"/>
				</g>
			</g>
		</g>
		<g id="group94-39" transform="translate(50.3081,-40.0601)" v:mID="94" v:groupContext="group">
			<title>Sheet.94</title>
			<g id="shape95-40" v:mID="95" v:groupContext="shape" transform="translate(-51.2065,51.7736) rotate(-90)">
				<title>Sheet.95</title>
				<path d="M0 51.77 L5.67 51.77" class="st1"/>
			</g>
			<g id="group96-43" transform="translate(51.7736,46.1044) rotate(90)" v:mID="96" v:groupContext="group">
				<title>Sheet.96</title>
				<g id="shape97-44" v:mID="97" v:groupContext="shape">
					<title>Sheet.97</title>
					<path d="M0 51.21 L1.42 50.64 L1.42 51.77 L0 51.21 Z" class="st5"/>
				</g>
			</g>
		</g>
		<g id="group98-46" transform="translate(27.6307,-25.8867)" v:mID="98" v:groupContext="group">
			<title>Sheet.98</title>
			<g id="shape76-47" v:mID="76" v:groupContext="shape" transform="translate(52.3408,46.1042) rotate(90)">
				<title>Sheet.76</title>
				<path d="M0 51.77 L5.67 51.77" class="st1"/>
			</g>
			<g id="group86-50" transform="translate(-50.6398,51.7736) rotate(-90)" v:mID="86" v:groupContext="group">
				<title>Sheet.86</title>
				<g id="shape87-51" v:mID="87" v:groupContext="shape">
					<title>Sheet.87</title>
					<path d="M0 51.21 L1.42 50.64 L1.42 51.77 L0 51.21 Z" class="st5"/>
				</g>
			</g>
		</g>
		<g id="group99-53" transform="translate(27.6307,-20.2176)" v:mID="99" v:groupContext="group">
			<title>Sheet.99</title>
			<g id="shape78-54" v:mID="78" v:groupContext="shape" transform="translate(-51.2065,51.7736) rotate(-90)">
				<title>Sheet.78</title>
				<path d="M0 51.77 L5.67 51.77" class="st1"/>
			</g>
			<g id="group88-57" transform="translate(51.7736,46.3881) rotate(90)" v:mID="88" v:groupContext="group">
				<title>Sheet.88</title>
				<g id="shape89-58" v:mID="89" v:groupContext="shape">
					<title>Sheet.89</title>
					<path d="M0 51.21 L1.42 50.64 L1.42 51.77 L0 51.21 Z" class="st5"/>
				</g>
			</g>
		</g>
		<g id="group100-60" transform="translate(27.6307,-6.04429)" v:mID="100" v:groupContext="group">
			<title>Sheet.100</title>
			<g id="shape79-61" v:mID="79" v:groupContext="shape" transform="translate(52.3408,46.1043) rotate(90)">
				<title>Sheet.79</title>
				<path d="M0 51.77 L5.67 51.77" class="st1"/>
			</g>
			<g id="group90-64" transform="translate(-50.6398,51.7736) rotate(-90)" v:mID="90" v:groupContext="group">
				<title>Sheet.90</title>
				<g id="shape91-65" v:mID="91" v:groupContext="shape">
					<title>Sheet.91</title>
					<path d="M0 51.21 L1.42 50.64 L1.42 51.77 L0 51.21 Z" class="st5"/>
				</g>
			</g>
		</g>
		<g id="group101-67" transform="translate(8.35528,-25.3199)" v:mID="101" v:groupContext="group">
			<title>Sheet.101</title>
			<g id="shape68-68" v:mID="68" v:groupContext="shape" transform="translate(56.6929,102.98) rotate(180)">
				<title>Sheet.68</title>
				<path d="M0 51.77 L56.69 51.77" class="st1"/>
			</g>
			<g id="group83-71" transform="translate(7.96008E-05,0)" v:mID="83" v:groupContext="group">
				<title>Sheet.83</title>
				<g id="shape82-72" v:mID="82" v:groupContext="shape">
					<title>Sheet.82</title>
					<path d="M0 51.21 L1.42 50.64 L1.42 51.77 L0 51.21 Z" class="st5"/>
				</g>
			</g>
		</g>
		<g id="shape106-74" v:mID="106" v:groupContext="shape" transform="translate(102.649,20.2175) rotate(90)">
			<title>Sheet.106</title>
			<path d="M0 51.77 L25.51 51.77" class="st1"/>
		</g>
		<g id="group107-77" transform="translate(-0.331684,45.7293) rotate(-90)" v:mID="107" v:groupContext="group">
			<title>Sheet.107</title>
			<g id="shape108-78" v:mID="108" v:groupContext="shape">
				<title>Sheet.108</title>
				<path d="M0 51.21 L1.42 50.64 L1.42 51.77 L0 51.21 Z" class="st5"/>
			</g>
		</g>
		<g id="shape109-80" v:mID="109" v:groupContext="shape" transform="translate(65.0482,-20.2175)">
			<title>Sheet.109</title>
			<desc>Neutral (N)</desc>
			<v:textBlock v:margins="rect(4,4,4,4)" v:tabSpace="42.5197"/>
			<v:textRect cx="20.1969" cy="46.1043" width="40.4" height="11.3386"/>
			<rect x="0" y="40.435" width="40.3937" height="11.3386" class="st2"/>
			<text x="4" y="47.9" class="st3" v:langID="1033"><v:paragraph/><v:tabList/>Neutral (N)</text>		</g>
	</g>
</svg>
