<?xml version="1.0" encoding="UTF-8" standalone="no"?>
<!DOCTYPE svg PUBLIC "-//W3C//DTD SVG 1.1//EN" "http://www.w3.org/Graphics/SVG/1.1/DTD/svg11.dtd">
<!-- Generated by Microsoft Visio, SVG Export Figure_10_7.svg Page-1 -->
<svg xmlns="http://www.w3.org/2000/svg" xmlns:xlink="http://www.w3.org/1999/xlink" xmlns:ev="http://www.w3.org/2001/xml-events"
		xmlns:v="http://schemas.microsoft.com/visio/2003/SVGExtensions/" width="3.45476in" height="2.60536in"
		viewBox="0 0 124.371 93.7933" xml:space="preserve" color-interpolation-filters="sRGB" class="st5">
	<v:documentProperties v:langID="4105" v:metric="true" v:viewMarkup="false"/>

	<style type="text/css">
	<![CDATA[
		.st1 {stroke:#000000;stroke-linecap:round;stroke-linejoin:round;stroke-width:0.25}
		.st2 {fill:#000000;stroke:#000000;stroke-linecap:round;stroke-linejoin:round;stroke-width:0.25}
		.st3 {fill:none;stroke:none;stroke-linecap:round;stroke-linejoin:round;stroke-width:0.25}
		.st4 {fill:#000000;font-family:Calibri;font-size:0.499992em}
		.st5 {fill:none;fill-rule:evenodd;font-size:12px;overflow:visible;stroke-linecap:square;stroke-miterlimit:3}
	]]>
	</style>

	<g v:mID="0" v:index="1" v:groupContext="foregroundPage">
		<title>Page-1</title>
		<v:pageProperties v:drawingScale="0.0393701" v:pageScale="0.0393701" v:drawingUnits="24" v:shadowOffsetX="8.50394"
				v:shadowOffsetY="-8.50394"/>
		<v:layer v:name="Electrical" v:index="0"/>
		<g id="group436-1" transform="translate(2.55478,-28.8967)" v:mID="436" v:groupContext="group">
			<title>Sheet.436</title>
			<g id="group437-2" transform="translate(-69.1885,68.7067) rotate(-90)" v:mID="437" v:groupContext="group">
				<title>Sheet.437</title>
				<g id="group438-3" transform="translate(2.89613,-0.141732)" v:mID="438" v:groupContext="group" v:layerMember="0">
					<v:custProps>
						<v:cp v:nameU="Core" v:lbl="Core" v:type="1" v:format="Air;Magnetic;Magnetic with Gap" v:langID="1033"
								v:val="VT4(Air)"/>
						<v:cp v:nameU="Adjustability" v:lbl="Adjustability" v:type="1"
								v:format="Fixed;Adjustable;Continuously Adjustable" v:langID="1033" v:val="VT4(Fixed)"/>
						<v:cp v:nameU="Taps" v:lbl="Taps" v:type="1" v:format="0;1;2;3" v:langID="1033" v:val="VT4(0)"/>
						<v:cp v:nameU="Label" v:lbl="Label" v:type="0" v:format="" v:sortKey="" v:invis="false" v:ask="false"
								v:langID="1033" v:val="VT0(0):26"/>
						<v:cp v:nameU="Value" v:lbl="Value" v:type="0" v:format="@" v:sortKey="" v:invis="false" v:ask="false"
								v:langID="1033" v:val="VT4()"/>
					</v:custProps>
					<v:userDefs>
						<v:ud v:nameU="Core" v:val="VT0(0):26"/>
						<v:ud v:nameU="Adjustability" v:val="VT0(0):26"/>
						<v:ud v:nameU="CH"/>
						<v:ud v:nameU="visVersion" v:val="VT0(15):26"/>
						<v:ud v:nameU="visDescription" v:val="VT4(Inductor. Right-click to set inductor properties.)"/>
					</v:userDefs>
					<title>Inductor.18</title>
					<g id="shape439-4" v:mID="439" v:groupContext="shape" v:layerMember="0">
						<title>Sheet.439</title>
						<path d="M0 93.79 A3.54614 4.08856 0 1 1 7.09 93.79 A3.54614 4.08856 0 1 1 14.17 93.79 A3.54614 4.08856 0
									 1 1 21.26 93.79 A3.54614 4.08856 0 1 1 28.35 93.79" class="st1"/>
						<path d="M0 93.79 L0 93.94" class="st1"/>
						<path d="M28.35 93.79 L28.35 93.94" class="st1"/>
					</g>
					<g id="shape440-9" v:mID="440" v:groupContext="shape" v:layerMember="0" transform="translate(13.6639,4.78346)">
						<title>Sheet.440</title>
					</g>
					<g id="shape441-11" v:mID="441" v:groupContext="shape" v:layerMember="0"
							transform="translate(-61.5756,35.9094) rotate(-45)">
						<title>Sheet.441</title>
					</g>
				</g>
				<g id="shape442-13" v:mID="442" v:groupContext="shape" transform="translate(2.89613,187.587) rotate(180)">
					<title>Sheet.442</title>
					<path d="M0 93.79 L2.9 93.79" class="st1"/>
				</g>
				<g id="shape443-16" v:mID="443" v:groupContext="shape" transform="translate(31.2426,0)">
					<title>Sheet.443</title>
					<path d="M0 93.79 L2.77 93.79" class="st1"/>
				</g>
			</g>
			<g id="group444-19" transform="translate(-65.7699,26.6525) rotate(-45)" v:mID="444" v:groupContext="group">
				<title>Sheet.444</title>
				<g id="group445-20" transform="translate(2.89613,-0.141732)" v:mID="445" v:groupContext="group" v:layerMember="0">
					<v:custProps>
						<v:cp v:nameU="Core" v:lbl="Core" v:type="1" v:format="Air;Magnetic;Magnetic with Gap" v:langID="1033"
								v:val="VT4(Air)"/>
						<v:cp v:nameU="Adjustability" v:lbl="Adjustability" v:type="1"
								v:format="Fixed;Adjustable;Continuously Adjustable" v:langID="1033" v:val="VT4(Fixed)"/>
						<v:cp v:nameU="Taps" v:lbl="Taps" v:type="1" v:format="0;1;2;3" v:langID="1033" v:val="VT4(0)"/>
						<v:cp v:nameU="Label" v:lbl="Label" v:type="0" v:format="" v:sortKey="" v:invis="false" v:ask="false"
								v:langID="1033" v:val="VT0(0):26"/>
						<v:cp v:nameU="Value" v:lbl="Value" v:type="0" v:format="@" v:sortKey="" v:invis="false" v:ask="false"
								v:langID="1033" v:val="VT4()"/>
					</v:custProps>
					<v:userDefs>
						<v:ud v:nameU="Core" v:val="VT0(0):26"/>
						<v:ud v:nameU="Adjustability" v:val="VT0(0):26"/>
						<v:ud v:nameU="CH"/>
						<v:ud v:nameU="visVersion" v:val="VT0(15):26"/>
						<v:ud v:nameU="visDescription" v:val="VT4(Inductor. Right-click to set inductor properties.)"/>
					</v:userDefs>
					<title>Inductor.18</title>
					<g id="shape446-21" v:mID="446" v:groupContext="shape" v:layerMember="0">
						<title>Sheet.446</title>
						<path d="M0 93.79 A3.54614 4.08856 0 1 1 7.09 93.79 A3.54614 4.08856 0 1 1 14.17 93.79 A3.54614 4.08856 0
									 1 1 21.26 93.79 A3.54614 4.08856 0 1 1 28.35 93.79" class="st1"/>
						<path d="M0 93.79 L0 93.94" class="st1"/>
						<path d="M28.35 93.79 L28.35 93.94" class="st1"/>
					</g>
					<g id="shape447-26" v:mID="447" v:groupContext="shape" v:layerMember="0" transform="translate(13.6639,4.78346)">
						<title>Sheet.447</title>
					</g>
					<g id="shape448-28" v:mID="448" v:groupContext="shape" v:layerMember="0"
							transform="translate(-61.5756,35.9094) rotate(-45)">
						<title>Sheet.448</title>
					</g>
				</g>
				<g id="shape449-30" v:mID="449" v:groupContext="shape" transform="translate(2.89613,187.587) rotate(180)">
					<title>Sheet.449</title>
					<path d="M0 93.79 L2.9 93.79" class="st1"/>
				</g>
				<g id="shape450-33" v:mID="450" v:groupContext="shape" transform="translate(31.2426,1.42109E-14)">
					<title>Sheet.450</title>
					<path d="M0 93.79 L2.77 93.79" class="st1"/>
				</g>
			</g>
			<g id="group451-36" transform="translate(91.0369,2.5997) rotate(45)" v:mID="451" v:groupContext="group">
				<title>Sheet.451</title>
				<g id="group452-37" transform="translate(2.89613,-0.141732)" v:mID="452" v:groupContext="group" v:layerMember="0">
					<v:custProps>
						<v:cp v:nameU="Core" v:lbl="Core" v:type="1" v:format="Air;Magnetic;Magnetic with Gap" v:langID="1033"
								v:val="VT4(Air)"/>
						<v:cp v:nameU="Adjustability" v:lbl="Adjustability" v:type="1"
								v:format="Fixed;Adjustable;Continuously Adjustable" v:langID="1033" v:val="VT4(Fixed)"/>
						<v:cp v:nameU="Taps" v:lbl="Taps" v:type="1" v:format="0;1;2;3" v:langID="1033" v:val="VT4(0)"/>
						<v:cp v:nameU="Label" v:lbl="Label" v:type="0" v:format="" v:sortKey="" v:invis="false" v:ask="false"
								v:langID="1033" v:val="VT0(0):26"/>
						<v:cp v:nameU="Value" v:lbl="Value" v:type="0" v:format="@" v:sortKey="" v:invis="false" v:ask="false"
								v:langID="1033" v:val="VT4()"/>
					</v:custProps>
					<v:userDefs>
						<v:ud v:nameU="Core" v:val="VT0(0):26"/>
						<v:ud v:nameU="Adjustability" v:val="VT0(0):26"/>
						<v:ud v:nameU="CH"/>
						<v:ud v:nameU="visVersion" v:val="VT0(15):26"/>
						<v:ud v:nameU="visDescription" v:val="VT4(Inductor. Right-click to set inductor properties.)"/>
					</v:userDefs>
					<title>Inductor.18</title>
					<g id="shape453-38" v:mID="453" v:groupContext="shape" v:layerMember="0">
						<title>Sheet.453</title>
						<path d="M0 93.79 A3.54614 4.08856 0 1 1 7.09 93.79 A3.54614 4.08856 0 1 1 14.17 93.79 A3.54614 4.08856 0
									 1 1 21.26 93.79 A3.54614 4.08856 0 1 1 28.35 93.79" class="st1"/>
						<path d="M0 93.79 L0 93.94" class="st1"/>
						<path d="M28.35 93.79 L28.35 93.94" class="st1"/>
					</g>
					<g id="shape454-43" v:mID="454" v:groupContext="shape" v:layerMember="0" transform="translate(13.6639,4.78346)">
						<title>Sheet.454</title>
					</g>
					<g id="shape455-45" v:mID="455" v:groupContext="shape" v:layerMember="0"
							transform="translate(-61.5756,35.9094) rotate(-45)">
						<title>Sheet.455</title>
					</g>
				</g>
				<g id="shape456-47" v:mID="456" v:groupContext="shape" transform="translate(2.89613,187.587) rotate(180)">
					<title>Sheet.456</title>
					<path d="M0 93.79 L2.9 93.79" class="st1"/>
				</g>
				<g id="shape457-50" v:mID="457" v:groupContext="shape" transform="translate(31.2426,0)">
					<title>Sheet.457</title>
					<path d="M0 93.79 L2.77 93.79" class="st1"/>
				</g>
			</g>
			<g id="shape458-53" v:mID="458" v:groupContext="shape" transform="translate(23.9245,-23.6693)">
				<title>Sheet.458</title>
				<ellipse cx="0.680315" cy="93.0846" rx="0.680315" ry="0.708661" class="st2"/>
			</g>
			<g id="shape459-55" v:mID="459" v:groupContext="shape" transform="translate(23.9245,-58.3938)">
				<title>Sheet.459</title>
				<ellipse cx="0.680315" cy="93.0846" rx="0.680315" ry="0.708661" class="st2"/>
			</g>
			<g id="shape460-57" v:mID="460" v:groupContext="shape" transform="translate(0,-0.356603)">
				<title>Sheet.460</title>
				<ellipse cx="0.680315" cy="93.0846" rx="0.680315" ry="0.708661" class="st2"/>
			</g>
			<g id="shape461-59" v:mID="461" v:groupContext="shape" transform="translate(48.189,0)">
				<title>Sheet.461</title>
				<ellipse cx="0.680315" cy="93.0846" rx="0.680315" ry="0.708661" class="st2"/>
			</g>
		</g>
		<g id="shape462-61" v:mID="462" v:groupContext="shape" transform="translate(27.1596,-87.999)">
			<title>Sheet.462</title>
			<path d="M0 93.79 L56.69 93.79" class="st1"/>
		</g>
		<g id="shape463-64" v:mID="463" v:groupContext="shape" transform="translate(51.3226,-29.7156)">
			<title>Sheet.463</title>
			<path d="M0 93.79 L32.53 93.79" class="st1"/>
		</g>
		<g id="shape464-67" v:mID="464" v:groupContext="shape" transform="translate(27.2698,-17.1329)">
			<title>Sheet.464</title>
			<path d="M0 57.16 L0 93.79 L56.58 93.79" class="st1"/>
		</g>
		<g id="shape465-70" v:mID="465" v:groupContext="shape" transform="translate(3.10682,-5.79429)">
			<title>Sheet.465</title>
			<path d="M0 69.87 L0 93.79 L80.75 93.79" class="st1"/>
		</g>
		<g id="shape466-73" v:mID="466" v:groupContext="shape" transform="translate(83.8524,-82.3297)">
			<title>Sheet.466</title>
			<desc>Phase A</desc>
			<v:textBlock v:margins="rect(4,4,4,4)" v:tabSpace="42.5197"/>
			<v:textRect cx="20.1969" cy="88.124" width="40.4" height="11.3386"/>
			<rect x="0" y="82.4547" width="40.3937" height="11.3386" class="st3"/>
			<text x="4" y="89.92" class="st4" v:langID="1033"><v:paragraph/><v:tabList/>Phase A</text>		</g>
		<g id="shape467-76" v:mID="467" v:groupContext="shape" transform="translate(83.8524,-23.936)">
			<title>Sheet.467</title>
			<desc>Phase B</desc>
			<v:textBlock v:margins="rect(4,4,4,4)" v:tabSpace="42.5197"/>
			<v:textRect cx="20.1969" cy="88.124" width="40.4" height="11.3386"/>
			<rect x="0" y="82.4547" width="40.3937" height="11.3386" class="st3"/>
			<text x="4" y="89.92" class="st4" v:langID="1033"><v:paragraph/><v:tabList/>Phase B</text>		</g>
		<g id="shape468-79" v:mID="468" v:groupContext="shape" transform="translate(83.8524,-11.4636)">
			<title>Sheet.468</title>
			<desc>Neutral (N)</desc>
			<v:textBlock v:margins="rect(4,4,4,4)" v:tabSpace="42.5197"/>
			<v:textRect cx="20.1969" cy="88.124" width="40.4" height="11.3386"/>
			<rect x="0" y="82.4547" width="40.3937" height="11.3386" class="st3"/>
			<text x="4" y="89.92" class="st4" v:langID="1033"><v:paragraph/><v:tabList/>Neutral (N)</text>		</g>
		<g id="shape469-82" v:mID="469" v:groupContext="shape" transform="translate(83.8524,-0.125)">
			<title>Sheet.469</title>
			<desc>Phase C</desc>
			<v:textBlock v:margins="rect(4,4,4,4)" v:tabSpace="42.5197"/>
			<v:textRect cx="20.1969" cy="88.124" width="40.4" height="11.3386"/>
			<rect x="0" y="82.4547" width="40.3937" height="11.3386" class="st3"/>
			<text x="4" y="89.92" class="st4" v:langID="1033"><v:paragraph/><v:tabList/>Phase C</text>		</g>
		<g id="shape470-85" v:mID="470" v:groupContext="shape" transform="translate(66.8445,-51.1486)">
			<title>Sheet.470</title>
			<desc>415V</desc>
			<v:textBlock v:margins="rect(4,4,4,4)" v:tabSpace="42.5197"/>
			<v:textRect cx="14.1732" cy="86.7067" width="28.35" height="14.1732"/>
			<rect x="0" y="79.6201" width="28.3465" height="14.1732" class="st3"/>
			<text x="7.91" y="88.51" class="st4" v:langID="1033"><v:paragraph v:horizAlign="1"/><v:tabList/>415V</text>		</g>
		<g id="shape471-88" v:mID="471" v:groupContext="shape" transform="translate(175.095,39.81) rotate(90)">
			<title>Sheet.471</title>
			<path d="M0 93.79 L48.19 93.79" class="st1"/>
		</g>
		<g id="shape472-91" v:mID="472" v:groupContext="shape" transform="translate(174.811,5.79429) rotate(90)">
			<title>Sheet.472</title>
			<path d="M0 93.79 L25.51 93.79" class="st1"/>
		</g>
		<g id="shape473-94" v:mID="473" v:groupContext="shape" transform="translate(49.8367,-62.4872)">
			<title>Sheet.473</title>
			<desc>240V</desc>
			<v:textBlock v:margins="rect(4,4,4,4)" v:tabSpace="42.5197"/>
			<v:textRect cx="14.1732" cy="86.7067" width="28.35" height="14.1732"/>
			<rect x="0" y="79.6201" width="28.3465" height="14.1732" class="st3"/>
			<text x="7.91" y="88.51" class="st4" v:langID="1033"><v:paragraph v:horizAlign="1"/><v:tabList/>240V</text>		</g>
		<g id="shape474-97" v:mID="474" v:groupContext="shape" transform="translate(157.803,5.79429) rotate(90)">
			<title>Sheet.474</title>
			<path d="M0 93.79 L14.17 93.79" class="st1"/>
		</g>
		<g id="shape475-100" v:mID="475" v:groupContext="shape" transform="translate(157.803,28.4715) rotate(90)">
			<title>Sheet.475</title>
			<path d="M0 93.79 L48.19 93.79" class="st1"/>
		</g>
		<g id="shape476-103" v:mID="476" v:groupContext="shape" transform="translate(41.3879,-51.7156)">
			<title>Sheet.476</title>
			<desc>415V</desc>
			<v:textBlock v:margins="rect(4,4,4,4)" v:tabSpace="42.5197"/>
			<v:textRect cx="14.1732" cy="86.7067" width="28.35" height="14.1732"/>
			<rect x="0" y="79.6201" width="28.3465" height="14.1732" class="st3"/>
			<text x="7.91" y="88.51" class="st4" v:langID="1033"><v:paragraph v:horizAlign="1"/><v:tabList/>415V</text>		</g>
		<g id="shape477-106" v:mID="477" v:groupContext="shape" transform="translate(149.299,39.81) rotate(90)">
			<title>Sheet.477</title>
			<path d="M0 93.79 L24.27 93.79" class="st1"/>
		</g>
		<g id="shape478-109" v:mID="478" v:groupContext="shape" transform="translate(149.299,5.79429) rotate(90)">
			<title>Sheet.478</title>
			<path d="M0 93.79 L25.51 93.79" class="st1"/>
		</g>
		<g id="shape479-112" v:mID="479" v:groupContext="shape" transform="translate(41.3879,-14.2982)">
			<title>Sheet.479</title>
			<desc>415V</desc>
			<v:textBlock v:margins="rect(4,4,4,4)" v:tabSpace="42.5197"/>
			<v:textRect cx="14.1732" cy="86.7067" width="28.35" height="14.1732"/>
			<rect x="0" y="79.6201" width="28.3465" height="14.1732" class="st3"/>
			<text x="7.91" y="88.51" class="st4" v:langID="1033"><v:paragraph v:horizAlign="1"/><v:tabList/>415V</text>		</g>
		<g id="shape480-115" v:mID="480" v:groupContext="shape" transform="translate(149.299,64.0777) rotate(90)">
			<title>Sheet.480</title>
			<path d="M0 93.79 L4.08 93.79" class="st1"/>
		</g>
		<g id="shape481-118" v:mID="481" v:groupContext="shape" transform="translate(149.299,75.4163) rotate(90)">
			<title>Sheet.481</title>
			<path d="M0 93.79 L12.58 93.79" class="st1"/>
		</g>
		<g id="shape482-121" v:mID="482" v:groupContext="shape" transform="translate(58.3406,-17.1329)">
			<title>Sheet.482</title>
			<desc>240V</desc>
			<v:textBlock v:margins="rect(4,4,4,4)" v:tabSpace="42.5197"/>
			<v:textRect cx="14.1732" cy="88.124" width="28.35" height="11.3386"/>
			<rect x="0" y="82.4547" width="28.3465" height="11.3386" class="st3"/>
			<text x="7.91" y="89.92" class="st4" v:langID="1033"><v:paragraph v:horizAlign="1"/><v:tabList/>240V</text>		</g>
		<g id="shape483-124" v:mID="483" v:groupContext="shape" transform="translate(58.3406,-5.79429)">
			<title>Sheet.483</title>
			<desc>240V</desc>
			<v:textBlock v:margins="rect(4,4,4,4)" v:tabSpace="42.5197"/>
			<v:textRect cx="14.1732" cy="88.124" width="28.35" height="11.3386"/>
			<rect x="0" y="82.4547" width="28.3465" height="11.3386" class="st3"/>
			<text x="7.91" y="89.92" class="st4" v:langID="1033"><v:paragraph v:horizAlign="1"/><v:tabList/>240V</text>		</g>
		<g id="shape484-127" v:mID="484" v:groupContext="shape" transform="translate(166.307,64.0777) rotate(90)">
			<title>Sheet.484</title>
			<path d="M0 93.79 L4.08 93.79" class="st1"/>
		</g>
		<g id="shape485-130" v:mID="485" v:groupContext="shape" transform="translate(166.307,73.8258) rotate(90)">
			<title>Sheet.485</title>
			<path d="M0 93.79 L2.83 93.79" class="st1"/>
		</g>
		<g id="shape486-133" v:mID="486" v:groupContext="shape" transform="translate(166.307,85.1644) rotate(90)">
			<title>Sheet.486</title>
			<path d="M0 93.79 L2.83 93.79" class="st1"/>
		</g>
		<g id="shape487-136" v:mID="487" v:groupContext="shape" transform="translate(166.307,76.6604) rotate(90)">
			<title>Sheet.487</title>
			<path d="M0 93.79 L2.83 93.79" class="st1"/>
		</g>
		<g id="group488-139" transform="translate(-37.7205,87.999) rotate(-90)" v:mID="488" v:groupContext="group">
			<title>Sheet.488</title>
			<g id="shape489-140" v:mID="489" v:groupContext="shape">
				<title>Sheet.489</title>
				<path d="M0 93.23 L1.42 92.66 L1.42 93.79 L0 93.23 Z" class="st2"/>
			</g>
		</g>
		<g id="group490-142" transform="translate(-20.7127,87.999) rotate(-90)" v:mID="490" v:groupContext="group">
			<title>Sheet.490</title>
			<g id="shape491-143" v:mID="491" v:groupContext="shape">
				<title>Sheet.491</title>
				<path d="M0 93.23 L1.42 92.66 L1.42 93.79 L0 93.23 Z" class="st2"/>
			</g>
		</g>
		<g id="group492-145" transform="translate(-37.6653,63.9045) rotate(-90)" v:mID="492" v:groupContext="group">
			<title>Sheet.492</title>
			<g id="shape493-146" v:mID="493" v:groupContext="shape">
				<title>Sheet.493</title>
				<path d="M0 93.23 L1.42 92.66 L1.42 93.79 L0 93.23 Z" class="st2"/>
			</g>
		</g>
		<g id="group494-148" transform="translate(-29.2166,76.6605) rotate(-90)" v:mID="494" v:groupContext="group">
			<title>Sheet.494</title>
			<g id="shape495-149" v:mID="495" v:groupContext="shape">
				<title>Sheet.495</title>
				<path d="M0 93.23 L1.42 92.66 L1.42 93.79 L0 93.23 Z" class="st2"/>
			</g>
		</g>
		<g id="group496-151" transform="translate(-20.7127,76.6605) rotate(-90)" v:mID="496" v:groupContext="group">
			<title>Sheet.496</title>
			<g id="shape497-152" v:mID="497" v:groupContext="shape">
				<title>Sheet.497</title>
				<path d="M0 93.23 L1.42 92.66 L1.42 93.79 L0 93.23 Z" class="st2"/>
			</g>
		</g>
		<g id="group498-154" transform="translate(165.74,64.1881) rotate(90)" v:mID="498" v:groupContext="group">
			<title>Sheet.498</title>
			<g id="shape499-155" v:mID="499" v:groupContext="shape">
				<title>Sheet.499</title>
				<path d="M0 93.23 L1.42 92.66 L1.42 93.79 L0 93.23 Z" class="st2"/>
			</g>
		</g>
		<g id="group500-157" transform="translate(148.787,64.1881) rotate(90)" v:mID="500" v:groupContext="group">
			<title>Sheet.500</title>
			<g id="shape501-158" v:mID="501" v:groupContext="shape">
				<title>Sheet.501</title>
				<path d="M0 93.23 L1.42 92.66 L1.42 93.79 L0 93.23 Z" class="st2"/>
			</g>
		</g>
		<g id="group502-160" transform="translate(174.244,5.79445) rotate(90)" v:mID="502" v:groupContext="group">
			<title>Sheet.502</title>
			<g id="shape503-161" v:mID="503" v:groupContext="shape">
				<title>Sheet.503</title>
				<path d="M0 93.23 L1.42 92.66 L1.42 93.79 L0 93.23 Z" class="st2"/>
			</g>
		</g>
		<g id="group504-163" transform="translate(-11.9252,87.999) rotate(-90)" v:mID="504" v:groupContext="group">
			<title>Sheet.504</title>
			<g id="shape505-164" v:mID="505" v:groupContext="shape">
				<title>Sheet.505</title>
				<path d="M0 93.23 L1.42 92.66 L1.42 93.79 L0 93.23 Z" class="st2"/>
			</g>
		</g>
		<g id="group506-166" transform="translate(157.236,5.79445) rotate(90)" v:mID="506" v:groupContext="group">
			<title>Sheet.506</title>
			<g id="shape507-167" v:mID="507" v:groupContext="shape">
				<title>Sheet.507</title>
				<path d="M0 93.23 L1.42 92.66 L1.42 93.79 L0 93.23 Z" class="st2"/>
			</g>
		</g>
		<g id="group508-169" transform="translate(148.732,5.79445) rotate(90)" v:mID="508" v:groupContext="group">
			<title>Sheet.508</title>
			<g id="shape509-170" v:mID="509" v:groupContext="shape">
				<title>Sheet.509</title>
				<path d="M0 93.23 L1.42 92.66 L1.42 93.79 L0 93.23 Z" class="st2"/>
			</g>
		</g>
		<g id="group510-172" transform="translate(165.74,76.6605) rotate(90)" v:mID="510" v:groupContext="group">
			<title>Sheet.510</title>
			<g id="shape511-173" v:mID="511" v:groupContext="shape">
				<title>Sheet.511</title>
				<path d="M0 93.23 L1.42 92.66 L1.42 93.79 L0 93.23 Z" class="st2"/>
			</g>
		</g>
	</g>
</svg>
